SplineFontDB: 3.2
FontName: NotoSansFakeMono-Regular
FullName: Noto Sans Fake Mono Regular
FamilyName: Noto Sans Fake Mono
Weight: Regular
Copyright: Copyright 2015 Google Inc. All Rights Reserved.
Version: 2.000;GOOG;noto-source:20170915:90ef993387c0
ItalicAngle: 0
UnderlinePosition: -125
UnderlineWidth: 50
Ascent: 800
Descent: 200
InvalidEm: 0
sfntRevision: 0x00020000
LayerCount: 2
Layer: 0 1 "Back" 1
Layer: 1 1 "Fore" 0
XUID: [1021 755 893909519 9767]
StyleMap: 0x0040
FSType: 0
OS2Version: 4
OS2_WeightWidthSlopeOnly: 1
OS2_UseTypoMetrics: 0
CreationTime: 1435678095
ModificationTime: 1666987204
PfmFamily: 17
TTFWeight: 400
TTFWidth: 5
LineGap: 0
VLineGap: 0
Panose: 2 11 5 9 4 5 4 2 2 4
OS2TypoAscent: 1069
OS2TypoAOffset: 0
OS2TypoDescent: -293
OS2TypoDOffset: 0
OS2TypoLinegap: 0
OS2WinAscent: 1069
OS2WinAOffset: 0
OS2WinDescent: 293
OS2WinDOffset: 0
HheadAscent: 1069
HheadAOffset: 0
HheadDescent: -293
HheadDOffset: 0
OS2SubXSize: 650
OS2SubYSize: 600
OS2SubXOff: 0
OS2SubYOff: 75
OS2SupXSize: 650
OS2SupYSize: 600
OS2SupXOff: 0
OS2SupYOff: 350
OS2StrikeYSize: 50
OS2StrikeYPos: 322
OS2CapHeight: 714
OS2XHeight: 536
OS2Vendor: 'GOOG'
OS2CodePages: 00000000.00000000
OS2UnicodeRanges: e00002ff.400038df.08000029.00100000
Lookup: 1 0 0 "'aalt' Access All Alternates lookup 0" { "'aalt' Access All Alternates lookup 0 subtable"  } ['aalt' ('DFLT' <'dflt' > 'cyrl' <'SRB ' 'dflt' > 'grek' <'dflt' > 'latn' <'CAT ' 'MAH ' 'MOL ' 'NAV ' 'ROM ' 'dflt' > ) ]
Lookup: 3 0 0 "'aalt' Access All Alternates lookup 1" { "'aalt' Access All Alternates lookup 1 subtable"  } ['aalt' ('DFLT' <'dflt' > 'cyrl' <'SRB ' 'dflt' > 'grek' <'dflt' > 'latn' <'CAT ' 'MAH ' 'MOL ' 'NAV ' 'ROM ' 'dflt' > ) ]
Lookup: 4 0 0 "'ccmp' Glyph Composition/Decomposition lookup 2" { "'ccmp' Glyph Composition/Decomposition lookup 2 subtable"  } ['ccmp' ('DFLT' <'dflt' > 'cyrl' <'SRB ' 'dflt' > 'grek' <'dflt' > 'latn' <'CAT ' 'MAH ' 'MOL ' 'NAV ' 'ROM ' 'dflt' > ) ]

StartChar: .notdef
Encoding: 65536 -1 0
Width: 600
GlyphClass: 1
Flags: W
LayerCount: 2
Fore
SplineSet
94 0 m 1,0,-1
 94 714 l 1,1,-1
 505 714 l 1,2,-1
 505 0 l 1,3,-1
 94 0 l 1,0,-1
145 51 m 1,4,-1
 454 51 l 1,5,-1
 454 663 l 1,6,-1
 145 663 l 1,7,-1
 145 51 l 1,4,-1
EndSplineSet
EndChar

StartChar: exclam
Encoding: 33 33 4
Width: 600
GlyphClass: 1
Flags: W
LayerCount: 2
Fore
SplineSet
262 202 m 1,0,-1
 246 714 l 1,1,-1
 355 714 l 1,2,-1
 339 202 l 1,3,-1
 262 202 l 1,0,-1
300 -10 m 256,4,5
 274 -10 274 -10 256 6 c 128,-1,6
 238 22 238 22 238 58 c 0,7,8
 238 96 238 96 256 111 c 128,-1,9
 274 126 274 126 300 126 c 256,10,11
 326 126 326 126 344 111 c 128,-1,12
 362 96 362 96 362 58 c 0,13,14
 362 22 362 22 344 6 c 128,-1,15
 326 -10 326 -10 300 -10 c 256,4,5
EndSplineSet
Substitution2: "'smcp' Lowercase to Small Capitals lookup 33 subtable" exclam.sc
Substitution2: "'c2sc' Capitals to Small Capitals lookup 32 subtable" exclam.sc
Substitution2: "'aalt' Access All Alternates lookup 0 subtable" exclam.sc
EndChar

StartChar: quotedbl
Encoding: 34 34 5
Width: 600
GlyphClass: 1
Flags: W
LayerCount: 2
Fore
SplineSet
365 456 m 1,0,-1
 345 714 l 1,1,-1
 440 714 l 1,2,-1
 420 456 l 1,3,-1
 365 456 l 1,0,-1
180 456 m 1,4,-1
 160 714 l 1,5,-1
 255 714 l 1,6,-1
 235 456 l 1,7,-1
 180 456 l 1,4,-1
EndSplineSet
EndChar

StartChar: numbersign
Encoding: 35 35 6
Width: 600
GlyphClass: 1
Flags: W
LayerCount: 2
Fore
SplineSet
101 0 m 1,0,-1
 139 209 l 1,1,-1
 20 209 l 1,2,-1
 20 276 l 1,3,-1
 152 276 l 1,4,-1
 184 436 l 1,5,-1
 57 436 l 1,6,-1
 57 502 l 1,7,-1
 196 502 l 1,8,-1
 236 714 l 1,9,-1
 308 714 l 1,10,-1
 268 502 l 1,11,-1
 392 502 l 1,12,-1
 432 714 l 1,13,-1
 501 714 l 1,14,-1
 461 502 l 1,15,-1
 580 502 l 1,16,-1
 580 436 l 1,17,-1
 448 436 l 1,18,-1
 417 276 l 1,19,-1
 546 276 l 1,20,-1
 546 209 l 1,21,-1
 404 209 l 1,22,-1
 363 0 l 1,23,-1
 292 0 l 1,24,-1
 333 209 l 1,25,-1
 210 209 l 1,26,-1
 171 0 l 1,27,-1
 101 0 l 1,0,-1
223 276 m 1,28,-1
 346 276 l 1,29,-1
 377 436 l 1,30,-1
 254 436 l 1,31,-1
 223 276 l 1,28,-1
EndSplineSet
EndChar

StartChar: dollar
Encoding: 36 36 7
Width: 600
GlyphClass: 1
Flags: W
LayerCount: 2
Fore
SplineSet
263 -58 m 1,0,-1
 263 34 l 1,1,2
 213 35 213 35 167.5 43.5 c 128,-1,3
 122 52 122 52 90 67 c 1,4,-1
 90 152 l 1,5,6
 124 136 124 136 170 124 c 128,-1,7
 216 112 216 112 263 111 c 1,8,-1
 263 328 l 1,9,10
 172 357 172 357 126 397.5 c 128,-1,11
 80 438 80 438 80 515 c 0,12,13
 80 590 80 590 129.5 635 c 128,-1,14
 179 680 179 680 263 686 c 1,15,-1
 263 759 l 1,16,-1
 327 759 l 1,17,-1
 327 687 l 1,18,19
 377 686 377 686 417 675.5 c 128,-1,20
 457 665 457 665 493 650 c 1,21,-1
 466 576 l 1,22,23
 434 589 434 589 399 598.5 c 128,-1,24
 364 608 364 608 327 611 c 1,25,-1
 327 395 l 1,26,27
 391 376 391 376 434 354.5 c 128,-1,28
 477 333 477 333 498.5 299.5 c 128,-1,29
 520 266 520 266 520 212 c 0,30,31
 520 142 520 142 469.5 95 c 128,-1,32
 419 48 419 48 327 38 c 1,33,-1
 327 -58 l 1,34,-1
 263 -58 l 1,0,-1
263 417 m 1,35,-1
 263 609 l 1,36,37
 213 604 213 604 189.5 579 c 128,-1,38
 166 554 166 554 166 515 c 0,39,40
 166 477 166 477 187 454.5 c 128,-1,41
 208 432 208 432 263 417 c 1,35,-1
327 116 m 1,42,43
 382 123 382 123 408 148.5 c 128,-1,44
 434 174 434 174 434 214 c 0,45,46
 434 252 434 252 411.5 271 c 128,-1,47
 389 290 389 290 327 307 c 1,48,-1
 327 116 l 1,42,43
EndSplineSet
EndChar

StartChar: percent
Encoding: 37 37 8
Width: 600
GlyphClass: 1
Flags: W
LayerCount: 2
Fore
SplineSet
142 383 m 0,0,1
 80 383 80 383 40 427.5 c 128,-1,2
 0 472 0 472 0 553 c 256,3,4
 0 634 0 634 38.5 678 c 128,-1,5
 77 722 77 722 144 722 c 0,6,7
 205 722 205 722 245.5 678 c 128,-1,8
 286 634 286 634 286 553 c 256,9,10
 286 472 286 472 247 427.5 c 128,-1,11
 208 383 208 383 142 383 c 0,0,1
83 0 m 1,12,-1
 439 714 l 1,13,-1
 516 714 l 1,14,-1
 160 0 l 1,15,-1
 83 0 l 1,12,-1
143 441 m 0,16,17
 177 441 177 441 194 468 c 128,-1,18
 211 495 211 495 211 553 c 0,19,20
 211 612 211 612 194 637.5 c 128,-1,21
 177 663 177 663 143 663 c 0,22,23
 108 663 108 663 91 637.5 c 128,-1,24
 74 612 74 612 74 553 c 0,25,26
 74 495 74 495 91 468 c 128,-1,27
 108 441 108 441 143 441 c 0,16,17
456 -9 m 0,28,29
 394 -9 394 -9 354 35.5 c 128,-1,30
 314 80 314 80 314 161 c 256,31,32
 314 242 314 242 352.5 286 c 128,-1,33
 391 330 391 330 458 330 c 0,34,35
 519 330 519 330 559.5 286 c 128,-1,36
 600 242 600 242 600 161 c 256,37,38
 600 80 600 80 561 35.5 c 128,-1,39
 522 -9 522 -9 456 -9 c 0,28,29
457 49 m 0,40,41
 491 49 491 49 508 76 c 128,-1,42
 525 103 525 103 525 161 c 0,43,44
 525 220 525 220 508 245.5 c 128,-1,45
 491 271 491 271 457 271 c 0,46,47
 422 271 422 271 405 245.5 c 128,-1,48
 388 220 388 220 388 161 c 0,49,50
 388 103 388 103 405 76 c 128,-1,51
 422 49 422 49 457 49 c 0,40,41
EndSplineSet
EndChar

StartChar: ampersand
Encoding: 38 38 9
Width: 600
GlyphClass: 1
Flags: W
LayerCount: 2
Fore
SplineSet
224 -10 m 0,0,1
 135 -10 135 -10 87 43 c 128,-1,2
 39 96 39 96 39 176 c 0,3,4
 39 227 39 227 57 266 c 128,-1,5
 75 305 75 305 104.5 336 c 128,-1,6
 134 367 134 367 170 394 c 1,7,8
 142 434 142 434 120.5 480.5 c 128,-1,9
 99 527 99 527 99 578 c 0,10,11
 99 644 99 644 139 684.5 c 128,-1,12
 179 725 179 725 249 725 c 256,13,14
 319 725 319 725 359 684.5 c 128,-1,15
 399 644 399 644 399 580 c 0,16,17
 399 536 399 536 381 500.5 c 128,-1,18
 363 465 363 465 334.5 435.5 c 128,-1,19
 306 406 306 406 275 381 c 1,20,-1
 415 207 l 1,21,22
 434 242 434 242 446.5 278.5 c 128,-1,23
 459 315 459 315 464 349 c 1,24,-1
 547 349 l 1,25,26
 537 292 537 292 517 238.5 c 128,-1,27
 497 185 497 185 469 140 c 1,28,-1
 581 0 l 1,29,-1
 474 0 l 1,30,-1
 416 74 l 1,31,32
 377 35 377 35 329 12.5 c 128,-1,33
 281 -10 281 -10 224 -10 c 0,0,1
181 576 m 0,34,35
 181 542 181 542 195 505.5 c 128,-1,36
 209 469 209 469 230 439 c 1,37,38
 262 464 262 464 290 499 c 128,-1,39
 318 534 318 534 318 580 c 0,40,41
 318 616 318 616 299 636 c 128,-1,42
 280 656 280 656 249 656 c 256,43,44
 218 656 218 656 199.5 635 c 128,-1,45
 181 614 181 614 181 576 c 0,34,35
125 181 m 0,46,47
 125 133 125 133 154 100 c 128,-1,48
 183 67 183 67 234 67 c 0,49,50
 273 67 273 67 306.5 86.5 c 128,-1,51
 340 106 340 106 368 137 c 1,52,-1
 216 333 l 1,53,54
 180 303 180 303 152.5 267 c 128,-1,55
 125 231 125 231 125 181 c 0,46,47
EndSplineSet
Substitution2: "'smcp' Lowercase to Small Capitals lookup 33 subtable" ampersand.sc
Substitution2: "'c2sc' Capitals to Small Capitals lookup 32 subtable" ampersand.sc
Substitution2: "'aalt' Access All Alternates lookup 0 subtable" ampersand.sc
EndChar

StartChar: quotesingle
Encoding: 39 39 10
Width: 600
GlyphClass: 1
Flags: W
LayerCount: 2
Fore
SplineSet
272 456 m 1,0,-1
 252 714 l 1,1,-1
 347 714 l 1,2,-1
 327 456 l 1,3,-1
 272 456 l 1,0,-1
EndSplineSet
EndChar

StartChar: parenleft
Encoding: 40 40 11
Width: 600
GlyphClass: 1
Flags: W
LayerCount: 2
Fore
SplineSet
347 -158 m 1,0,1
 271 -70 271 -70 235.5 41.5 c 128,-1,2
 200 153 200 153 200 274 c 0,3,4
 200 396 200 396 235.5 509.5 c 128,-1,5
 271 623 271 623 347 714 c 1,6,-1
 430 714 l 1,7,8
 360 620 360 620 324.5 507 c 128,-1,9
 289 394 289 394 289 275 c 0,10,11
 289 159 289 159 324.5 47.5 c 128,-1,12
 360 -64 360 -64 429 -158 c 1,13,-1
 347 -158 l 1,0,1
EndSplineSet
Substitution2: "'smcp' Lowercase to Small Capitals lookup 33 subtable" parenleft.sc
Substitution2: "'c2sc' Capitals to Small Capitals lookup 32 subtable" parenleft.sc
Substitution2: "'sups' Superscript lookup 21 subtable" uni207D
Substitution2: "'subs' Subscript lookup 20 subtable" uni208D
AlternateSubs2: "'aalt' Access All Alternates lookup 1 subtable" uni208D uni207D parenleft.sc
EndChar

StartChar: asterisk
Encoding: 42 42 13
Width: 600
GlyphClass: 1
Flags: W
LayerCount: 2
Fore
SplineSet
381 334 m 1,0,-1
 300 489 l 1,1,-1
 220 335 l 1,2,-1
 146 382 l 1,3,-1
 252 516 l 1,4,-1
 90 537 l 1,5,-1
 104 612 l 1,6,-1
 274 569 l 1,7,-1
 260 746 l 1,8,-1
 339 746 l 1,9,-1
 327 569 l 1,10,-1
 498 616 l 1,11,-1
 513 534 l 1,12,-1
 352 514 l 1,13,-1
 458 381 l 1,14,-1
 381 334 l 1,0,-1
EndSplineSet
EndChar

StartChar: plus
Encoding: 43 43 14
Width: 600
GlyphClass: 1
Flags: W
LayerCount: 2
Fore
SplineSet
265 121 m 1,0,-1
 265 317 l 1,1,-1
 80 317 l 1,2,-1
 80 388 l 1,3,-1
 265 388 l 1,4,-1
 265 585 l 1,5,-1
 337 585 l 1,6,-1
 337 388 l 1,7,-1
 520 388 l 1,8,-1
 520 317 l 1,9,-1
 337 317 l 1,10,-1
 337 121 l 1,11,-1
 265 121 l 1,0,-1
EndSplineSet
Substitution2: "'sups' Superscript lookup 21 subtable" uni207A
Substitution2: "'subs' Subscript lookup 20 subtable" uni208A
AlternateSubs2: "'aalt' Access All Alternates lookup 1 subtable" uni208A uni207A
EndChar

StartChar: comma
Encoding: 44 44 15
Width: 600
GlyphClass: 1
Flags: W
LayerCount: 2
Fore
SplineSet
211 -140 m 1,0,1
 227 -75 227 -75 242 -1.5 c 128,-1,2
 257 72 257 72 265 129 c 1,3,-1
 372 129 l 1,4,-1
 380 117 l 1,5,6
 365 58 365 58 338.5 -11 c 128,-1,7
 312 -80 312 -80 285 -140 c 1,8,-1
 211 -140 l 1,0,1
EndSplineSet
EndChar

StartChar: hyphen
Encoding: 45 45 16
Width: 600
GlyphClass: 1
Flags: W
LayerCount: 2
Fore
SplineSet
150 230 m 1,0,-1
 150 310 l 1,1,-1
 450 310 l 1,2,-1
 450 230 l 1,3,-1
 150 230 l 1,0,-1
EndSplineSet
EndChar

StartChar: period
Encoding: 46 46 17
Width: 600
GlyphClass: 1
Flags: W
LayerCount: 2
Fore
SplineSet
300 -10 m 256,0,1
 274 -10 274 -10 256 6 c 128,-1,2
 238 22 238 22 238 58 c 0,3,4
 238 96 238 96 256 111 c 128,-1,5
 274 126 274 126 300 126 c 256,6,7
 326 126 326 126 344 111 c 128,-1,8
 362 96 362 96 362 58 c 0,9,10
 362 22 362 22 344 6 c 128,-1,11
 326 -10 326 -10 300 -10 c 256,0,1
EndSplineSet
EndChar

StartChar: slash
Encoding: 47 47 18
Width: 600
GlyphClass: 1
Flags: W
LayerCount: 2
Fore
SplineSet
120 0 m 1,0,-1
 394 714 l 1,1,-1
 480 714 l 1,2,-1
 206 0 l 1,3,-1
 120 0 l 1,0,-1
EndSplineSet
Substitution2: "'frac' Diagonal Fractions lookup 24 subtable" fraction
Substitution2: "'aalt' Access All Alternates lookup 0 subtable" fraction
EndChar

StartChar: zero
Encoding: 48 48 19
Width: 600
GlyphClass: 1
Flags: W
LayerCount: 2
Fore
SplineSet
299 -10 m 0,0,1
 174 -10 174 -10 117 87.5 c 128,-1,2
 60 185 60 185 60 358 c 0,3,4
 60 474 60 474 84 555.5 c 128,-1,5
 108 637 108 637 160.5 680.5 c 128,-1,6
 213 724 213 724 299 724 c 0,7,8
 425 724 425 724 482.5 628 c 128,-1,9
 540 532 540 532 540 358 c 0,10,11
 540 242 540 242 516 160 c 128,-1,12
 492 78 492 78 439 34 c 128,-1,13
 386 -10 386 -10 299 -10 c 0,0,1
144 358 m 0,14,15
 144 314 144 314 147.5 275.5 c 128,-1,16
 151 237 151 237 158 206 c 1,17,-1
 395 607 l 1,18,19
 358 645 358 645 299 645 c 0,20,21
 218 645 218 645 181 574.5 c 128,-1,22
 144 504 144 504 144 358 c 0,14,15
299 69 m 0,23,24
 381 69 381 69 420 139.5 c 128,-1,25
 459 210 459 210 459 358 c 0,26,27
 459 462 459 462 439 528 c 1,28,-1
 196 118 l 1,29,30
 233 69 233 69 299 69 c 0,23,24
EndSplineSet
Substitution2: "'zero' Slashed Zero lookup 36 subtable" zero.slash
Substitution2: "'onum' Oldstyle Figures lookup 31 subtable" zero.osf
Substitution2: "'frac' Diagonal Fractions lookup 25 subtable" zero.numr
Substitution2: "'dnom' Denominators lookup 23 subtable" zero.dnom
Substitution2: "'numr' Numerators lookup 22 subtable" zero.numr
Substitution2: "'sups' Superscript lookup 21 subtable" uni2070
Substitution2: "'subs' Subscript lookup 20 subtable" uni2080
AlternateSubs2: "'aalt' Access All Alternates lookup 1 subtable" uni2070 zero.osf zero.dnom zero.numr uni2080
EndChar

StartChar: one
Encoding: 49 49 20
Width: 600
GlyphClass: 1
Flags: W
LayerCount: 2
Fore
SplineSet
133 0 m 1,0,-1
 133 60 l 1,1,-1
 283 70 l 1,2,-1
 283 446 l 2,3,4
 283 488 283 488 284.5 538.5 c 128,-1,5
 286 589 286 589 287 622 c 1,6,7
 270 613 270 613 257 607 c 128,-1,8
 244 601 244 601 219 588 c 2,9,-1
 136 545 l 1,10,-1
 97 613 l 1,11,-1
 296 714 l 1,12,-1
 369 714 l 1,13,-1
 369 70 l 1,14,-1
 520 60 l 1,15,-1
 520 0 l 1,16,-1
 133 0 l 1,0,-1
EndSplineSet
Substitution2: "'onum' Oldstyle Figures lookup 31 subtable" one.osf
Substitution2: "'frac' Diagonal Fractions lookup 25 subtable" one.numr
Substitution2: "'dnom' Denominators lookup 23 subtable" one.dnom
Substitution2: "'numr' Numerators lookup 22 subtable" one.numr
Substitution2: "'sups' Superscript lookup 21 subtable" uni00B9
Substitution2: "'subs' Subscript lookup 20 subtable" uni2081
AlternateSubs2: "'aalt' Access All Alternates lookup 1 subtable" uni00B9 one.osf one.dnom one.numr uni2081
EndChar

StartChar: two
Encoding: 50 50 21
Width: 600
GlyphClass: 1
Flags: W
LayerCount: 2
Fore
SplineSet
70 0 m 1,0,-1
 70 76 l 1,1,-1
 260 263 l 2,2,3
 334 336 334 336 375.5 396 c 128,-1,4
 417 456 417 456 417 524 c 0,5,6
 417 588 417 588 382 616.5 c 128,-1,7
 347 645 347 645 293 645 c 0,8,9
 246 645 246 645 204.5 626 c 128,-1,10
 163 607 163 607 127 578 c 1,11,-1
 77 640 l 1,12,13
 118 675 118 675 172 699.5 c 128,-1,14
 226 724 226 724 296 724 c 0,15,16
 392 724 392 724 449.5 673 c 128,-1,17
 507 622 507 622 507 527 c 0,18,19
 507 446 507 446 463.5 376.5 c 128,-1,20
 420 307 420 307 344 233 c 2,21,-1
 191 84 l 1,22,-1
 191 80 l 1,23,-1
 545 80 l 1,24,-1
 545 0 l 1,25,-1
 70 0 l 1,0,-1
EndSplineSet
Substitution2: "'onum' Oldstyle Figures lookup 31 subtable" two.osf
Substitution2: "'frac' Diagonal Fractions lookup 25 subtable" two.numr
Substitution2: "'dnom' Denominators lookup 23 subtable" two.dnom
Substitution2: "'numr' Numerators lookup 22 subtable" two.numr
Substitution2: "'sups' Superscript lookup 21 subtable" uni00B2
Substitution2: "'subs' Subscript lookup 20 subtable" uni2082
AlternateSubs2: "'aalt' Access All Alternates lookup 1 subtable" uni00B2 two.osf two.dnom two.numr uni2082
EndChar

StartChar: three
Encoding: 51 51 22
Width: 600
GlyphClass: 1
Flags: W
LayerCount: 2
Fore
SplineSet
261 -10 m 0,0,1
 218 -10 218 -10 168 -2 c 128,-1,2
 118 6 118 6 74 29 c 1,3,-1
 74 114 l 1,4,5
 118 92 118 92 169 80.5 c 128,-1,6
 220 69 220 69 267 69 c 0,7,8
 354 69 354 69 394 106 c 128,-1,9
 434 143 434 143 434 203 c 0,10,11
 434 271 434 271 386.5 300 c 128,-1,12
 339 329 339 329 253 329 c 2,13,-1
 179 329 l 1,14,-1
 179 409 l 1,15,-1
 253 409 l 2,16,17
 330 409 330 409 371 445 c 128,-1,18
 412 481 412 481 412 539 c 0,19,20
 412 589 412 589 380.5 617 c 128,-1,21
 349 645 349 645 288 645 c 0,22,23
 237 645 237 645 194.5 627.5 c 128,-1,24
 152 610 152 610 122 590 c 1,25,-1
 77 651 l 1,26,27
 115 681 115 681 170 702.5 c 128,-1,28
 225 724 225 724 294 724 c 0,29,30
 398 724 398 724 450.5 674 c 128,-1,31
 503 624 503 624 503 547 c 0,32,33
 503 475 503 475 462 431 c 128,-1,34
 421 387 421 387 354 376 c 1,35,-1
 354 373 l 1,36,37
 525 350 525 350 525 198 c 0,38,39
 525 138 525 138 497 91 c 128,-1,40
 469 44 469 44 410.5 17 c 128,-1,41
 352 -10 352 -10 261 -10 c 0,0,1
EndSplineSet
Substitution2: "'onum' Oldstyle Figures lookup 31 subtable" three.osf
Substitution2: "'frac' Diagonal Fractions lookup 25 subtable" three.numr
Substitution2: "'dnom' Denominators lookup 23 subtable" three.dnom
Substitution2: "'numr' Numerators lookup 22 subtable" three.numr
Substitution2: "'sups' Superscript lookup 21 subtable" uni00B3
Substitution2: "'subs' Subscript lookup 20 subtable" uni2083
AlternateSubs2: "'aalt' Access All Alternates lookup 1 subtable" uni00B3 three.osf three.dnom three.numr uni2083
EndChar

StartChar: four
Encoding: 52 52 23
Width: 600
GlyphClass: 1
Flags: W
LayerCount: 2
Fore
SplineSet
360 0 m 1,0,-1
 360 160 l 1,1,-1
 50 160 l 1,2,-1
 50 234 l 1,3,-1
 344 718 l 1,4,-1
 446 718 l 1,5,-1
 446 237 l 1,6,-1
 550 237 l 1,7,-1
 550 160 l 1,8,-1
 446 160 l 1,9,-1
 446 0 l 1,10,-1
 360 0 l 1,0,-1
137 237 m 1,11,-1
 360 237 l 1,12,-1
 360 415 l 2,13,14
 360 452 360 452 361 492 c 128,-1,15
 362 532 362 532 363.5 568 c 128,-1,16
 365 604 365 604 366 626 c 1,17,-1
 362 626 l 1,18,19
 355 606 355 606 341.5 580 c 128,-1,20
 328 554 328 554 318 538 c 2,21,-1
 137 237 l 1,11,-1
EndSplineSet
Substitution2: "'onum' Oldstyle Figures lookup 31 subtable" four.osf
Substitution2: "'frac' Diagonal Fractions lookup 25 subtable" four.numr
Substitution2: "'dnom' Denominators lookup 23 subtable" four.dnom
Substitution2: "'numr' Numerators lookup 22 subtable" four.numr
Substitution2: "'sups' Superscript lookup 21 subtable" uni2074
Substitution2: "'subs' Subscript lookup 20 subtable" uni2084
AlternateSubs2: "'aalt' Access All Alternates lookup 1 subtable" uni2074 four.osf four.dnom four.numr uni2084
EndChar

StartChar: five
Encoding: 53 53 24
Width: 600
GlyphClass: 1
Flags: W
LayerCount: 2
Fore
SplineSet
257 -10 m 0,0,1
 210 -10 210 -10 162 0 c 128,-1,2
 114 10 114 10 80 29 c 1,3,-1
 80 114 l 1,4,5
 114 92 114 92 158 80.5 c 128,-1,6
 202 69 202 69 249 69 c 0,7,8
 333 69 333 69 380 104.5 c 128,-1,9
 427 140 427 140 427 214 c 0,10,11
 427 289 427 289 380.5 327 c 128,-1,12
 334 365 334 365 256 365 c 0,13,14
 228 365 228 365 196 360.5 c 128,-1,15
 164 356 164 356 139 350 c 1,16,-1
 95 378 l 1,17,-1
 122 714 l 1,18,-1
 478 714 l 1,19,-1
 478 634 l 1,20,-1
 199 634 l 1,21,-1
 180 428 l 1,22,23
 201 432 201 432 231.5 435 c 128,-1,24
 262 438 262 438 285 438 c 0,25,26
 350 438 350 438 403 414 c 128,-1,27
 456 390 456 390 487.5 341.5 c 128,-1,28
 519 293 519 293 519 220 c 0,29,30
 519 115 519 115 450.5 52.5 c 128,-1,31
 382 -10 382 -10 257 -10 c 0,0,1
EndSplineSet
Substitution2: "'onum' Oldstyle Figures lookup 31 subtable" five.osf
Substitution2: "'frac' Diagonal Fractions lookup 25 subtable" five.numr
Substitution2: "'dnom' Denominators lookup 23 subtable" five.dnom
Substitution2: "'numr' Numerators lookup 22 subtable" five.numr
Substitution2: "'sups' Superscript lookup 21 subtable" uni2075
Substitution2: "'subs' Subscript lookup 20 subtable" uni2085
AlternateSubs2: "'aalt' Access All Alternates lookup 1 subtable" uni2075 five.osf five.dnom five.numr uni2085
EndChar

StartChar: six
Encoding: 54 54 25
Width: 600
GlyphClass: 1
Flags: W
LayerCount: 2
Fore
SplineSet
308 -10 m 0,0,1
 194 -10 194 -10 127 69 c 128,-1,2
 60 148 60 148 60 308 c 0,3,4
 60 385 60 385 73.5 459 c 128,-1,5
 87 533 87 533 123 593 c 128,-1,6
 159 653 159 653 224 688.5 c 128,-1,7
 289 724 289 724 392 724 c 0,8,9
 412 724 412 724 438 722 c 128,-1,10
 464 720 464 720 481 715 c 1,11,-1
 481 636 l 1,12,13
 464 642 464 642 441 645 c 128,-1,14
 418 648 418 648 395 648 c 0,15,16
 323 648 323 648 276 625.5 c 128,-1,17
 229 603 229 603 202 564 c 128,-1,18
 175 525 175 525 163 473.5 c 128,-1,19
 151 422 151 422 149 364 c 1,20,-1
 155 364 l 1,21,22
 174 402 174 402 216 427 c 128,-1,23
 258 452 258 452 322 452 c 0,24,25
 422 452 422 452 481 394 c 128,-1,26
 540 336 540 336 540 230 c 0,27,28
 540 118 540 118 477 54 c 128,-1,29
 414 -10 414 -10 308 -10 c 0,0,1
307 65 m 0,30,31
 372 65 372 65 413 103.5 c 128,-1,32
 454 142 454 142 454 230 c 0,33,34
 454 304 454 304 417.5 343 c 128,-1,35
 381 382 381 382 310 382 c 0,36,37
 262 382 262 382 225.5 362 c 128,-1,38
 189 342 189 342 169 311 c 128,-1,39
 149 280 149 280 149 247 c 0,40,41
 149 204 149 204 166.5 162 c 128,-1,42
 184 120 184 120 219 92.5 c 128,-1,43
 254 65 254 65 307 65 c 0,30,31
EndSplineSet
Substitution2: "'onum' Oldstyle Figures lookup 31 subtable" six.osf
Substitution2: "'frac' Diagonal Fractions lookup 25 subtable" six.numr
Substitution2: "'dnom' Denominators lookup 23 subtable" six.dnom
Substitution2: "'numr' Numerators lookup 22 subtable" six.numr
Substitution2: "'sups' Superscript lookup 21 subtable" uni2076
Substitution2: "'subs' Subscript lookup 20 subtable" uni2086
AlternateSubs2: "'aalt' Access All Alternates lookup 1 subtable" uni2076 six.osf six.dnom six.numr uni2086
EndChar

StartChar: seven
Encoding: 55 55 26
Width: 600
GlyphClass: 1
Flags: W
LayerCount: 2
Fore
SplineSet
174 0 m 1,0,-1
 449 634 l 1,1,-1
 60 634 l 1,2,-1
 60 714 l 1,3,-1
 540 714 l 1,4,-1
 540 643 l 1,5,-1
 269 0 l 1,6,-1
 174 0 l 1,0,-1
EndSplineSet
Substitution2: "'onum' Oldstyle Figures lookup 31 subtable" seven.osf
Substitution2: "'frac' Diagonal Fractions lookup 25 subtable" seven.numr
Substitution2: "'dnom' Denominators lookup 23 subtable" seven.dnom
Substitution2: "'numr' Numerators lookup 22 subtable" seven.numr
Substitution2: "'sups' Superscript lookup 21 subtable" uni2077
Substitution2: "'subs' Subscript lookup 20 subtable" uni2087
AlternateSubs2: "'aalt' Access All Alternates lookup 1 subtable" uni2077 seven.osf seven.dnom seven.numr uni2087
EndChar

StartChar: eight
Encoding: 56 56 27
Width: 600
GlyphClass: 1
Flags: W
LayerCount: 2
Fore
SplineSet
295 -10 m 0,0,1
 192 -10 192 -10 130 40.5 c 128,-1,2
 68 91 68 91 68 179 c 0,3,4
 68 230 68 230 88 266.5 c 128,-1,5
 108 303 108 303 141 329.5 c 128,-1,6
 174 356 174 356 214 374 c 1,7,8
 165 402 165 402 128 446 c 128,-1,9
 91 490 91 490 91 554 c 0,10,11
 91 610 91 610 120 648 c 128,-1,12
 149 686 149 686 197 705 c 128,-1,13
 245 724 245 724 301 724 c 256,14,15
 357 724 357 724 404 705 c 128,-1,16
 451 686 451 686 479.5 648 c 128,-1,17
 508 610 508 610 508 554 c 0,18,19
 508 488 508 488 469.5 446.5 c 128,-1,20
 431 405 431 405 373 378 c 1,21,22
 417 356 417 356 453 328.5 c 128,-1,23
 489 301 489 301 510 265 c 128,-1,24
 531 229 531 229 531 180 c 0,25,26
 531 124 531 124 502 81.5 c 128,-1,27
 473 39 473 39 420.5 14.5 c 128,-1,28
 368 -10 368 -10 295 -10 c 0,0,1
301 414 m 1,29,30
 351 436 351 436 386 466.5 c 128,-1,31
 421 497 421 497 421 549 c 0,32,33
 421 598 421 598 388 623.5 c 128,-1,34
 355 649 355 649 299 649 c 0,35,36
 244 649 244 649 211 623.5 c 128,-1,37
 178 598 178 598 178 549 c 0,38,39
 178 512 178 512 196 487 c 128,-1,40
 214 462 214 462 242 445 c 128,-1,41
 270 428 270 428 301 414 c 1,29,30
298 63 m 0,42,43
 369 63 369 63 406.5 97.5 c 128,-1,44
 444 132 444 132 444 185 c 256,45,46
 444 238 444 238 405 270 c 128,-1,47
 366 302 366 302 287 340 c 1,48,49
 226 313 226 313 191 275 c 128,-1,50
 156 237 156 237 156 180 c 0,51,52
 156 129 156 129 190 96 c 128,-1,53
 224 63 224 63 298 63 c 0,42,43
EndSplineSet
Substitution2: "'onum' Oldstyle Figures lookup 31 subtable" eight.osf
Substitution2: "'frac' Diagonal Fractions lookup 25 subtable" eight.numr
Substitution2: "'dnom' Denominators lookup 23 subtable" eight.dnom
Substitution2: "'numr' Numerators lookup 22 subtable" eight.numr
Substitution2: "'sups' Superscript lookup 21 subtable" uni2078
Substitution2: "'subs' Subscript lookup 20 subtable" uni2088
AlternateSubs2: "'aalt' Access All Alternates lookup 1 subtable" uni2078 eight.osf eight.dnom eight.numr uni2088
EndChar

StartChar: nine
Encoding: 57 57 28
Width: 600
GlyphClass: 1
Flags: W
LayerCount: 2
Fore
SplineSet
217 -10 m 0,0,1
 194 -10 194 -10 170 -8 c 128,-1,2
 146 -6 146 -6 129 -1 c 1,3,-1
 129 78 l 1,4,5
 164 66 164 66 213 66 c 0,6,7
 281 66 281 66 326 88.5 c 128,-1,8
 371 111 371 111 397.5 150.5 c 128,-1,9
 424 190 424 190 436.5 241 c 128,-1,10
 449 292 449 292 451 350 c 1,11,-1
 445 350 l 1,12,13
 425 312 425 312 382.5 287 c 128,-1,14
 340 262 340 262 278 262 c 0,15,16
 178 262 178 262 119 320.5 c 128,-1,17
 60 379 60 379 60 488 c 256,18,19
 60 597 60 597 123 660.5 c 128,-1,20
 186 724 186 724 294 724 c 0,21,22
 368 724 368 724 423 689.5 c 128,-1,23
 478 655 478 655 509 581.5 c 128,-1,24
 540 508 540 508 540 391 c 0,25,26
 540 337 540 337 532 280.5 c 128,-1,27
 524 224 524 224 503.5 172 c 128,-1,28
 483 120 483 120 446.5 79 c 128,-1,29
 410 38 410 38 353.5 14 c 128,-1,30
 297 -10 297 -10 217 -10 c 0,0,1
287 332 m 0,31,32
 334 332 334 332 371 350.5 c 128,-1,33
 408 369 408 369 429.5 401.5 c 128,-1,34
 451 434 451 434 451 477 c 0,35,36
 451 502 451 502 441.5 532 c 128,-1,37
 432 562 432 562 413 588.5 c 128,-1,38
 394 615 394 615 364 632 c 128,-1,39
 334 649 334 649 293 649 c 0,40,41
 226 649 226 649 186 609 c 128,-1,42
 146 569 146 569 146 487 c 0,43,44
 146 406 146 406 183.5 369 c 128,-1,45
 221 332 221 332 287 332 c 0,31,32
EndSplineSet
Substitution2: "'onum' Oldstyle Figures lookup 31 subtable" nine.osf
Substitution2: "'frac' Diagonal Fractions lookup 25 subtable" nine.numr
Substitution2: "'dnom' Denominators lookup 23 subtable" nine.dnom
Substitution2: "'numr' Numerators lookup 22 subtable" nine.numr
Substitution2: "'sups' Superscript lookup 21 subtable" uni2079
Substitution2: "'subs' Subscript lookup 20 subtable" uni2089
AlternateSubs2: "'aalt' Access All Alternates lookup 1 subtable" uni2079 nine.osf nine.dnom nine.numr uni2089
EndChar

StartChar: colon
Encoding: 58 58 29
Width: 600
GlyphClass: 1
Flags: W
LayerCount: 2
Fore
SplineSet
301 410 m 0,0,1
 275 410 275 410 257 426 c 128,-1,2
 239 442 239 442 239 478 c 0,3,4
 239 516 239 516 257 531 c 128,-1,5
 275 546 275 546 301 546 c 0,6,7
 326 546 326 546 344 531 c 128,-1,8
 362 516 362 516 362 478 c 0,9,10
 362 442 362 442 344 426 c 128,-1,11
 326 410 326 410 301 410 c 0,0,1
300 -10 m 256,12,13
 274 -10 274 -10 256 6 c 128,-1,14
 238 22 238 22 238 58 c 0,15,16
 238 96 238 96 256 111 c 128,-1,17
 274 126 274 126 300 126 c 256,18,19
 326 126 326 126 343.5 111 c 128,-1,20
 361 96 361 96 361 58 c 0,21,22
 361 22 361 22 343.5 6 c 128,-1,23
 326 -10 326 -10 300 -10 c 256,12,13
EndSplineSet
EndChar

StartChar: semicolon
Encoding: 59 59 30
Width: 600
GlyphClass: 1
Flags: W
LayerCount: 2
Fore
SplineSet
323 410 m 0,0,1
 297 410 297 410 279 426 c 128,-1,2
 261 442 261 442 261 478 c 0,3,4
 261 516 261 516 279 531 c 128,-1,5
 297 546 297 546 323 546 c 0,6,7
 348 546 348 546 366.5 531 c 128,-1,8
 385 516 385 516 385 478 c 0,9,10
 385 442 385 442 366.5 426 c 128,-1,11
 348 410 348 410 323 410 c 0,0,1
211 -140 m 1,12,13
 227 -75 227 -75 242 -1.5 c 128,-1,14
 257 72 257 72 265 129 c 1,15,-1
 372 129 l 1,16,-1
 380 117 l 1,17,18
 365 58 365 58 338.5 -11 c 128,-1,19
 312 -80 312 -80 285 -140 c 1,20,-1
 211 -140 l 1,12,13
EndSplineSet
EndChar

StartChar: equal
Encoding: 61 61 32
Width: 600
GlyphClass: 1
Flags: W
LayerCount: 2
Fore
SplineSet
70 407 m 1,0,-1
 70 487 l 1,1,-1
 530 487 l 1,2,-1
 530 407 l 1,3,-1
 70 407 l 1,0,-1
70 217 m 1,4,-1
 70 297 l 1,5,-1
 530 297 l 1,6,-1
 530 217 l 1,7,-1
 70 217 l 1,4,-1
EndSplineSet
Substitution2: "'sups' Superscript lookup 21 subtable" uni207C
Substitution2: "'subs' Subscript lookup 20 subtable" uni208C
AlternateSubs2: "'aalt' Access All Alternates lookup 1 subtable" uni208C uni207C
EndChar

StartChar: greater
Encoding: 62 62 33
Width: 600
GlyphClass: 1
Flags: W
LayerCount: 2
Fore
SplineSet
90 116 m 1,0,-1
 90 194 l 1,1,-1
 416 351 l 1,2,-1
 90 530 l 1,3,-1
 90 608 l 1,4,-1
 510 373 l 1,5,-1
 510 323 l 1,6,-1
 90 116 l 1,0,-1
EndSplineSet
EndChar

StartChar: question
Encoding: 63 63 34
Width: 600
GlyphClass: 1
Flags: W
LayerCount: 2
Fore
SplineSet
230 202 m 1,0,-1
 230 220 l 2,1,2
 230 258 230 258 239 286 c 128,-1,3
 248 314 248 314 270 339 c 128,-1,4
 292 364 292 364 331 392 c 0,5,6
 365 416 365 416 385.5 437 c 128,-1,7
 406 458 406 458 415.5 483 c 128,-1,8
 425 508 425 508 425 545 c 0,9,10
 425 588 425 588 392.5 617 c 128,-1,11
 360 646 360 646 298 646 c 0,12,13
 246 646 246 646 204 633.5 c 128,-1,14
 162 621 162 621 122 602 c 1,15,-1
 90 677 l 1,16,17
 130 695 130 695 178 709.5 c 128,-1,18
 226 724 226 724 293 724 c 0,19,20
 394 724 394 724 452 676.5 c 128,-1,21
 510 629 510 629 510 549 c 0,22,23
 510 502 510 502 498 468 c 128,-1,24
 486 434 486 434 461 406 c 128,-1,25
 436 378 436 378 398 350 c 0,26,27
 358 321 358 321 339 300.5 c 128,-1,28
 320 280 320 280 314 260 c 128,-1,29
 308 240 308 240 308 211 c 2,30,-1
 308 202 l 1,31,-1
 230 202 l 1,0,-1
273 -10 m 0,32,33
 247 -10 247 -10 229 6 c 128,-1,34
 211 22 211 22 211 58 c 0,35,36
 211 96 211 96 229 111 c 128,-1,37
 247 126 247 126 273 126 c 0,38,39
 298 126 298 126 316.5 111 c 128,-1,40
 335 96 335 96 335 58 c 0,41,42
 335 22 335 22 316.5 6 c 128,-1,43
 298 -10 298 -10 273 -10 c 0,32,33
EndSplineSet
Substitution2: "'smcp' Lowercase to Small Capitals lookup 33 subtable" question.sc
Substitution2: "'c2sc' Capitals to Small Capitals lookup 32 subtable" question.sc
Substitution2: "'aalt' Access All Alternates lookup 0 subtable" question.sc
EndChar

StartChar: at
Encoding: 64 64 35
Width: 600
GlyphClass: 1
Flags: W
LayerCount: 2
Fore
SplineSet
324 -89 m 0,0,1
 224 -89 224 -89 155 -42 c 128,-1,2
 86 5 86 5 50.5 91.5 c 128,-1,3
 15 178 15 178 15 294 c 0,4,5
 15 416 15 416 49.5 511 c 128,-1,6
 84 606 84 606 152 660 c 128,-1,7
 220 714 220 714 319 714 c 0,8,9
 400 714 400 714 459.5 671 c 128,-1,10
 519 628 519 628 552 548 c 128,-1,11
 585 468 585 468 585 357 c 0,12,13
 585 311 585 311 578.5 267 c 128,-1,14
 572 223 572 223 558.5 187 c 128,-1,15
 545 151 545 151 522.5 129.5 c 128,-1,16
 500 108 500 108 467 108 c 0,17,18
 433 108 433 108 413.5 135 c 128,-1,19
 394 162 394 162 390 196 c 1,20,-1
 388 196 l 1,21,22
 374 159 374 159 346 133.5 c 128,-1,23
 318 108 318 108 276 108 c 0,24,25
 215 108 215 108 182 160 c 128,-1,26
 149 212 149 212 149 296 c 0,27,28
 149 362 149 362 170 412.5 c 128,-1,29
 191 463 191 463 229.5 491.5 c 128,-1,30
 268 520 268 520 321 520 c 0,31,32
 357 520 357 520 392 512.5 c 128,-1,33
 427 505 427 505 446 497 c 1,34,-1
 435 294 l 2,35,36
 434 286 434 286 434 275 c 128,-1,37
 434 264 434 264 434 257 c 0,38,39
 434 205 434 205 445 188 c 128,-1,40
 456 171 456 171 469 171 c 0,41,42
 487 171 487 171 497.5 196.5 c 128,-1,43
 508 222 508 222 513 264.5 c 128,-1,44
 518 307 518 307 518 358 c 0,45,46
 518 497 518 497 462.5 572.5 c 128,-1,47
 407 648 407 648 318 648 c 0,48,49
 242 648 242 648 189.5 604 c 128,-1,50
 137 560 137 560 110.5 481 c 128,-1,51
 84 402 84 402 84 297 c 0,52,53
 84 149 84 149 145 63.5 c 128,-1,54
 206 -22 206 -22 327 -22 c 0,55,56
 377 -22 377 -22 419 -11 c 128,-1,57
 461 0 461 0 496 16 c 1,58,-1
 496 -49 l 1,59,60
 460 -67 460 -67 419 -78 c 128,-1,61
 378 -89 378 -89 324 -89 c 0,0,1
289 171 m 0,62,63
 326 171 326 171 341 213.5 c 128,-1,64
 356 256 356 256 360 323 c 2,65,-1
 367 447 l 1,66,67
 357 451 357 451 344 454 c 128,-1,68
 331 457 331 457 317 457 c 0,69,70
 284 457 284 457 264 433 c 128,-1,71
 244 409 244 409 235.5 371.5 c 128,-1,72
 227 334 227 334 227 294 c 0,73,74
 227 229 227 229 244 200 c 128,-1,75
 261 171 261 171 289 171 c 0,62,63
EndSplineSet
EndChar

StartChar: A
Encoding: 65 65 36
Width: 600
GlyphClass: 2
Flags: W
AnchorPoint: "Anchor-4" 580 714 basechar 0
AnchorPoint: "Anchor-3" 300 714 basechar 0
AnchorPoint: "Anchor-2" 540 10 basechar 0
AnchorPoint: "Anchor-0" 300 0 basechar 0
LayerCount: 2
Fore
SplineSet
20 0 m 1,0,-1
 252 717 l 1,1,-1
 347 717 l 1,2,-1
 580 0 l 1,3,-1
 488 0 l 1,4,-1
 420 219 l 1,5,-1
 179 219 l 1,6,-1
 111 0 l 1,7,-1
 20 0 l 1,0,-1
270 512 m 2,8,-1
 204 299 l 1,9,-1
 395 299 l 1,10,-1
 329 512 l 2,11,12
 324 529 324 529 315 560 c 128,-1,13
 306 591 306 591 299 622 c 1,14,15
 293 591 293 591 284 559.5 c 128,-1,16
 275 528 275 528 270 512 c 2,8,-1
EndSplineSet
Substitution2: "'c2sc' Capitals to Small Capitals lookup 32 subtable" a.sc
Substitution2: "Single Substitution lookup 30 subtable" ordfeminine
AlternateSubs2: "'aalt' Access All Alternates lookup 1 subtable" ordfeminine a.sc
EndChar

StartChar: B
Encoding: 66 66 37
Width: 600
GlyphClass: 2
Flags: W
AnchorPoint: "Anchor-4" 580 714 basechar 0
AnchorPoint: "Anchor-3" 300 714 basechar 0
AnchorPoint: "Anchor-0" 300 0 basechar 0
LayerCount: 2
Fore
SplineSet
95 0 m 1,0,-1
 95 714 l 1,1,-1
 287 714 l 2,2,3
 397 714 397 714 461 674.5 c 128,-1,4
 525 635 525 635 525 539 c 0,5,6
 525 469 525 469 491 429 c 128,-1,7
 457 389 457 389 397 379 c 1,8,-1
 397 374 l 1,9,10
 438 366 438 366 471.5 348.5 c 128,-1,11
 505 331 505 331 525 297 c 128,-1,12
 545 263 545 263 545 207 c 0,13,14
 545 110 545 110 484 55 c 128,-1,15
 423 0 423 0 317 0 c 2,16,-1
 95 0 l 1,0,-1
180 412 m 1,17,-1
 295 412 l 2,18,19
 370 412 370 412 402 440.5 c 128,-1,20
 434 469 434 469 434 527 c 0,21,22
 434 586 434 586 399.5 611 c 128,-1,23
 365 636 365 636 280 636 c 2,24,-1
 180 636 l 1,25,-1
 180 412 l 1,17,-1
180 78 m 1,26,-1
 301 78 l 2,27,28
 386 78 386 78 419.5 114 c 128,-1,29
 453 150 453 150 453 207 c 0,30,31
 453 265 453 265 418.5 299.5 c 128,-1,32
 384 334 384 334 295 334 c 2,33,-1
 180 334 l 1,34,-1
 180 78 l 1,26,-1
EndSplineSet
Substitution2: "'c2sc' Capitals to Small Capitals lookup 32 subtable" b.sc
Substitution2: "'aalt' Access All Alternates lookup 0 subtable" b.sc
EndChar

StartChar: C
Encoding: 67 67 38
Width: 600
GlyphClass: 2
Flags: W
AnchorPoint: "Anchor-4" 580 714 basechar 0
AnchorPoint: "Anchor-3" 359 714 basechar 0
AnchorPoint: "Anchor-0" 351 0 basechar 0
LayerCount: 2
Fore
SplineSet
365 -10 m 0,0,1
 260 -10 260 -10 194 37 c 128,-1,2
 128 84 128 84 97 166.5 c 128,-1,3
 66 249 66 249 66 357 c 0,4,5
 66 470 66 470 101.5 552.5 c 128,-1,6
 137 635 137 635 204.5 679.5 c 128,-1,7
 272 724 272 724 369 724 c 0,8,9
 421 724 421 724 466.5 713 c 128,-1,10
 512 702 512 702 550 682 c 1,11,-1
 516 609 l 1,12,13
 485 626 485 626 445.5 635 c 128,-1,14
 406 644 406 644 369 644 c 0,15,16
 267 644 267 644 212.5 570 c 128,-1,17
 158 496 158 496 158 357 c 0,18,19
 158 224 158 224 207 148.5 c 128,-1,20
 256 73 256 73 367 73 c 0,21,22
 401 73 401 73 440.5 80.5 c 128,-1,23
 480 88 480 88 519 104 c 1,24,-1
 519 19 l 1,25,26
 478 4 478 4 442 -3 c 128,-1,27
 406 -10 406 -10 365 -10 c 0,0,1
EndSplineSet
Substitution2: "'c2sc' Capitals to Small Capitals lookup 32 subtable" c.sc
Substitution2: "'aalt' Access All Alternates lookup 0 subtable" c.sc
EndChar

StartChar: D
Encoding: 68 68 39
Width: 600
GlyphClass: 2
Flags: W
AnchorPoint: "Anchor-4" 600 714 basechar 0
AnchorPoint: "Anchor-3" 277 714 basechar 0
AnchorPoint: "Anchor-1" 299 357 basechar 0
AnchorPoint: "Anchor-0" 264 0 basechar 0
LayerCount: 2
Fore
SplineSet
70 0 m 1,0,-1
 70 714 l 1,1,-1
 243 714 l 2,2,3
 338 714 338 714 408 674 c 128,-1,4
 478 634 478 634 516.5 556 c 128,-1,5
 555 478 555 478 555 364 c 0,6,7
 555 183 555 183 467.5 91.5 c 128,-1,8
 380 0 380 0 223 0 c 2,9,-1
 70 0 l 1,0,-1
160 78 m 1,10,-1
 214 78 l 2,11,12
 342 78 342 78 402.5 150 c 128,-1,13
 463 222 463 222 463 361 c 0,14,15
 463 503 463 503 401.5 569.5 c 128,-1,16
 340 636 340 636 233 636 c 2,17,-1
 160 636 l 1,18,-1
 160 78 l 1,10,-1
EndSplineSet
Substitution2: "'c2sc' Capitals to Small Capitals lookup 32 subtable" d.sc
Substitution2: "'aalt' Access All Alternates lookup 0 subtable" d.sc
EndChar

StartChar: E
Encoding: 69 69 40
Width: 600
GlyphClass: 2
Flags: W
AnchorPoint: "Anchor-4" 580 714 basechar 0
AnchorPoint: "Anchor-3" 306 714 basechar 0
AnchorPoint: "Anchor-2" 457 10 basechar 0
AnchorPoint: "Anchor-0" 304 0 basechar 0
LayerCount: 2
Fore
SplineSet
95 0 m 1,0,-1
 95 714 l 1,1,-1
 515 714 l 1,2,-1
 515 634 l 1,3,-1
 185 634 l 1,4,-1
 185 413 l 1,5,-1
 496 413 l 1,6,-1
 496 333 l 1,7,-1
 185 333 l 1,8,-1
 185 80 l 1,9,-1
 515 80 l 1,10,-1
 515 0 l 1,11,-1
 95 0 l 1,0,-1
EndSplineSet
Substitution2: "'c2sc' Capitals to Small Capitals lookup 32 subtable" e.sc
Substitution2: "'aalt' Access All Alternates lookup 0 subtable" e.sc
EndChar

StartChar: F
Encoding: 70 70 41
Width: 600
GlyphClass: 2
Flags: W
AnchorPoint: "Anchor-4" 580 714 basechar 0
AnchorPoint: "Anchor-3" 317 714 basechar 0
AnchorPoint: "Anchor-0" 317 0 basechar 0
LayerCount: 2
Fore
SplineSet
95 0 m 1,0,-1
 95 714 l 1,1,-1
 515 714 l 1,2,-1
 515 634 l 1,3,-1
 185 634 l 1,4,-1
 185 382 l 1,5,-1
 496 382 l 1,6,-1
 496 302 l 1,7,-1
 185 302 l 1,8,-1
 185 0 l 1,9,-1
 95 0 l 1,0,-1
EndSplineSet
Substitution2: "'c2sc' Capitals to Small Capitals lookup 32 subtable" f.sc
Substitution2: "'aalt' Access All Alternates lookup 0 subtable" f.sc
EndChar

StartChar: G
Encoding: 71 71 42
Width: 600
GlyphClass: 2
Flags: W
AnchorPoint: "Anchor-4" 580 714 basechar 0
AnchorPoint: "Anchor-3" 322 714 basechar 0
AnchorPoint: "Anchor-0" 337 0 basechar 0
LayerCount: 2
Fore
SplineSet
340 -10 m 0,0,1
 194 -10 194 -10 119.5 81 c 128,-1,2
 45 172 45 172 45 346 c 0,3,4
 45 525 45 525 123 624.5 c 128,-1,5
 201 724 201 724 352 724 c 0,6,7
 403 724 403 724 444 713 c 128,-1,8
 485 702 485 702 522 682 c 1,9,-1
 490 607 l 1,10,11
 464 623 464 623 430.5 633 c 128,-1,12
 397 643 397 643 354 643 c 0,13,14
 245 643 245 643 191 566.5 c 128,-1,15
 137 490 137 490 137 350 c 0,16,17
 137 270 137 270 156.5 206.5 c 128,-1,18
 176 143 176 143 221 106.5 c 128,-1,19
 266 70 266 70 344 70 c 0,20,21
 376 70 376 70 400 75 c 128,-1,22
 424 80 424 80 443 85 c 1,23,-1
 443 297 l 1,24,-1
 313 297 l 1,25,-1
 313 377 l 1,26,-1
 530 377 l 1,27,-1
 530 27 l 1,28,29
 493 12 493 12 444.5 1 c 128,-1,30
 396 -10 396 -10 340 -10 c 0,0,1
EndSplineSet
Substitution2: "'c2sc' Capitals to Small Capitals lookup 32 subtable" g.sc
Substitution2: "'aalt' Access All Alternates lookup 0 subtable" g.sc
EndChar

StartChar: H
Encoding: 72 72 43
Width: 600
GlyphClass: 2
Flags: W
AnchorPoint: "Anchor-4" 600 714 basechar 0
AnchorPoint: "Anchor-3" 300 714 basechar 0
AnchorPoint: "Anchor-1" 300 375 basechar 0
AnchorPoint: "Anchor-0" 300 0 basechar 0
LayerCount: 2
Fore
SplineSet
70 0 m 1,0,-1
 70 714 l 1,1,-1
 160 714 l 1,2,-1
 160 413 l 1,3,-1
 440 413 l 1,4,-1
 440 714 l 1,5,-1
 530 714 l 1,6,-1
 530 0 l 1,7,-1
 440 0 l 1,8,-1
 440 333 l 1,9,-1
 160 333 l 1,10,-1
 160 0 l 1,11,-1
 70 0 l 1,0,-1
EndSplineSet
Substitution2: "'c2sc' Capitals to Small Capitals lookup 32 subtable" h.sc
Substitution2: "'aalt' Access All Alternates lookup 0 subtable" h.sc
EndChar

StartChar: I
Encoding: 73 73 44
Width: 600
GlyphClass: 2
Flags: W
AnchorPoint: "Anchor-4" 580 714 basechar 0
AnchorPoint: "Anchor-3" 300 714 basechar 0
AnchorPoint: "Anchor-2" 367 10 basechar 0
AnchorPoint: "Anchor-0" 300 0 basechar 0
LayerCount: 2
Fore
SplineSet
110 0 m 1,0,-1
 110 62 l 1,1,-1
 254 75 l 1,2,-1
 254 639 l 1,3,-1
 110 652 l 1,4,-1
 110 714 l 1,5,-1
 490 714 l 1,6,-1
 490 652 l 1,7,-1
 344 639 l 1,8,-1
 344 75 l 1,9,-1
 490 62 l 1,10,-1
 490 0 l 1,11,-1
 110 0 l 1,0,-1
EndSplineSet
Substitution2: "'c2sc' Capitals to Small Capitals lookup 32 subtable" i.sc
Substitution2: "'aalt' Access All Alternates lookup 0 subtable" i.sc
EndChar

StartChar: J
Encoding: 74 74 45
Width: 600
GlyphClass: 2
Flags: W
AnchorPoint: "Anchor-4" 580 714 basechar 0
AnchorPoint: "Anchor-3" 420 714 basechar 0
AnchorPoint: "Anchor-0" 300 0 basechar 0
LayerCount: 2
Fore
SplineSet
252 -10 m 0,0,1
 214 -10 214 -10 171 -2 c 128,-1,2
 128 6 128 6 100 19 c 1,3,-1
 100 104 l 1,4,5
 123 94 123 94 163.5 83.5 c 128,-1,6
 204 73 204 73 245 73 c 0,7,8
 304 73 304 73 339.5 108.5 c 128,-1,9
 375 144 375 144 375 229 c 2,10,-1
 375 714 l 1,11,-1
 465 714 l 1,12,-1
 465 217 l 2,13,14
 465 108 465 108 411 49 c 128,-1,15
 357 -10 357 -10 252 -10 c 0,0,1
EndSplineSet
Substitution2: "'c2sc' Capitals to Small Capitals lookup 32 subtable" j.sc
Substitution2: "'aalt' Access All Alternates lookup 0 subtable" j.sc
EndChar

StartChar: K
Encoding: 75 75 46
Width: 600
GlyphClass: 2
Flags: W
AnchorPoint: "Anchor-4" 580 714 basechar 0
AnchorPoint: "Anchor-3" 300 714 basechar 0
AnchorPoint: "Anchor-0" 310 0 basechar 0
LayerCount: 2
Fore
SplineSet
70 0 m 1,0,-1
 70 714 l 1,1,-1
 160 714 l 1,2,-1
 160 330 l 1,3,4
 177 357 177 357 195 384.5 c 128,-1,5
 213 412 213 412 234 441 c 2,6,-1
 438 714 l 1,7,-1
 541 714 l 1,8,-1
 302 391 l 1,9,-1
 550 0 l 1,10,-1
 447 0 l 1,11,-1
 241 330 l 1,12,-1
 160 237 l 1,13,-1
 160 0 l 1,14,-1
 70 0 l 1,0,-1
EndSplineSet
Substitution2: "'c2sc' Capitals to Small Capitals lookup 32 subtable" k.sc
Substitution2: "'aalt' Access All Alternates lookup 0 subtable" k.sc
EndChar

StartChar: L
Encoding: 76 76 47
Width: 600
GlyphClass: 2
Flags: W
AnchorPoint: "Anchor-4" 446 714 basechar 0
AnchorPoint: "Anchor-3" 161 714 basechar 0
AnchorPoint: "Anchor-1" 300 357 basechar 0
AnchorPoint: "Anchor-0" 330 0 basechar 0
LayerCount: 2
Fore
SplineSet
115 0 m 1,0,-1
 115 714 l 1,1,-1
 205 714 l 1,2,-1
 205 83 l 1,3,-1
 515 83 l 1,4,-1
 515 0 l 1,5,-1
 115 0 l 1,0,-1
EndSplineSet
Substitution2: "'c2sc' Capitals to Small Capitals lookup 32 subtable" l.sc
Substitution2: "'aalt' Access All Alternates lookup 0 subtable" l.sc
EndChar

StartChar: M
Encoding: 77 77 48
Width: 600
GlyphClass: 2
Flags: W
AnchorPoint: "Anchor-4" 600 714 basechar 0
AnchorPoint: "Anchor-3" 305 714 basechar 0
AnchorPoint: "Anchor-0" 300 0 basechar 0
LayerCount: 2
Fore
SplineSet
50 0 m 1,0,-1
 50 714 l 1,1,-1
 179 714 l 1,2,-1
 298 295 l 1,3,-1
 301 295 l 1,4,-1
 420 714 l 1,5,-1
 550 714 l 1,6,-1
 550 0 l 1,7,-1
 465 0 l 1,8,-1
 465 387 l 2,9,10
 465 446 465 446 467.5 508.5 c 128,-1,11
 470 571 470 571 477 624 c 1,12,-1
 473 624 l 1,13,-1
 341 178 l 1,14,-1
 258 178 l 1,15,-1
 125 625 l 1,16,-1
 121 625 l 1,17,18
 126 596 126 596 129 554.5 c 128,-1,19
 132 513 132 513 133.5 469 c 128,-1,20
 135 425 135 425 135 387 c 2,21,-1
 135 0 l 1,22,-1
 50 0 l 1,0,-1
EndSplineSet
Substitution2: "'c2sc' Capitals to Small Capitals lookup 32 subtable" m.sc
Substitution2: "'aalt' Access All Alternates lookup 0 subtable" m.sc
EndChar

StartChar: N
Encoding: 78 78 49
Width: 600
GlyphClass: 2
Flags: W
AnchorPoint: "Anchor-4" 600 714 basechar 0
AnchorPoint: "Anchor-3" 305 714 basechar 0
AnchorPoint: "Anchor-0" 300 0 basechar 0
LayerCount: 2
Fore
SplineSet
70 0 m 1,0,-1
 70 714 l 1,1,-1
 189 714 l 1,2,-1
 449 119 l 1,3,-1
 452 119 l 1,4,5
 447 178 447 178 445 226.5 c 128,-1,6
 443 275 443 275 443 336 c 2,7,-1
 443 714 l 1,8,-1
 530 714 l 1,9,-1
 530 0 l 1,10,-1
 421 0 l 1,11,-1
 148 622 l 1,12,-1
 144 622 l 1,13,14
 148 566 148 566 152.5 510 c 128,-1,15
 157 454 157 454 157 398 c 2,16,-1
 157 0 l 1,17,-1
 70 0 l 1,0,-1
EndSplineSet
Substitution2: "'c2sc' Capitals to Small Capitals lookup 32 subtable" n.sc
Substitution2: "'aalt' Access All Alternates lookup 0 subtable" n.sc
EndChar

StartChar: O
Encoding: 79 79 50
Width: 600
GlyphClass: 2
Flags: W
AnchorPoint: "Anchor-4" 600 714 basechar 0
AnchorPoint: "Anchor-3" 300 714 basechar 0
AnchorPoint: "Anchor-2" 299 10 basechar 0
AnchorPoint: "Anchor-1" 300 357 basechar 0
AnchorPoint: "Anchor-0" 300 0 basechar 0
LayerCount: 2
Fore
SplineSet
299 -10 m 256,0,1
 210 -10 210 -10 154 36 c 128,-1,2
 98 82 98 82 71.5 165 c 128,-1,3
 45 248 45 248 45 357 c 256,4,5
 45 466 45 466 71.5 549.5 c 128,-1,6
 98 633 98 633 154.5 679.5 c 128,-1,7
 211 726 211 726 300 726 c 256,8,9
 389 726 389 726 445.5 680 c 128,-1,10
 502 634 502 634 528.5 551.5 c 128,-1,11
 555 469 555 469 555 359 c 0,12,13
 555 248 555 248 528 165 c 128,-1,14
 501 82 501 82 444.5 36 c 128,-1,15
 388 -10 388 -10 299 -10 c 256,0,1
301 70 m 256,16,17
 391 70 391 70 427 146.5 c 128,-1,18
 463 223 463 223 463 358 c 0,19,20
 463 494 463 494 427 570 c 128,-1,21
 391 646 391 646 302 646 c 0,22,23
 211 646 211 646 174 569 c 128,-1,24
 137 492 137 492 137 358 c 0,25,26
 137 223 137 223 174 146.5 c 128,-1,27
 211 70 211 70 301 70 c 256,16,17
EndSplineSet
Substitution2: "'c2sc' Capitals to Small Capitals lookup 32 subtable" o.sc
Substitution2: "Single Substitution lookup 30 subtable" ordmasculine
AlternateSubs2: "'aalt' Access All Alternates lookup 1 subtable" ordmasculine o.sc
EndChar

StartChar: P
Encoding: 80 80 51
Width: 600
GlyphClass: 2
Flags: W
AnchorPoint: "Anchor-4" 600 714 basechar 0
AnchorPoint: "Anchor-3" 300 714 basechar 0
AnchorPoint: "Anchor-0" 300 0 basechar 0
LayerCount: 2
Fore
SplineSet
95 0 m 1,0,-1
 95 714 l 1,1,-1
 299 714 l 2,2,3
 427 714 427 714 486 659.5 c 128,-1,4
 545 605 545 605 545 505 c 0,5,6
 545 446 545 446 520.5 393 c 128,-1,7
 496 340 496 340 439.5 307.5 c 128,-1,8
 383 275 383 275 286 275 c 2,9,-1
 185 275 l 1,10,-1
 185 0 l 1,11,-1
 95 0 l 1,0,-1
185 353 m 1,12,-1
 276 353 l 2,13,14
 364 353 364 353 408.5 387 c 128,-1,15
 453 421 453 421 453 500 c 0,16,17
 453 574 453 574 413.5 605 c 128,-1,18
 374 636 374 636 291 636 c 2,19,-1
 185 636 l 1,20,-1
 185 353 l 1,12,-1
EndSplineSet
Substitution2: "'c2sc' Capitals to Small Capitals lookup 32 subtable" p.sc
Substitution2: "'aalt' Access All Alternates lookup 0 subtable" p.sc
EndChar

StartChar: Q
Encoding: 81 81 52
Width: 600
GlyphClass: 2
Flags: W
AnchorPoint: "Anchor-4" 600 714 basechar 0
AnchorPoint: "Anchor-3" 300 714 basechar 0
AnchorPoint: "Anchor-2" 299 10 basechar 0
AnchorPoint: "Anchor-1" 300 357 basechar 0
AnchorPoint: "Anchor-0" 300 -220 basechar 0
LayerCount: 2
Fore
SplineSet
299 -10 m 0,0,1
 210 -10 210 -10 154 36 c 128,-1,2
 98 82 98 82 71.5 165 c 128,-1,3
 45 248 45 248 45 357 c 256,4,5
 45 466 45 466 71.5 549.5 c 128,-1,6
 98 633 98 633 154.5 679.5 c 128,-1,7
 211 726 211 726 300 726 c 256,8,9
 389 726 389 726 445.5 680 c 128,-1,10
 502 634 502 634 528.5 551.5 c 128,-1,11
 555 469 555 469 555 359 c 0,12,13
 555 242 555 242 525 156 c 128,-1,14
 495 70 495 70 432 27 c 1,15,-1
 541 -180 l 1,16,-1
 441 -180 l 1,17,-1
 353 -5 l 1,18,19
 328 -10 328 -10 299 -10 c 0,0,1
301 70 m 256,20,21
 391 70 391 70 427 146.5 c 128,-1,22
 463 223 463 223 463 358 c 0,23,24
 463 494 463 494 427 570 c 128,-1,25
 391 646 391 646 302 646 c 0,26,27
 211 646 211 646 174 569 c 128,-1,28
 137 492 137 492 137 358 c 0,29,30
 137 223 137 223 174 146.5 c 128,-1,31
 211 70 211 70 301 70 c 256,20,21
EndSplineSet
Substitution2: "'c2sc' Capitals to Small Capitals lookup 32 subtable" q.sc
Substitution2: "'aalt' Access All Alternates lookup 0 subtable" q.sc
EndChar

StartChar: R
Encoding: 82 82 53
Width: 600
GlyphClass: 2
Flags: W
AnchorPoint: "Anchor-4" 580 714 basechar 0
AnchorPoint: "Anchor-3" 300 714 basechar 0
AnchorPoint: "Anchor-0" 330 0 basechar 0
LayerCount: 2
Fore
SplineSet
95 0 m 1,0,-1
 95 714 l 1,1,-1
 262 714 l 2,2,3
 513 714 513 714 513 514 c 0,4,5
 513 458 513 458 495 419.5 c 128,-1,6
 477 381 477 381 446.5 356.5 c 128,-1,7
 416 332 416 332 378 318 c 1,8,-1
 569 0 l 1,9,-1
 469 0 l 1,10,-1
 297 292 l 1,11,-1
 185 292 l 1,12,-1
 185 0 l 1,13,-1
 95 0 l 1,0,-1
185 370 m 1,14,-1
 259 370 l 2,15,16
 347 370 347 370 383.5 404.5 c 128,-1,17
 420 439 420 439 420 506 c 0,18,19
 420 576 420 576 381 606 c 128,-1,20
 342 636 342 636 257 636 c 2,21,-1
 185 636 l 1,22,-1
 185 370 l 1,14,-1
EndSplineSet
Substitution2: "'c2sc' Capitals to Small Capitals lookup 32 subtable" r.sc
Substitution2: "'aalt' Access All Alternates lookup 0 subtable" r.sc
EndChar

StartChar: S
Encoding: 83 83 54
Width: 600
GlyphClass: 2
Flags: W
AnchorPoint: "Anchor-4" 580 714 basechar 0
AnchorPoint: "Anchor-3" 319 714 basechar 0
AnchorPoint: "Anchor-0" 300 0 basechar 0
LayerCount: 2
Fore
SplineSet
281 -10 m 0,0,1
 224 -10 224 -10 170 0.5 c 128,-1,2
 116 11 116 11 85 27 c 1,3,-1
 85 110 l 1,4,5
 122 94 122 94 175 80.5 c 128,-1,6
 228 67 228 67 283 67 c 0,7,8
 437 67 437 67 437 192 c 0,9,10
 437 226 437 226 423 246 c 128,-1,11
 409 266 409 266 373.5 284.5 c 128,-1,12
 338 303 338 303 274 331 c 0,13,14
 232 350 232 350 192 373 c 128,-1,15
 152 396 152 396 126.5 434 c 128,-1,16
 101 472 101 472 101 534 c 0,17,18
 101 626 101 626 161.5 675 c 128,-1,19
 222 724 222 724 329 724 c 0,20,21
 383 724 383 724 431 712.5 c 128,-1,22
 479 701 479 701 515 684 c 1,23,-1
 486 609 l 1,24,25
 452 625 452 625 410 634.5 c 128,-1,26
 368 644 368 644 327 644 c 0,27,28
 268 644 268 644 230.5 619 c 128,-1,29
 193 594 193 594 193 532 c 0,30,31
 193 496 193 496 207.5 474.5 c 128,-1,32
 222 453 222 453 254 436.5 c 128,-1,33
 286 420 286 420 336 398 c 0,34,35
 393 374 393 374 436.5 349.5 c 128,-1,36
 480 325 480 325 504.5 288.5 c 128,-1,37
 529 252 529 252 529 191 c 0,38,39
 529 96 529 96 466.5 43 c 128,-1,40
 404 -10 404 -10 281 -10 c 0,0,1
EndSplineSet
Substitution2: "'c2sc' Capitals to Small Capitals lookup 32 subtable" s.sc
Substitution2: "'aalt' Access All Alternates lookup 0 subtable" s.sc
EndChar

StartChar: T
Encoding: 84 84 55
Width: 600
GlyphClass: 2
Flags: W
AnchorPoint: "Anchor-4" 580 714 basechar 0
AnchorPoint: "Anchor-3" 300 714 basechar 0
AnchorPoint: "Anchor-1" 300 357 basechar 0
AnchorPoint: "Anchor-0" 300 0 basechar 0
LayerCount: 2
Fore
SplineSet
255 0 m 1,0,-1
 255 634 l 1,1,-1
 45 634 l 1,2,-1
 45 714 l 1,3,-1
 555 714 l 1,4,-1
 555 634 l 1,5,-1
 345 634 l 1,6,-1
 345 0 l 1,7,-1
 255 0 l 1,0,-1
EndSplineSet
Substitution2: "'c2sc' Capitals to Small Capitals lookup 32 subtable" t.sc
Substitution2: "'aalt' Access All Alternates lookup 0 subtable" t.sc
EndChar

StartChar: U
Encoding: 85 85 56
Width: 600
GlyphClass: 2
Flags: W
AnchorPoint: "Anchor-4" 580 714 basechar 0
AnchorPoint: "Anchor-3" 300 714 basechar 0
AnchorPoint: "Anchor-2" 540 10 basechar 0
AnchorPoint: "Anchor-0" 300 0 basechar 0
LayerCount: 2
Fore
SplineSet
298 -10 m 0,0,1
 216 -10 216 -10 165.5 22.5 c 128,-1,2
 115 55 115 55 92.5 114.5 c 128,-1,3
 70 174 70 174 70 254 c 2,4,-1
 70 714 l 1,5,-1
 160 714 l 1,6,-1
 160 259 l 2,7,8
 160 202 160 202 172.5 159.5 c 128,-1,9
 185 117 185 117 215.5 93.5 c 128,-1,10
 246 70 246 70 300 70 c 0,11,12
 357 70 357 70 387.5 95 c 128,-1,13
 418 120 418 120 429 163 c 128,-1,14
 440 206 440 206 440 260 c 2,15,-1
 440 714 l 1,16,-1
 530 714 l 1,17,-1
 530 252 l 2,18,19
 530 178 530 178 508 118.5 c 128,-1,20
 486 59 486 59 435 24.5 c 128,-1,21
 384 -10 384 -10 298 -10 c 0,0,1
EndSplineSet
Substitution2: "'c2sc' Capitals to Small Capitals lookup 32 subtable" u.sc
Substitution2: "'aalt' Access All Alternates lookup 0 subtable" u.sc
EndChar

StartChar: V
Encoding: 86 86 57
Width: 600
GlyphClass: 2
Flags: W
AnchorPoint: "Anchor-4" 580 714 basechar 0
AnchorPoint: "Anchor-3" 300 714 basechar 0
AnchorPoint: "Anchor-0" 300 0 basechar 0
LayerCount: 2
Fore
SplineSet
255 0 m 1,0,-1
 25 714 l 1,1,-1
 119 714 l 1,2,-1
 258 250 l 2,3,4
 272 206 272 206 282.5 164.5 c 128,-1,5
 293 123 293 123 301 87 c 1,6,-1
 304 87 l 1,7,8
 312 122 312 122 322 164.5 c 128,-1,9
 332 207 332 207 346 253 c 2,10,-1
 480 714 l 1,11,-1
 575 714 l 1,12,-1
 349 0 l 1,13,-1
 255 0 l 1,0,-1
EndSplineSet
Substitution2: "'c2sc' Capitals to Small Capitals lookup 32 subtable" v.sc
Substitution2: "'aalt' Access All Alternates lookup 0 subtable" v.sc
EndChar

StartChar: W
Encoding: 87 87 58
Width: 600
GlyphClass: 2
Flags: W
AnchorPoint: "Anchor-4" 580 714 basechar 0
AnchorPoint: "Anchor-3" 300 714 basechar 0
AnchorPoint: "Anchor-0" 300 0 basechar 0
LayerCount: 2
Fore
SplineSet
105 0 m 1,0,-1
 25 714 l 1,1,-1
 108 714 l 1,2,3
 116 635 116 635 123 556.5 c 128,-1,4
 130 478 130 478 138 399 c 0,5,6
 142 361 142 361 145.5 316 c 128,-1,7
 149 271 149 271 152 228 c 128,-1,8
 155 185 155 185 157 150.5 c 128,-1,9
 159 116 159 116 159 98 c 1,10,-1
 161 98 l 1,11,12
 165 121 165 121 172.5 157.5 c 128,-1,13
 180 194 180 194 188.5 233.5 c 128,-1,14
 197 273 197 273 204 304 c 2,15,-1
 258 536 l 1,16,-1
 344 536 l 1,17,-1
 400 302 l 2,18,19
 408 268 408 268 417 229 c 128,-1,20
 426 190 426 190 433 155.5 c 128,-1,21
 440 121 440 121 444 98 c 1,22,-1
 446 98 l 1,23,24
 447 122 447 122 449.5 169 c 128,-1,25
 452 216 452 216 456 277 c 128,-1,26
 460 338 460 338 465 402 c 0,27,28
 472 480 472 480 478.5 558 c 128,-1,29
 485 636 485 636 492 714 c 1,30,-1
 575 714 l 1,31,-1
 503 0 l 1,32,-1
 406 0 l 1,33,-1
 327 328 l 2,34,35
 316 373 316 373 310 405.5 c 128,-1,36
 304 438 304 438 302 450 c 1,37,-1
 300 450 l 1,38,39
 298 438 298 438 293 406 c 128,-1,40
 288 374 288 374 277 328 c 2,41,-1
 201 0 l 1,42,-1
 105 0 l 1,0,-1
EndSplineSet
Substitution2: "'c2sc' Capitals to Small Capitals lookup 32 subtable" w.sc
Substitution2: "'aalt' Access All Alternates lookup 0 subtable" w.sc
EndChar

StartChar: X
Encoding: 88 88 59
Width: 600
GlyphClass: 2
Flags: W
AnchorPoint: "Anchor-4" 580 714 basechar 0
AnchorPoint: "Anchor-3" 300 714 basechar 0
AnchorPoint: "Anchor-0" 300 0 basechar 0
LayerCount: 2
Fore
SplineSet
35 0 m 1,0,-1
 258 369 l 1,1,-1
 50 714 l 1,2,-1
 147 714 l 1,3,-1
 300 441 l 1,4,-1
 455 714 l 1,5,-1
 550 714 l 1,6,-1
 343 368 l 1,7,-1
 565 0 l 1,8,-1
 472 0 l 1,9,-1
 301 296 l 1,10,-1
 131 0 l 1,11,-1
 35 0 l 1,0,-1
EndSplineSet
Substitution2: "'c2sc' Capitals to Small Capitals lookup 32 subtable" x.sc
Substitution2: "'aalt' Access All Alternates lookup 0 subtable" x.sc
EndChar

StartChar: Y
Encoding: 89 89 60
Width: 600
GlyphClass: 2
Flags: W
AnchorPoint: "Anchor-4" 580 714 basechar 0
AnchorPoint: "Anchor-3" 300 714 basechar 0
AnchorPoint: "Anchor-0" 300 0 basechar 0
LayerCount: 2
Fore
SplineSet
257 0 m 1,0,-1
 257 278 l 1,1,-1
 35 714 l 1,2,-1
 134 714 l 1,3,-1
 301 353 l 1,4,-1
 469 714 l 1,5,-1
 565 714 l 1,6,-1
 343 278 l 1,7,-1
 343 0 l 1,8,-1
 257 0 l 1,0,-1
EndSplineSet
Substitution2: "'c2sc' Capitals to Small Capitals lookup 32 subtable" y.sc
Substitution2: "'aalt' Access All Alternates lookup 0 subtable" y.sc
EndChar

StartChar: Z
Encoding: 90 90 61
Width: 600
GlyphClass: 2
Flags: W
AnchorPoint: "Anchor-4" 580 714 basechar 0
AnchorPoint: "Anchor-3" 312 714 basechar 0
AnchorPoint: "Anchor-0" 312 0 basechar 0
LayerCount: 2
Fore
SplineSet
95 0 m 1,0,-1
 95 71 l 1,1,-1
 412 636 l 1,2,-1
 115 636 l 1,3,-1
 115 714 l 1,4,-1
 505 714 l 1,5,-1
 505 643 l 1,6,-1
 192 80 l 1,7,-1
 505 80 l 1,8,-1
 505 0 l 1,9,-1
 95 0 l 1,0,-1
EndSplineSet
Substitution2: "'c2sc' Capitals to Small Capitals lookup 32 subtable" z.sc
Substitution2: "'aalt' Access All Alternates lookup 0 subtable" z.sc
EndChar

StartChar: bracketleft
Encoding: 91 91 62
Width: 600
GlyphClass: 1
Flags: W
LayerCount: 2
Fore
SplineSet
240 -157 m 1,0,-1
 240 714 l 1,1,-1
 465 714 l 1,2,-1
 465 643 l 1,3,-1
 326 643 l 1,4,-1
 326 -85 l 1,5,-1
 465 -85 l 1,6,-1
 465 -157 l 1,7,-1
 240 -157 l 1,0,-1
EndSplineSet
Substitution2: "'smcp' Lowercase to Small Capitals lookup 33 subtable" bracketleft.sc
Substitution2: "'c2sc' Capitals to Small Capitals lookup 32 subtable" bracketleft.sc
Substitution2: "'aalt' Access All Alternates lookup 0 subtable" bracketleft.sc
EndChar

StartChar: asciicircum
Encoding: 94 94 65
Width: 600
GlyphClass: 1
Flags: W
LayerCount: 2
Fore
SplineSet
50 267 m 1,0,-1
 264 719 l 1,1,-1
 314 719 l 1,2,-1
 550 267 l 1,3,-1
 472 267 l 1,4,-1
 290 626 l 1,5,-1
 128 267 l 1,6,-1
 50 267 l 1,0,-1
EndSplineSet
EndChar

StartChar: underscore
Encoding: 95 95 66
Width: 600
GlyphClass: 1
Flags: W
LayerCount: 2
Fore
SplineSet
0 -154 m 1,0,-1
 0 -74 l 1,1,-1
 600 -74 l 1,2,-1
 600 -154 l 1,3,-1
 0 -154 l 1,0,-1
EndSplineSet
EndChar

StartChar: grave
Encoding: 96 96 67
Width: 600
GlyphClass: 1
Flags: W
LayerCount: 2
Fore
SplineSet
331 606 m 1,0,1
 308 624 308 624 279 652.5 c 128,-1,2
 250 681 250 681 225 709.5 c 128,-1,3
 200 738 200 738 189 756 c 1,4,-1
 189 766 l 1,5,-1
 294 766 l 1,6,7
 305 744 305 744 321.5 716.5 c 128,-1,8
 338 689 338 689 356 662.5 c 128,-1,9
 374 636 374 636 390 618 c 1,10,-1
 390 606 l 1,11,-1
 331 606 l 1,0,1
EndSplineSet
EndChar

StartChar: a
Encoding: 97 97 68
Width: 600
GlyphClass: 2
Flags: W
AnchorPoint: "Anchor-4" 580 536 basechar 0
AnchorPoint: "Anchor-3" 305 536 basechar 0
AnchorPoint: "Anchor-2" 540 10 basechar 0
AnchorPoint: "Anchor-0" 300 0 basechar 0
LayerCount: 2
Fore
SplineSet
246 -10 m 0,0,1
 167 -10 167 -10 118.5 29 c 128,-1,2
 70 68 70 68 70 147 c 0,3,4
 70 234 70 234 132.5 277 c 128,-1,5
 195 320 195 320 313 323 c 2,6,-1
 428 326 l 1,7,-1
 428 348 l 2,8,9
 428 420 428 420 392 446.5 c 128,-1,10
 356 473 356 473 295 473 c 0,11,12
 252 473 252 473 213 462 c 128,-1,13
 174 451 174 451 139 431 c 1,14,-1
 108 499 l 1,15,16
 146 518 146 518 192.5 532 c 128,-1,17
 239 546 239 546 300 546 c 0,18,19
 400 546 400 546 455 500.5 c 128,-1,20
 510 455 510 455 510 359 c 2,21,-1
 510 0 l 1,22,-1
 438 0 l 1,23,-1
 428 74 l 1,24,-1
 424 74 l 1,25,26
 391 32 391 32 347.5 11 c 128,-1,27
 304 -10 304 -10 246 -10 c 0,0,1
261 63 m 0,28,29
 306 63 306 63 344 79.5 c 128,-1,30
 382 96 382 96 405 129 c 128,-1,31
 428 162 428 162 428 214 c 2,32,-1
 428 262 l 1,33,-1
 332 259 l 2,34,35
 236 256 236 256 195.5 228 c 128,-1,36
 155 200 155 200 155 150 c 0,37,38
 155 104 155 104 184 83.5 c 128,-1,39
 213 63 213 63 261 63 c 0,28,29
EndSplineSet
Substitution2: "'smcp' Lowercase to Small Capitals lookup 33 subtable" a.sc
Substitution2: "Single Substitution lookup 30 subtable" ordfeminine
AlternateSubs2: "'aalt' Access All Alternates lookup 1 subtable" ordfeminine a.sc
EndChar

StartChar: b
Encoding: 98 98 69
Width: 600
GlyphClass: 2
Flags: W
AnchorPoint: "Anchor-4" 580 760 basechar 0
AnchorPoint: "Anchor-3" 300 760 basechar 0
AnchorPoint: "Anchor-0" 300 0 basechar 0
LayerCount: 2
Fore
SplineSet
329 -10 m 0,0,1
 270 -10 270 -10 229 13 c 128,-1,2
 188 36 188 36 166 68 c 1,3,-1
 160 68 l 1,4,-1
 152 0 l 1,5,-1
 80 0 l 1,6,-1
 80 760 l 1,7,-1
 167 760 l 1,8,-1
 167 576 l 2,9,10
 167 548 167 548 166.5 521 c 128,-1,11
 166 494 166 494 163 466 c 1,12,-1
 167 466 l 1,13,14
 188 498 188 498 228 522 c 128,-1,15
 268 546 268 546 329 546 c 0,16,17
 426 546 426 546 485.5 476 c 128,-1,18
 545 406 545 406 545 269 c 0,19,20
 545 131 545 131 485 60.5 c 128,-1,21
 425 -10 425 -10 329 -10 c 0,0,1
312 63 m 0,22,23
 385 63 385 63 419 116 c 128,-1,24
 453 169 453 169 453 269 c 0,25,26
 453 367 453 367 419 420 c 128,-1,27
 385 473 385 473 311 473 c 0,28,29
 242 473 242 473 204.5 420.5 c 128,-1,30
 167 368 167 368 167 271 c 0,31,32
 167 170 167 170 202.5 116.5 c 128,-1,33
 238 63 238 63 312 63 c 0,22,23
EndSplineSet
Substitution2: "'smcp' Lowercase to Small Capitals lookup 33 subtable" b.sc
Substitution2: "'aalt' Access All Alternates lookup 0 subtable" b.sc
EndChar

StartChar: c
Encoding: 99 99 70
Width: 600
GlyphClass: 2
Flags: W
AnchorPoint: "Anchor-4" 580 536 basechar 0
AnchorPoint: "Anchor-3" 328 536 basechar 0
AnchorPoint: "Anchor-0" 332 0 basechar 0
LayerCount: 2
Fore
SplineSet
338 -10 m 0,0,1
 220 -10 220 -10 152.5 54.5 c 128,-1,2
 85 119 85 119 85 264 c 0,3,4
 85 367 85 367 118.5 429 c 128,-1,5
 152 491 152 491 211 518.5 c 128,-1,6
 270 546 270 546 347 546 c 0,7,8
 394 546 394 546 432 536.5 c 128,-1,9
 470 527 470 527 505 509 c 1,10,-1
 478 436 l 1,11,12
 446 452 446 452 416 460 c 128,-1,13
 386 468 386 468 351 468 c 0,14,15
 259 468 259 468 218 417.5 c 128,-1,16
 177 367 177 367 177 266 c 0,17,18
 177 159 177 159 220 113 c 128,-1,19
 263 67 263 67 348 67 c 0,20,21
 392 67 392 67 431 76.5 c 128,-1,22
 470 86 470 86 499 99 c 1,23,-1
 499 20 l 1,24,25
 469 6 469 6 425 -2 c 128,-1,26
 381 -10 381 -10 338 -10 c 0,0,1
EndSplineSet
Substitution2: "'smcp' Lowercase to Small Capitals lookup 33 subtable" c.sc
Substitution2: "'aalt' Access All Alternates lookup 0 subtable" c.sc
EndChar

StartChar: d
Encoding: 100 100 71
Width: 600
GlyphClass: 2
Flags: W
AnchorPoint: "Anchor-4" 580 760 basechar 0
AnchorPoint: "Anchor-3" 300 760 basechar 0
AnchorPoint: "Anchor-1" 300 268 basechar 0
AnchorPoint: "Anchor-0" 300 0 basechar 0
LayerCount: 2
Fore
SplineSet
274 -10 m 0,0,1
 175 -10 175 -10 115 59 c 128,-1,2
 55 128 55 128 55 271 c 0,3,4
 55 404 55 404 112 475 c 128,-1,5
 169 546 169 546 284 546 c 0,6,7
 340 546 340 546 376 524 c 128,-1,8
 412 502 412 502 431 468 c 1,9,-1
 437 468 l 1,10,11
 435 482 435 482 433 505 c 128,-1,12
 431 528 431 528 431 547 c 2,13,-1
 431 760 l 1,14,-1
 520 760 l 1,15,-1
 520 0 l 1,16,-1
 446 0 l 1,17,-1
 436 72 l 1,18,-1
 432 72 l 1,19,20
 410 36 410 36 372.5 13 c 128,-1,21
 335 -10 335 -10 274 -10 c 0,0,1
291 63 m 0,22,23
 362 63 362 63 396.5 112.5 c 128,-1,24
 431 162 431 162 431 247 c 2,25,-1
 431 267 l 2,26,27
 431 326 431 326 418 372.5 c 128,-1,28
 405 419 405 419 375 446 c 128,-1,29
 345 473 345 473 294 473 c 0,30,31
 224 473 224 473 185.5 421 c 128,-1,32
 147 369 147 369 147 262 c 0,33,34
 147 63 147 63 291 63 c 0,22,23
EndSplineSet
Substitution2: "'smcp' Lowercase to Small Capitals lookup 33 subtable" d.sc
Substitution2: "'aalt' Access All Alternates lookup 0 subtable" d.sc
EndChar

StartChar: e
Encoding: 101 101 72
Width: 600
GlyphClass: 2
Flags: W
AnchorPoint: "Anchor-4" 580 536 basechar 0
AnchorPoint: "Anchor-3" 304 536 basechar 0
AnchorPoint: "Anchor-2" 306 10 basechar 0
AnchorPoint: "Anchor-0" 310 0 basechar 0
LayerCount: 2
Fore
SplineSet
337 -10 m 0,0,1
 208 -10 208 -10 134 61 c 128,-1,2
 60 132 60 132 60 266 c 0,3,4
 60 354 60 354 92 416.5 c 128,-1,5
 124 479 124 479 181 512.5 c 128,-1,6
 238 546 238 546 314 546 c 0,7,8
 419 546 419 546 479.5 478 c 128,-1,9
 540 410 540 410 540 292 c 2,10,-1
 540 251 l 1,11,-1
 151 251 l 1,12,13
 153 181 153 181 177.5 140 c 128,-1,14
 202 99 202 99 244.5 81.5 c 128,-1,15
 287 64 287 64 343 64 c 0,16,17
 386 64 386 64 429 76 c 128,-1,18
 472 88 472 88 516 108 c 1,19,-1
 516 28 l 1,20,21
 470 8 470 8 424 -1 c 128,-1,22
 378 -10 378 -10 337 -10 c 0,0,1
153 323 m 1,23,-1
 450 323 l 1,24,25
 447 393 447 393 412.5 433 c 128,-1,26
 378 473 378 473 314 473 c 0,27,28
 246 473 246 473 205 432.5 c 128,-1,29
 164 392 164 392 153 323 c 1,23,-1
EndSplineSet
Substitution2: "'smcp' Lowercase to Small Capitals lookup 33 subtable" e.sc
Substitution2: "'aalt' Access All Alternates lookup 0 subtable" e.sc
EndChar

StartChar: f
Encoding: 102 102 73
Width: 600
GlyphClass: 2
Flags: W
AnchorPoint: "Anchor-4" 580 765 basechar 0
AnchorPoint: "Anchor-3" 406 765 basechar 0
AnchorPoint: "Anchor-0" 300 0 basechar 0
LayerCount: 2
Fore
SplineSet
241 0 m 1,0,-1
 241 461 l 1,1,-1
 66 461 l 1,2,-1
 66 523 l 1,3,-1
 241 536 l 1,4,-1
 241 597 l 2,5,6
 241 660 241 660 265.5 697 c 128,-1,7
 290 734 290 734 334 749.5 c 128,-1,8
 378 765 378 765 436 765 c 0,9,10
 480 765 480 765 513 758.5 c 128,-1,11
 546 752 546 752 570 745 c 1,12,-1
 550 676 l 1,13,14
 530 682 530 682 500 686.5 c 128,-1,15
 470 691 470 691 441 691 c 0,16,17
 388 691 388 691 359.5 669 c 128,-1,18
 331 647 331 647 331 585 c 2,19,-1
 331 536 l 1,20,-1
 533 536 l 1,21,-1
 533 461 l 1,22,-1
 331 461 l 1,23,-1
 331 0 l 1,24,-1
 241 0 l 1,0,-1
EndSplineSet
Substitution2: "'smcp' Lowercase to Small Capitals lookup 33 subtable" f.sc
Substitution2: "'aalt' Access All Alternates lookup 0 subtable" f.sc
EndChar

StartChar: g
Encoding: 103 103 74
Width: 600
GlyphClass: 2
Flags: W
AnchorPoint: "Anchor-4" 580 536 basechar 0
AnchorPoint: "Anchor-3" 300 536 basechar 0
AnchorPoint: "Anchor-0" 300 -245 basechar 0
LayerCount: 2
Fore
SplineSet
276 -245 m 0,0,1
 220 -245 220 -245 172 -234.5 c 128,-1,2
 124 -224 124 -224 83 -207 c 1,3,-1
 83 -127 l 1,4,5
 123 -150 123 -150 175.5 -161.5 c 128,-1,6
 228 -173 228 -173 273 -173 c 0,7,8
 364 -173 364 -173 400 -130.5 c 128,-1,9
 436 -88 436 -88 436 -14 c 2,10,-1
 436 5 l 2,11,12
 436 17 436 17 436.5 28 c 128,-1,13
 437 39 437 39 439 62 c 1,14,-1
 435 62 l 1,15,16
 407 21 407 21 369.5 5.5 c 128,-1,17
 332 -10 332 -10 279 -10 c 0,18,19
 172 -10 172 -10 113.5 62.5 c 128,-1,20
 55 135 55 135 55 265 c 0,21,22
 55 396 55 396 113.5 471 c 128,-1,23
 172 546 172 546 274 546 c 0,24,25
 328 546 328 546 365 528.5 c 128,-1,26
 402 511 402 511 431 470 c 1,27,-1
 436 470 l 1,28,-1
 448 536 l 1,29,-1
 520 536 l 1,30,-1
 520 -14 l 2,31,32
 520 -129 520 -129 461 -187 c 128,-1,33
 402 -245 402 -245 276 -245 c 0,0,1
296 63 m 0,34,35
 363 63 363 63 401 106.5 c 128,-1,36
 439 150 439 150 439 246 c 2,37,-1
 439 267 l 2,38,39
 439 376 439 376 399.5 424.5 c 128,-1,40
 360 473 360 473 293 473 c 0,41,42
 217 473 217 473 182 419.5 c 128,-1,43
 147 366 147 366 147 268 c 0,44,45
 147 168 147 168 183.5 115.5 c 128,-1,46
 220 63 220 63 296 63 c 0,34,35
EndSplineSet
Substitution2: "'smcp' Lowercase to Small Capitals lookup 33 subtable" g.sc
Substitution2: "'aalt' Access All Alternates lookup 0 subtable" g.sc
EndChar

StartChar: h
Encoding: 104 104 75
Width: 600
GlyphClass: 2
Flags: W
AnchorPoint: "Anchor-4" 580 760 basechar 0
AnchorPoint: "Anchor-3" 126 760 basechar 0
AnchorPoint: "Anchor-1" 300 268 basechar 0
AnchorPoint: "Anchor-0" 300 0 basechar 0
LayerCount: 2
Fore
SplineSet
80 0 m 1,0,-1
 80 760 l 1,1,-1
 170 760 l 1,2,-1
 170 544 l 2,3,4
 170 525 170 525 168.5 496 c 128,-1,5
 167 467 167 467 166 450 c 1,6,-1
 171 450 l 1,7,8
 196 500 196 500 240 523 c 128,-1,9
 284 546 284 546 339 546 c 0,10,11
 422 546 422 546 473.5 499.5 c 128,-1,12
 525 453 525 453 525 350 c 2,13,-1
 525 0 l 1,14,-1
 435 0 l 1,15,-1
 435 332 l 2,16,17
 435 405 435 405 404 439 c 128,-1,18
 373 473 373 473 316 473 c 0,19,20
 249 473 249 473 209.5 421.5 c 128,-1,21
 170 370 170 370 170 278 c 2,22,-1
 170 0 l 1,23,-1
 80 0 l 1,0,-1
EndSplineSet
Substitution2: "'smcp' Lowercase to Small Capitals lookup 33 subtable" h.sc
Substitution2: "'subs' Subscript lookup 20 subtable" uni2095
AlternateSubs2: "'aalt' Access All Alternates lookup 1 subtable" h.sc uni2095
EndChar

StartChar: i
Encoding: 105 105 76
Width: 600
GlyphClass: 2
Flags: W
AnchorPoint: "Anchor-4" 498 760 basechar 0
AnchorPoint: "Anchor-3" 307 760 basechar 0
AnchorPoint: "Anchor-0" 321 0 basechar 0
LayerCount: 2
Fore
SplineSet
307 633 m 0,0,1
 281 633 281 633 262.5 648.5 c 128,-1,2
 244 664 244 664 244 696 c 0,3,4
 244 729 244 729 262.5 744.5 c 128,-1,5
 281 760 281 760 307 760 c 0,6,7
 332 760 332 760 351 744.5 c 128,-1,8
 370 729 370 729 370 696 c 0,9,10
 370 664 370 664 351 648.5 c 128,-1,11
 332 633 332 633 307 633 c 0,0,1
80 0 m 1,12,-1
 80 60 l 1,13,-1
 271 75 l 1,14,-1
 271 461 l 1,15,-1
 96 474 l 1,16,-1
 96 536 l 1,17,-1
 361 536 l 1,18,-1
 361 75 l 1,19,-1
 540 60 l 1,20,-1
 540 0 l 1,21,-1
 80 0 l 1,12,-1
EndSplineSet
Substitution2: "'smcp' Lowercase to Small Capitals lookup 33 subtable" i.sc
Substitution2: "Single Substitution lookup 5 subtable" dotlessi
Substitution2: "Single Substitution lookup 4 subtable" dotlessi
AlternateSubs2: "'aalt' Access All Alternates lookup 1 subtable" dotlessi i.sc
EndChar

StartChar: j
Encoding: 106 106 77
Width: 600
GlyphClass: 2
Flags: W
AnchorPoint: "Anchor-4" 580 760 basechar 0
AnchorPoint: "Anchor-3" 340 760 basechar 0
AnchorPoint: "Anchor-0" 227 -245 basechar 0
LayerCount: 2
Fore
SplineSet
342 633 m 0,0,1
 316 633 316 633 298 649 c 128,-1,2
 280 665 280 665 280 697 c 0,3,4
 280 728 280 728 297.5 744 c 128,-1,5
 315 760 315 760 342 760 c 0,6,7
 368 760 368 760 386.5 744.5 c 128,-1,8
 405 729 405 729 405 697 c 0,9,10
 405 664 405 664 386 648.5 c 128,-1,11
 367 633 367 633 342 633 c 0,0,1
192 -245 m 0,12,13
 160 -245 160 -245 123 -240.5 c 128,-1,14
 86 -236 86 -236 60 -228 c 1,15,-1
 60 -149 l 1,16,17
 86 -158 86 -158 119 -164 c 128,-1,18
 152 -170 152 -170 182 -170 c 0,19,20
 249 -170 249 -170 278 -137 c 128,-1,21
 307 -104 307 -104 307 -37 c 2,22,-1
 307 461 l 1,23,-1
 132 474 l 1,24,-1
 132 536 l 1,25,-1
 397 536 l 1,26,-1
 397 -52 l 2,27,28
 397 -145 397 -145 343.5 -195 c 128,-1,29
 290 -245 290 -245 192 -245 c 0,12,13
EndSplineSet
Substitution2: "'smcp' Lowercase to Small Capitals lookup 33 subtable" j.sc
Substitution2: "Single Substitution lookup 5 subtable" uni0237
Substitution2: "Single Substitution lookup 4 subtable" uni0237
AlternateSubs2: "'aalt' Access All Alternates lookup 1 subtable" uni0237 j.sc
EndChar

StartChar: k
Encoding: 107 107 78
Width: 600
GlyphClass: 2
Flags: W
AnchorPoint: "Anchor-4" 580 760 basechar 0
AnchorPoint: "Anchor-3" 340 760 basechar 0
AnchorPoint: "Anchor-0" 339 0 basechar 0
LayerCount: 2
Fore
SplineSet
105 0 m 1,0,-1
 105 760 l 1,1,-1
 195 760 l 1,2,-1
 195 394 l 2,3,4
 195 362 195 362 192.5 320 c 128,-1,5
 190 278 190 278 188 243 c 1,6,-1
 190 243 l 1,7,8
 209 268 209 268 226.5 288.5 c 128,-1,9
 244 309 244 309 263 331 c 2,10,-1
 448 536 l 1,11,-1
 556 536 l 1,12,-1
 343 305 l 1,13,-1
 570 0 l 1,14,-1
 466 0 l 1,15,-1
 283 252 l 1,16,-1
 195 167 l 1,17,-1
 195 0 l 1,18,-1
 105 0 l 1,0,-1
EndSplineSet
Substitution2: "'smcp' Lowercase to Small Capitals lookup 33 subtable" k.sc
Substitution2: "'subs' Subscript lookup 20 subtable" uni2096
AlternateSubs2: "'aalt' Access All Alternates lookup 1 subtable" k.sc uni2096
EndChar

StartChar: l
Encoding: 108 108 79
Width: 600
GlyphClass: 2
Flags: W
AnchorPoint: "Anchor-4" 493 760 basechar 0
AnchorPoint: "Anchor-3" 300 760 basechar 0
AnchorPoint: "Anchor-1" 322 387 basechar 0
AnchorPoint: "Anchor-0" 322 0 basechar 0
LayerCount: 2
Fore
SplineSet
80 0 m 1,0,-1
 80 60 l 1,1,-1
 276 75 l 1,2,-1
 276 685 l 1,3,-1
 86 698 l 1,4,-1
 86 760 l 1,5,-1
 366 760 l 1,6,-1
 366 75 l 1,7,-1
 540 60 l 1,8,-1
 540 0 l 1,9,-1
 80 0 l 1,0,-1
EndSplineSet
Substitution2: "'smcp' Lowercase to Small Capitals lookup 33 subtable" l.sc
Substitution2: "'subs' Subscript lookup 20 subtable" uni2097
AlternateSubs2: "'aalt' Access All Alternates lookup 1 subtable" l.sc uni2097
EndChar

StartChar: m
Encoding: 109 109 80
Width: 600
GlyphClass: 2
Flags: W
AnchorPoint: "Anchor-4" 580 536 basechar 0
AnchorPoint: "Anchor-3" 326 536 basechar 0
AnchorPoint: "Anchor-0" 305 0 basechar 0
LayerCount: 2
Fore
SplineSet
50 0 m 1,0,-1
 50 536 l 1,1,-1
 112 536 l 1,2,-1
 125 477 l 1,3,-1
 130 477 l 1,4,5
 150 517 150 517 174 531.5 c 128,-1,6
 198 546 198 546 229 546 c 0,7,8
 270 546 270 546 292.5 526.5 c 128,-1,9
 315 507 315 507 327 469 c 1,10,-1
 330 469 l 1,11,12
 347 506 347 506 372.5 526 c 128,-1,13
 398 546 398 546 440 546 c 0,14,15
 502 546 502 546 526.5 498.5 c 128,-1,16
 551 451 551 451 551 350 c 2,17,-1
 551 0 l 1,18,-1
 471 0 l 1,19,-1
 471 335 l 2,20,21
 471 398 471 398 462.5 433 c 128,-1,22
 454 468 454 468 417 468 c 0,23,24
 341 468 341 468 341 268 c 2,25,-1
 341 0 l 1,26,-1
 261 0 l 1,27,-1
 261 335 l 2,28,29
 261 399 261 399 249.5 433.5 c 128,-1,30
 238 468 238 468 201 468 c 0,31,32
 161 468 161 468 145.5 414 c 128,-1,33
 130 360 130 360 130 268 c 2,34,-1
 130 0 l 1,35,-1
 50 0 l 1,0,-1
EndSplineSet
Substitution2: "'smcp' Lowercase to Small Capitals lookup 33 subtable" m.sc
Substitution2: "'subs' Subscript lookup 20 subtable" uni2098
AlternateSubs2: "'aalt' Access All Alternates lookup 1 subtable" m.sc uni2098
EndChar

StartChar: n
Encoding: 110 110 81
Width: 600
GlyphClass: 2
Flags: W
AnchorPoint: "Anchor-4" 580 536 basechar 0
AnchorPoint: "Anchor-3" 312 536 basechar 0
AnchorPoint: "Anchor-0" 306 0 basechar 0
LayerCount: 2
Fore
SplineSet
80 0 m 1,0,-1
 80 536 l 1,1,-1
 152 536 l 1,2,-1
 165 457 l 1,3,-1
 170 457 l 1,4,5
 193 503 193 503 238.5 524.5 c 128,-1,6
 284 546 284 546 345 546 c 0,7,8
 426 546 426 546 475.5 500.5 c 128,-1,9
 525 455 525 455 525 358 c 2,10,-1
 525 0 l 1,11,-1
 435 0 l 1,12,-1
 435 342 l 2,13,14
 435 410 435 410 407.5 441.5 c 128,-1,15
 380 473 380 473 319 473 c 0,16,17
 237 473 237 473 203.5 421 c 128,-1,18
 170 369 170 369 170 275 c 2,19,-1
 170 0 l 1,20,-1
 80 0 l 1,0,-1
EndSplineSet
Substitution2: "'smcp' Lowercase to Small Capitals lookup 33 subtable" n.sc
Substitution2: "'sups' Superscript lookup 21 subtable" nsuperior
Substitution2: "'subs' Subscript lookup 20 subtable" uni2099
AlternateSubs2: "'aalt' Access All Alternates lookup 1 subtable" nsuperior n.sc uni2099
EndChar

StartChar: o
Encoding: 111 111 82
Width: 600
GlyphClass: 2
Flags: W
AnchorPoint: "Anchor-4" 580 536 basechar 0
AnchorPoint: "Anchor-3" 300 536 basechar 0
AnchorPoint: "Anchor-2" 301 10 basechar 0
AnchorPoint: "Anchor-1" 300 268 basechar 0
AnchorPoint: "Anchor-0" 300 0 basechar 0
LayerCount: 2
Fore
SplineSet
301 -10 m 256,0,1
 231 -10 231 -10 175.5 20.5 c 128,-1,2
 120 51 120 51 87.5 113.5 c 128,-1,3
 55 176 55 176 55 270 c 0,4,5
 55 363 55 363 86.5 424 c 128,-1,6
 118 485 118 485 173 515.5 c 128,-1,7
 228 546 228 546 298 546 c 256,8,9
 368 546 368 546 424 515.5 c 128,-1,10
 480 485 480 485 512.5 423.5 c 128,-1,11
 545 362 545 362 545 267 c 0,12,13
 545 174 545 174 513 112.5 c 128,-1,14
 481 51 481 51 426 20.5 c 128,-1,15
 371 -10 371 -10 301 -10 c 256,0,1
300 63 m 256,16,17
 378 63 378 63 416 118.5 c 128,-1,18
 454 174 454 174 454 269 c 256,19,20
 454 364 454 364 415.5 418.5 c 128,-1,21
 377 473 377 473 299 473 c 256,22,23
 221 473 221 473 182.5 418.5 c 128,-1,24
 144 364 144 364 144 269 c 256,25,26
 144 174 144 174 183 118.5 c 128,-1,27
 222 63 222 63 300 63 c 256,16,17
EndSplineSet
Substitution2: "'smcp' Lowercase to Small Capitals lookup 33 subtable" o.sc
Substitution2: "Single Substitution lookup 30 subtable" ordmasculine
AlternateSubs2: "'aalt' Access All Alternates lookup 1 subtable" ordmasculine o.sc
EndChar

StartChar: p
Encoding: 112 112 83
Width: 600
GlyphClass: 2
Flags: W
AnchorPoint: "Anchor-4" 580 536 basechar 0
AnchorPoint: "Anchor-3" 310 536 basechar 0
AnchorPoint: "Anchor-0" 310 -240 basechar 0
LayerCount: 2
Fore
SplineSet
80 -240 m 1,0,-1
 80 536 l 1,1,-1
 154 536 l 1,2,-1
 165 463 l 1,3,-1
 169 463 l 1,4,5
 192 502 192 502 230.5 524 c 128,-1,6
 269 546 269 546 329 546 c 0,7,8
 427 546 427 546 486 476 c 128,-1,9
 545 406 545 406 545 269 c 256,10,11
 545 132 545 132 486 61 c 128,-1,12
 427 -10 427 -10 329 -10 c 0,13,14
 270 -10 270 -10 231 14 c 128,-1,15
 192 38 192 38 169 69 c 1,16,-1
 163 69 l 1,17,18
 169 30 169 30 169 -11 c 2,19,-1
 169 -240 l 1,20,-1
 80 -240 l 1,0,-1
310 63 m 0,21,22
 385 63 385 63 419 114.5 c 128,-1,23
 453 166 453 166 453 271 c 0,24,25
 453 374 453 374 419.5 423.5 c 128,-1,26
 386 473 386 473 309 473 c 0,27,28
 236 473 236 473 202.5 425.5 c 128,-1,29
 169 378 169 378 169 289 c 2,30,-1
 169 269 l 2,31,32
 169 174 169 174 199.5 118.5 c 128,-1,33
 230 63 230 63 310 63 c 0,21,22
EndSplineSet
Substitution2: "'smcp' Lowercase to Small Capitals lookup 33 subtable" p.sc
Substitution2: "'subs' Subscript lookup 20 subtable" uni209A
AlternateSubs2: "'aalt' Access All Alternates lookup 1 subtable" p.sc uni209A
EndChar

StartChar: q
Encoding: 113 113 84
Width: 600
GlyphClass: 2
Flags: W
AnchorPoint: "Anchor-4" 580 536 basechar 0
AnchorPoint: "Anchor-3" 280 536 basechar 0
AnchorPoint: "Anchor-0" 280 -240 basechar 0
LayerCount: 2
Fore
SplineSet
431 -240 m 1,0,-1
 431 -11 l 2,1,2
 431 8 431 8 432 29.5 c 128,-1,3
 433 51 433 51 434 72 c 1,4,-1
 431 72 l 1,5,6
 409 38 409 38 371.5 14 c 128,-1,7
 334 -10 334 -10 274 -10 c 0,8,9
 177 -10 177 -10 116 60 c 128,-1,10
 55 130 55 130 55 267 c 0,11,12
 55 358 55 358 83.5 420.5 c 128,-1,13
 112 483 112 483 161.5 514.5 c 128,-1,14
 211 546 211 546 275 546 c 0,15,16
 334 546 334 546 371 522 c 128,-1,17
 408 498 408 498 431 464 c 1,18,-1
 435 464 l 1,19,-1
 448 536 l 1,20,-1
 520 536 l 1,21,-1
 520 -240 l 1,22,-1
 431 -240 l 1,0,-1
290 63 m 0,23,24
 431 63 431 63 431 247 c 2,25,-1
 431 267 l 2,26,27
 431 364 431 364 399.5 418.5 c 128,-1,28
 368 473 368 473 288 473 c 0,29,30
 214 473 214 473 180.5 420 c 128,-1,31
 147 367 147 367 147 266 c 0,32,33
 147 174 147 174 181.5 118.5 c 128,-1,34
 216 63 216 63 290 63 c 0,23,24
EndSplineSet
Substitution2: "'smcp' Lowercase to Small Capitals lookup 33 subtable" q.sc
Substitution2: "'aalt' Access All Alternates lookup 0 subtable" q.sc
EndChar

StartChar: r
Encoding: 114 114 85
Width: 600
GlyphClass: 2
Flags: W
AnchorPoint: "Anchor-4" 580 536 basechar 0
AnchorPoint: "Anchor-3" 340 536 basechar 0
AnchorPoint: "Anchor-0" 271 0 basechar 0
LayerCount: 2
Fore
SplineSet
62 0 m 1,0,-1
 62 60 l 1,1,-1
 225 75 l 1,2,-1
 225 461 l 1,3,-1
 78 474 l 1,4,-1
 78 536 l 1,5,-1
 297 536 l 1,6,-1
 309 438 l 1,7,-1
 313 438 l 1,8,9
 341 490 341 490 374.5 518 c 128,-1,10
 408 546 408 546 463 546 c 0,11,12
 497 546 497 546 523.5 540 c 128,-1,13
 550 534 550 534 572 524 c 1,14,-1
 548 445 l 1,15,16
 532 454 532 454 510 460.5 c 128,-1,17
 488 467 488 467 463 467 c 0,18,19
 420 467 420 467 387 440 c 128,-1,20
 354 413 354 413 335 368 c 128,-1,21
 316 323 316 323 316 269 c 2,22,-1
 316 75 l 1,23,-1
 472 60 l 1,24,-1
 472 0 l 1,25,-1
 62 0 l 1,0,-1
EndSplineSet
Substitution2: "'smcp' Lowercase to Small Capitals lookup 33 subtable" r.sc
Substitution2: "'aalt' Access All Alternates lookup 0 subtable" r.sc
EndChar

StartChar: s
Encoding: 115 115 86
Width: 600
GlyphClass: 2
Flags: W
AnchorPoint: "Anchor-4" 580 536 basechar 0
AnchorPoint: "Anchor-3" 305 536 basechar 0
AnchorPoint: "Anchor-0" 305 0 basechar 0
LayerCount: 2
Fore
SplineSet
279 -10 m 0,0,1
 229 -10 229 -10 183.5 -1 c 128,-1,2
 138 8 138 8 105 24 c 1,3,-1
 105 107 l 1,4,5
 140 91 140 91 182.5 77.5 c 128,-1,6
 225 64 225 64 284 64 c 0,7,8
 350 64 350 64 377.5 84.5 c 128,-1,9
 405 105 405 105 405 144 c 0,10,11
 405 165 405 165 395.5 178.5 c 128,-1,12
 386 192 386 192 359 206 c 128,-1,13
 332 220 332 220 280 242 c 256,14,15
 228 264 228 264 191 284.5 c 128,-1,16
 154 305 154 305 134 332.5 c 128,-1,17
 114 360 114 360 114 403 c 0,18,19
 114 474 114 474 168.5 510 c 128,-1,20
 223 546 223 546 320 546 c 0,21,22
 364 546 364 546 404 538 c 128,-1,23
 444 530 444 530 487 512 c 1,24,-1
 460 442 l 1,25,26
 420 459 420 459 386.5 465 c 128,-1,27
 353 471 353 471 320 471 c 0,28,29
 258 471 258 471 229.5 455 c 128,-1,30
 201 439 201 439 201 405 c 0,31,32
 201 383 201 383 213.5 368 c 128,-1,33
 226 353 226 353 254.5 339 c 128,-1,34
 283 325 283 325 330 305 c 0,35,36
 383 282 383 282 420 263.5 c 128,-1,37
 457 245 457 245 476 218.5 c 128,-1,38
 495 192 495 192 495 146 c 0,39,40
 495 70 495 70 440.5 30 c 128,-1,41
 386 -10 386 -10 279 -10 c 0,0,1
EndSplineSet
Substitution2: "'smcp' Lowercase to Small Capitals lookup 33 subtable" s.sc
Substitution2: "'subs' Subscript lookup 20 subtable" uni209B
AlternateSubs2: "'aalt' Access All Alternates lookup 1 subtable" s.sc uni209B
EndChar

StartChar: t
Encoding: 116 116 87
Width: 600
GlyphClass: 2
Flags: W
AnchorPoint: "Anchor-4" 580 679 basechar 0
AnchorPoint: "Anchor-3" 255 679 basechar 0
AnchorPoint: "Anchor-1" 252 268 basechar 0
AnchorPoint: "Anchor-0" 374 0 basechar 0
LayerCount: 2
Fore
SplineSet
402 -10 m 0,0,1
 345 -10 345 -10 299.5 5 c 128,-1,2
 254 20 254 20 228 58 c 128,-1,3
 202 96 202 96 202 163 c 2,4,-1
 202 461 l 1,5,-1
 56 461 l 1,6,-1
 56 523 l 1,7,-1
 202 539 l 1,8,-1
 220 679 l 1,9,-1
 292 679 l 1,10,-1
 292 536 l 1,11,-1
 501 536 l 1,12,-1
 501 461 l 1,13,-1
 292 461 l 1,14,-1
 292 180 l 2,15,16
 292 119 292 119 319 91 c 128,-1,17
 346 63 346 63 408 63 c 0,18,19
 434 63 434 63 464 68 c 128,-1,20
 494 73 494 73 516 78 c 1,21,-1
 516 6 l 1,22,23
 492 0 492 0 463 -5 c 128,-1,24
 434 -10 434 -10 402 -10 c 0,0,1
EndSplineSet
Substitution2: "'smcp' Lowercase to Small Capitals lookup 33 subtable" t.sc
Substitution2: "'subs' Subscript lookup 20 subtable" uni209C
AlternateSubs2: "'aalt' Access All Alternates lookup 1 subtable" t.sc uni209C
EndChar

StartChar: u
Encoding: 117 117 88
Width: 600
GlyphClass: 2
Flags: W
AnchorPoint: "Anchor-4" 580 536 basechar 0
AnchorPoint: "Anchor-3" 300 536 basechar 0
AnchorPoint: "Anchor-2" 540 10 basechar 0
AnchorPoint: "Anchor-0" 300 0 basechar 0
LayerCount: 2
Fore
SplineSet
261 -10 m 0,0,1
 166 -10 166 -10 120.5 37 c 128,-1,2
 75 84 75 84 75 179 c 2,3,-1
 75 536 l 1,4,-1
 165 536 l 1,5,-1
 165 193 l 2,6,7
 165 129 165 129 191.5 96 c 128,-1,8
 218 63 218 63 283 63 c 0,9,10
 366 63 366 63 398 115 c 128,-1,11
 430 167 430 167 430 260 c 2,12,-1
 430 536 l 1,13,-1
 520 536 l 1,14,-1
 520 0 l 1,15,-1
 448 0 l 1,16,-1
 435 72 l 1,17,-1
 430 72 l 1,18,19
 402 27 402 27 359.5 8.5 c 128,-1,20
 317 -10 317 -10 261 -10 c 0,0,1
EndSplineSet
Substitution2: "'smcp' Lowercase to Small Capitals lookup 33 subtable" u.sc
Substitution2: "'aalt' Access All Alternates lookup 0 subtable" u.sc
EndChar

StartChar: v
Encoding: 118 118 89
Width: 600
GlyphClass: 2
Flags: W
AnchorPoint: "Anchor-4" 580 536 basechar 0
AnchorPoint: "Anchor-3" 300 536 basechar 0
AnchorPoint: "Anchor-0" 300 0 basechar 0
LayerCount: 2
Fore
SplineSet
243 0 m 1,0,-1
 45 536 l 1,1,-1
 137 536 l 1,2,-1
 249 218 l 2,3,4
 260 186 260 186 272.5 151 c 128,-1,5
 285 116 285 116 298 76 c 1,6,-1
 301 76 l 1,7,8
 314 116 314 116 327 151 c 128,-1,9
 340 186 340 186 351 218 c 2,10,-1
 460 536 l 1,11,-1
 554 536 l 1,12,-1
 354 0 l 1,13,-1
 243 0 l 1,0,-1
EndSplineSet
Substitution2: "'smcp' Lowercase to Small Capitals lookup 33 subtable" v.sc
Substitution2: "'aalt' Access All Alternates lookup 0 subtable" v.sc
EndChar

StartChar: w
Encoding: 119 119 90
Width: 600
GlyphClass: 2
Flags: W
AnchorPoint: "Anchor-4" 580 536 basechar 0
AnchorPoint: "Anchor-3" 301 536 basechar 0
AnchorPoint: "Anchor-0" 301 0 basechar 0
LayerCount: 2
Fore
SplineSet
102 0 m 1,0,-1
 16 536 l 1,1,-1
 100 536 l 1,2,-1
 139 271 l 2,3,4
 144 234 144 234 147 205 c 128,-1,5
 150 176 150 176 152 146 c 128,-1,6
 154 116 154 116 157 75 c 1,7,-1
 160 75 l 1,8,9
 162 92 162 92 168 122.5 c 128,-1,10
 174 153 174 153 181.5 188.5 c 128,-1,11
 189 224 189 224 198 254 c 2,12,-1
 250 435 l 1,13,-1
 349 435 l 1,14,-1
 399 254 l 2,15,16
 408 224 408 224 416 189.5 c 128,-1,17
 424 155 424 155 430 124.5 c 128,-1,18
 436 94 436 94 439 75 c 1,19,-1
 442 75 l 1,20,21
 444 115 444 115 446.5 144.5 c 128,-1,22
 449 174 449 174 452 203 c 128,-1,23
 455 232 455 232 461 271 c 2,24,-1
 503 536 l 1,25,-1
 585 536 l 1,26,-1
 497 0 l 1,27,-1
 389 0 l 1,28,-1
 341 188 l 2,29,30
 330 229 330 229 319.5 269.5 c 128,-1,31
 309 310 309 310 301 351 c 1,32,-1
 298 351 l 1,33,34
 290 310 290 310 278 269.5 c 128,-1,35
 266 229 266 229 256 188 c 2,36,-1
 207 0 l 1,37,-1
 102 0 l 1,0,-1
EndSplineSet
Substitution2: "'smcp' Lowercase to Small Capitals lookup 33 subtable" w.sc
Substitution2: "'aalt' Access All Alternates lookup 0 subtable" w.sc
EndChar

StartChar: x
Encoding: 120 120 91
Width: 600
GlyphClass: 2
Flags: W
AnchorPoint: "Anchor-4" 580 536 basechar 0
AnchorPoint: "Anchor-3" 300 536 basechar 0
AnchorPoint: "Anchor-0" 300 0 basechar 0
LayerCount: 2
Fore
SplineSet
45 0 m 1,0,-1
 248 274 l 1,1,-1
 55 536 l 1,2,-1
 156 536 l 1,3,-1
 300 335 l 1,4,-1
 444 536 l 1,5,-1
 545 536 l 1,6,-1
 351 274 l 1,7,-1
 554 0 l 1,8,-1
 453 0 l 1,9,-1
 300 213 l 1,10,-1
 146 0 l 1,11,-1
 45 0 l 1,0,-1
EndSplineSet
Substitution2: "'smcp' Lowercase to Small Capitals lookup 33 subtable" x.sc
Substitution2: "'aalt' Access All Alternates lookup 0 subtable" x.sc
EndChar

StartChar: y
Encoding: 121 121 92
Width: 600
GlyphClass: 2
Flags: W
AnchorPoint: "Anchor-4" 580 536 basechar 0
AnchorPoint: "Anchor-3" 300 536 basechar 0
AnchorPoint: "Anchor-0" 300 -245 basechar 0
LayerCount: 2
Fore
SplineSet
136 -245 m 0,0,1
 116 -245 116 -245 97 -242.5 c 128,-1,2
 78 -240 78 -240 64 -237 c 1,3,-1
 64 -168 l 1,4,5
 76 -170 76 -170 92.5 -172 c 128,-1,6
 109 -174 109 -174 125 -174 c 0,7,8
 171 -174 171 -174 196 -151.5 c 128,-1,9
 221 -129 221 -129 241 -78 c 2,10,-1
 270 -5 l 1,11,-1
 45 536 l 1,12,-1
 133 536 l 1,13,-1
 261 221 l 2,14,15
 274 190 274 190 286.5 152 c 128,-1,16
 299 114 299 114 309 79 c 1,17,-1
 312 79 l 1,18,19
 322 116 322 116 334 153 c 128,-1,20
 346 190 346 190 357 222 c 2,21,-1
 462 536 l 1,22,-1
 554 536 l 1,23,-1
 329 -70 l 2,24,25
 310 -122 310 -122 287.5 -161.5 c 128,-1,26
 265 -201 265 -201 229.5 -223 c 128,-1,27
 194 -245 194 -245 136 -245 c 0,0,1
EndSplineSet
Substitution2: "'smcp' Lowercase to Small Capitals lookup 33 subtable" y.sc
Substitution2: "'aalt' Access All Alternates lookup 0 subtable" y.sc
EndChar

StartChar: z
Encoding: 122 122 93
Width: 600
GlyphClass: 2
Flags: W
AnchorPoint: "Anchor-4" 580 536 basechar 0
AnchorPoint: "Anchor-3" 310 536 basechar 0
AnchorPoint: "Anchor-0" 310 0 basechar 0
LayerCount: 2
Fore
SplineSet
90 0 m 1,0,-1
 90 61 l 1,1,-1
 405 467 l 1,2,-1
 106 467 l 1,3,-1
 106 536 l 1,4,-1
 502 536 l 1,5,-1
 502 465 l 1,6,-1
 197 76 l 1,7,-1
 510 76 l 1,8,-1
 510 0 l 1,9,-1
 90 0 l 1,0,-1
EndSplineSet
Substitution2: "'smcp' Lowercase to Small Capitals lookup 33 subtable" z.sc
Substitution2: "'aalt' Access All Alternates lookup 0 subtable" z.sc
EndChar

StartChar: braceleft
Encoding: 123 123 94
Width: 600
GlyphClass: 1
Flags: W
LayerCount: 2
Fore
SplineSet
460 -158 m 1,0,1
 368 -157 368 -157 315 -118 c 128,-1,2
 262 -79 262 -79 262 1 c 2,3,-1
 262 148 l 2,4,5
 262 199 262 199 230.5 220.5 c 128,-1,6
 199 242 199 242 140 242 c 1,7,-1
 140 315 l 1,8,9
 199 316 199 316 230.5 337 c 128,-1,10
 262 358 262 358 262 408 c 2,11,-1
 262 556 l 2,12,13
 262 636 262 636 317 675 c 128,-1,14
 372 714 372 714 460 714 c 1,15,-1
 460 642 l 1,16,17
 408 640 408 640 378.5 618.5 c 128,-1,18
 349 597 349 597 349 548 c 2,19,-1
 349 404 l 2,20,21
 349 301 349 301 240 282 c 1,22,-1
 240 276 l 1,23,24
 349 257 349 257 349 154 c 2,25,-1
 349 7 l 2,26,27
 349 -42 349 -42 378 -63.5 c 128,-1,28
 407 -85 407 -85 460 -86 c 1,29,-1
 460 -158 l 1,0,1
EndSplineSet
Substitution2: "'smcp' Lowercase to Small Capitals lookup 33 subtable" braceleft.sc
Substitution2: "'c2sc' Capitals to Small Capitals lookup 32 subtable" braceleft.sc
Substitution2: "'aalt' Access All Alternates lookup 0 subtable" braceleft.sc
EndChar

StartChar: bar
Encoding: 124 124 95
Width: 600
GlyphClass: 1
Flags: W
LayerCount: 2
Fore
SplineSet
264 -240 m 1,0,-1
 264 760 l 1,1,-1
 337 760 l 1,2,-1
 337 -240 l 1,3,-1
 264 -240 l 1,0,-1
EndSplineSet
EndChar

StartChar: asciitilde
Encoding: 126 126 97
Width: 600
GlyphClass: 1
Flags: W
LayerCount: 2
Fore
SplineSet
85 287 m 1,0,-1
 85 365 l 1,1,2
 133 418 133 418 205 418 c 0,3,4
 230 418 230 418 253.5 411 c 128,-1,5
 277 404 277 404 316 386 c 0,6,7
 345 372 345 372 363.5 365.5 c 128,-1,8
 382 359 382 359 400 359 c 0,9,10
 429 359 429 359 460 376 c 128,-1,11
 491 393 491 393 515 418 c 1,12,-1
 515 341 l 1,13,14
 466 287 466 287 395 287 c 0,15,16
 370 287 370 287 346 294.5 c 128,-1,17
 322 302 322 302 283 319 c 0,18,19
 254 332 254 332 235.5 339 c 128,-1,20
 217 346 217 346 199 346 c 0,21,22
 171 346 171 346 140 329 c 128,-1,23
 109 312 109 312 85 287 c 1,0,-1
EndSplineSet
EndChar

StartChar: cent
Encoding: 162 162 100
Width: 600
GlyphClass: 1
Flags: W
LayerCount: 2
Fore
SplineSet
295 -10 m 1,0,-1
 295 90 l 1,1,2
 233 99 233 99 187 129 c 128,-1,3
 141 159 141 159 115.5 215.5 c 128,-1,4
 90 272 90 272 90 362 c 0,5,6
 90 492 90 492 146.5 559 c 128,-1,7
 203 626 203 626 295 640 c 1,8,-1
 295 724 l 1,9,-1
 363 724 l 1,10,-1
 363 644 l 1,11,12
 404 642 404 642 444.5 634 c 128,-1,13
 485 626 485 626 510 615 c 1,14,-1
 484 542 l 1,15,16
 458 552 458 552 423 560 c 128,-1,17
 388 568 388 568 350 568 c 0,18,19
 263 568 263 568 221.5 517 c 128,-1,20
 180 466 180 466 180 363 c 0,21,22
 180 259 180 259 222 211.5 c 128,-1,23
 264 164 264 164 346 164 c 0,24,25
 393 164 393 164 431.5 172.5 c 128,-1,26
 470 181 470 181 501 194 c 1,27,-1
 501 117 l 1,28,29
 447 90 447 90 362 87 c 1,30,-1
 362 -10 l 1,31,-1
 295 -10 l 1,0,-1
EndSplineSet
EndChar

StartChar: sterling
Encoding: 163 163 101
Width: 600
GlyphClass: 1
Flags: W
LayerCount: 2
Fore
SplineSet
90 0 m 1,0,-1
 90 74 l 1,1,2
 130 84 130 84 156.5 116.5 c 128,-1,3
 183 149 183 149 183 215 c 2,4,-1
 183 320 l 1,5,-1
 93 320 l 1,6,-1
 93 386 l 1,7,-1
 183 386 l 1,8,-1
 183 534 l 2,9,10
 183 623 183 623 233.5 673 c 128,-1,11
 284 723 284 723 367 723 c 0,12,13
 413 723 413 723 448 712.5 c 128,-1,14
 483 702 483 702 516 682 c 1,15,-1
 485 614 l 1,16,17
 456 632 456 632 429.5 640 c 128,-1,18
 403 648 403 648 375 648 c 0,19,20
 323 648 323 648 297 619.5 c 128,-1,21
 271 591 271 591 271 525 c 2,22,-1
 271 386 l 1,23,-1
 448 386 l 1,24,-1
 448 320 l 1,25,-1
 271 320 l 1,26,-1
 271 216 l 2,27,28
 271 189 271 189 262 161.5 c 128,-1,29
 253 134 253 134 239 112 c 128,-1,30
 225 90 225 90 209 80 c 1,31,-1
 525 80 l 1,32,-1
 525 0 l 1,33,-1
 90 0 l 1,0,-1
EndSplineSet
EndChar

StartChar: currency
Encoding: 164 164 102
Width: 600
GlyphClass: 1
Flags: W
LayerCount: 2
Fore
SplineSet
481 131 m 1,0,-1
 413 196 l 1,1,2
 389 180 389 180 360.5 170.5 c 128,-1,3
 332 161 332 161 301 161 c 0,4,5
 269 161 269 161 239.5 170.5 c 128,-1,6
 210 180 210 180 187 197 c 1,7,-1
 120 132 l 1,8,-1
 71 180 l 1,9,-1
 137 247 l 1,10,11
 120 271 120 271 110.5 299.5 c 128,-1,12
 101 328 101 328 101 360 c 0,13,14
 101 391 101 391 110.5 420 c 128,-1,15
 120 449 120 449 137 472 c 1,16,-1
 70 541 l 1,17,-1
 120 589 l 1,18,-1
 187 524 l 1,19,20
 210 540 210 540 239.5 550 c 128,-1,21
 269 560 269 560 301 560 c 0,22,23
 332 560 332 560 360 550 c 128,-1,24
 388 540 388 540 413 524 c 1,25,-1
 481 589 l 1,26,-1
 530 541 l 1,27,-1
 465 473 l 1,28,29
 480 450 480 450 490.5 420.5 c 128,-1,30
 501 391 501 391 501 359 c 0,31,32
 501 328 501 328 491.5 299 c 128,-1,33
 482 270 482 270 465 246 c 1,34,-1
 529 179 l 1,35,-1
 481 131 l 1,0,-1
301 229 m 256,36,37
 356 229 356 229 394.5 263.5 c 128,-1,38
 433 298 433 298 433 360 c 0,39,40
 433 423 433 423 394.5 458.5 c 128,-1,41
 356 494 356 494 301 494 c 256,42,43
 246 494 246 494 207.5 458.5 c 128,-1,44
 169 423 169 423 169 360 c 0,45,46
 169 298 169 298 207.5 263.5 c 128,-1,47
 246 229 246 229 301 229 c 256,36,37
EndSplineSet
EndChar

StartChar: yen
Encoding: 165 165 103
Width: 600
GlyphClass: 1
Flags: W
LayerCount: 2
Fore
SplineSet
256 0 m 1,0,-1
 256 129 l 1,1,-1
 112 129 l 1,2,-1
 112 193 l 1,3,-1
 256 193 l 1,4,-1
 256 275 l 1,5,-1
 112 275 l 1,6,-1
 112 339 l 1,7,-1
 227 339 l 1,8,-1
 35 714 l 1,9,-1
 128 714 l 1,10,-1
 299 365 l 1,11,-1
 473 714 l 1,12,-1
 565 714 l 1,13,-1
 369 339 l 1,14,-1
 488 339 l 1,15,-1
 488 275 l 1,16,-1
 342 275 l 1,17,-1
 342 193 l 1,18,-1
 488 193 l 1,19,-1
 488 129 l 1,20,-1
 342 129 l 1,21,-1
 342 0 l 1,22,-1
 256 0 l 1,0,-1
EndSplineSet
EndChar

StartChar: brokenbar
Encoding: 166 166 104
Width: 600
GlyphClass: 1
Flags: W
LayerCount: 2
Fore
SplineSet
263 379 m 1,0,-1
 263 760 l 1,1,-1
 336 760 l 1,2,-1
 336 379 l 1,3,-1
 263 379 l 1,0,-1
263 -241 m 1,4,-1
 263 140 l 1,5,-1
 336 140 l 1,6,-1
 336 -241 l 1,7,-1
 263 -241 l 1,4,-1
EndSplineSet
EndChar

StartChar: section
Encoding: 167 167 105
Width: 600
GlyphClass: 1
Flags: W
LayerCount: 2
Fore
SplineSet
276 -10 m 0,0,1
 221 -10 221 -10 180 -1.5 c 128,-1,2
 139 7 139 7 109 23 c 1,3,-1
 109 97 l 1,4,5
 140 82 140 82 186 68 c 128,-1,6
 232 54 232 54 279 54 c 0,7,8
 350 54 350 54 378.5 76 c 128,-1,9
 407 98 407 98 407 127 c 0,10,11
 407 147 407 147 397.5 163 c 128,-1,12
 388 179 388 179 361 195.5 c 128,-1,13
 334 212 334 212 280 233 c 0,14,15
 229 253 229 253 192.5 273.5 c 128,-1,16
 156 294 156 294 136.5 323 c 128,-1,17
 117 352 117 352 117 395 c 0,18,19
 117 444 117 444 141.5 474.5 c 128,-1,20
 166 505 166 505 198 520 c 1,21,22
 160 539 160 539 140 568.5 c 128,-1,23
 120 598 120 598 120 638 c 0,24,25
 120 697 120 697 169.5 731 c 128,-1,26
 219 765 219 765 313 765 c 0,27,28
 368 765 368 765 407 755.5 c 128,-1,29
 446 746 446 746 481 732 c 1,30,-1
 455 669 l 1,31,32
 423 684 423 684 390.5 692 c 128,-1,33
 358 700 358 700 310 700 c 0,34,35
 251 700 251 700 226.5 683.5 c 128,-1,36
 202 667 202 667 202 640 c 0,37,38
 202 612 202 612 228 591 c 128,-1,39
 254 570 254 570 329 541 c 0,40,41
 405 512 405 512 447.5 477 c 128,-1,42
 490 442 490 442 490 383 c 0,43,44
 490 333 490 333 466.5 300.5 c 128,-1,45
 443 268 443 268 413 251 c 1,46,47
 449 232 449 232 469 203 c 128,-1,48
 489 174 489 174 489 133 c 0,49,50
 489 65 489 65 432.5 27.5 c 128,-1,51
 376 -10 376 -10 276 -10 c 0,0,1
351 280 m 1,52,53
 375 294 375 294 396 315.5 c 128,-1,54
 417 337 417 337 417 370 c 0,55,56
 417 395 417 395 403.5 415 c 128,-1,57
 390 435 390 435 356.5 452.5 c 128,-1,58
 323 470 323 470 262 490 c 1,59,60
 234 482 234 482 211 459.5 c 128,-1,61
 188 437 188 437 188 405 c 0,62,63
 188 368 188 368 219 343 c 128,-1,64
 250 318 250 318 330 288 c 2,65,-1
 351 280 l 1,52,53
EndSplineSet
EndChar

StartChar: dieresis
Encoding: 168 168 106
Width: 600
GlyphClass: 2
Flags: W
AnchorPoint: "Anchor-13" 300 646 basemark 0
AnchorPoint: "Anchor-13" 300 536 mark 0
AnchorPoint: "Anchor-8" 300 536 mark 0
AnchorPoint: "Anchor-3" 300 536 mark 0
LayerCount: 2
Fore
SplineSet
415 622 m 256,0,1
 393 622 393 622 377 636.5 c 128,-1,2
 361 651 361 651 361 681 c 0,3,4
 361 712 361 712 377 725 c 128,-1,5
 393 738 393 738 415 738 c 256,6,7
 437 738 437 738 453.5 725 c 128,-1,8
 470 712 470 712 470 681 c 0,9,10
 470 651 470 651 453.5 636.5 c 128,-1,11
 437 622 437 622 415 622 c 256,0,1
186 622 m 256,12,13
 164 622 164 622 148 636.5 c 128,-1,14
 132 651 132 651 132 681 c 0,15,16
 132 712 132 712 148 725 c 128,-1,17
 164 738 164 738 186 738 c 256,18,19
 208 738 208 738 224.5 725 c 128,-1,20
 241 712 241 712 241 681 c 0,21,22
 241 651 241 651 224.5 636.5 c 128,-1,23
 208 622 208 622 186 622 c 256,12,13
EndSplineSet
EndChar

StartChar: copyright
Encoding: 169 169 107
Width: 600
GlyphClass: 1
Flags: W
LayerCount: 2
Fore
SplineSet
300 104 m 0,0,1
 220 104 220 104 162.5 136.5 c 128,-1,2
 105 169 105 169 74.5 226.5 c 128,-1,3
 44 284 44 284 44 359 c 0,4,5
 44 436 44 436 76 493.5 c 128,-1,6
 108 551 108 551 166 583.5 c 128,-1,7
 224 616 224 616 302 616 c 256,8,9
 380 616 380 616 437 583.5 c 128,-1,10
 494 551 494 551 525 493.5 c 128,-1,11
 556 436 556 436 556 361 c 0,12,13
 556 284 556 284 524 226 c 128,-1,14
 492 168 492 168 434.5 136 c 128,-1,15
 377 104 377 104 300 104 c 0,0,1
300 151 m 0,16,17
 391 151 391 151 447.5 206 c 128,-1,18
 504 261 504 261 504 358 c 0,19,20
 504 454 504 454 447.5 510.5 c 128,-1,21
 391 567 391 567 299 567 c 0,22,23
 208 567 208 567 152 512 c 128,-1,24
 96 457 96 457 96 361 c 0,25,26
 96 298 96 298 121.5 250.5 c 128,-1,27
 147 203 147 203 192.5 177 c 128,-1,28
 238 151 238 151 300 151 c 0,16,17
312 200 m 0,29,30
 239 200 239 200 204 243.5 c 128,-1,31
 169 287 169 287 169 356 c 0,32,33
 169 428 169 428 206 473.5 c 128,-1,34
 243 519 243 519 311 519 c 0,35,36
 334 519 334 519 357 513.5 c 128,-1,37
 380 508 380 508 399 498 c 1,38,-1
 378 451 l 1,39,40
 361 460 361 460 344.5 464 c 128,-1,41
 328 468 328 468 313 468 c 0,42,43
 272 468 272 468 249.5 440 c 128,-1,44
 227 412 227 412 227 356 c 0,45,46
 227 305 227 305 247.5 277 c 128,-1,47
 268 249 268 249 311 249 c 0,48,49
 328 249 328 249 348 253 c 128,-1,50
 368 257 368 257 386 264 c 1,51,-1
 386 215 l 1,52,53
 370 208 370 208 352 204 c 128,-1,54
 334 200 334 200 312 200 c 0,29,30
EndSplineSet
EndChar

StartChar: ordfeminine
Encoding: 170 170 108
Width: 600
GlyphClass: 1
Flags: W
LayerCount: 2
Fore
SplineSet
255 383 m 0,0,1
 208 383 208 383 180 407.5 c 128,-1,2
 152 432 152 432 152 479 c 0,3,4
 152 532 152 532 190 558 c 128,-1,5
 228 584 228 584 310 587 c 2,6,-1
 366 589 l 1,7,-1
 366 611 l 2,8,9
 366 644 366 644 345.5 657 c 128,-1,10
 325 670 325 670 294 670 c 0,11,12
 268 670 268 670 242 662.5 c 128,-1,13
 216 655 216 655 194 644 c 1,14,-1
 172 693 l 1,15,16
 198 706 198 706 230 714 c 128,-1,17
 262 722 262 722 299 722 c 0,18,19
 362 722 362 722 395 695 c 128,-1,20
 428 668 428 668 428 609 c 2,21,-1
 428 389 l 1,22,-1
 381 389 l 1,23,-1
 369 431 l 1,24,25
 349 410 349 410 320.5 396.5 c 128,-1,26
 292 383 292 383 255 383 c 0,0,1
275 434 m 0,27,28
 321 434 321 434 343.5 457.5 c 128,-1,29
 366 481 366 481 366 521 c 2,30,-1
 366 544 l 1,31,-1
 318 542 l 2,32,33
 258 540 258 540 237 524.5 c 128,-1,34
 216 509 216 509 216 482 c 256,35,36
 216 455 216 455 231.5 444.5 c 128,-1,37
 247 434 247 434 275 434 c 0,27,28
EndSplineSet
EndChar

StartChar: guillemotleft
Encoding: 171 171 109
Width: 600
GlyphClass: 1
Flags: W
LayerCount: 2
Fore
SplineSet
453 52 m 1,0,-1
 283 257 l 1,1,-1
 283 270 l 1,2,-1
 453 476 l 1,3,-1
 511 434 l 1,4,-1
 375 264 l 1,5,-1
 511 93 l 1,6,-1
 453 52 l 1,0,-1
257 53 m 1,7,-1
 89 257 l 1,8,-1
 89 270 l 1,9,-1
 257 476 l 1,10,-1
 316 432 l 1,11,-1
 180 264 l 1,12,-1
 315 93 l 1,13,-1
 257 53 l 1,7,-1
EndSplineSet
EndChar

StartChar: logicalnot
Encoding: 172 172 110
Width: 600
GlyphClass: 1
Flags: W
LayerCount: 2
Fore
SplineSet
444 128 m 1,0,-1
 444 317 l 1,1,-1
 75 317 l 1,2,-1
 75 388 l 1,3,-1
 515 388 l 1,4,-1
 515 128 l 1,5,-1
 444 128 l 1,0,-1
EndSplineSet
EndChar

StartChar: registered
Encoding: 174 174 112
Width: 600
GlyphClass: 1
Flags: W
LayerCount: 2
Fore
SplineSet
300 104 m 0,0,1
 220 104 220 104 162.5 136.5 c 128,-1,2
 105 169 105 169 74.5 226.5 c 128,-1,3
 44 284 44 284 44 359 c 0,4,5
 44 436 44 436 76 493.5 c 128,-1,6
 108 551 108 551 166 583.5 c 128,-1,7
 224 616 224 616 302 616 c 256,8,9
 380 616 380 616 437 583.5 c 128,-1,10
 494 551 494 551 525 493.5 c 128,-1,11
 556 436 556 436 556 361 c 0,12,13
 556 284 556 284 524 226 c 128,-1,14
 492 168 492 168 434.5 136 c 128,-1,15
 377 104 377 104 300 104 c 0,0,1
300 151 m 0,16,17
 391 151 391 151 447.5 206 c 128,-1,18
 504 261 504 261 504 358 c 0,19,20
 504 454 504 454 447.5 510.5 c 128,-1,21
 391 567 391 567 299 567 c 0,22,23
 208 567 208 567 152 512 c 128,-1,24
 96 457 96 457 96 361 c 0,25,26
 96 298 96 298 121.5 250.5 c 128,-1,27
 147 203 147 203 192.5 177 c 128,-1,28
 238 151 238 151 300 151 c 0,16,17
210 207 m 1,29,-1
 210 516 l 1,30,-1
 297 516 l 2,31,32
 354 516 354 516 381 491.5 c 128,-1,33
 408 467 408 467 408 425 c 0,34,35
 408 388 408 388 390.5 367 c 128,-1,36
 373 346 373 346 353 338 c 1,37,-1
 434 207 l 1,38,-1
 373 207 l 1,39,-1
 304 325 l 1,40,-1
 261 325 l 1,41,-1
 261 207 l 1,42,-1
 210 207 l 1,29,-1
261 369 m 1,43,-1
 296 369 l 2,44,45
 323 369 323 369 339.5 382 c 128,-1,46
 356 395 356 395 356 421 c 0,47,48
 356 470 356 470 295 470 c 2,49,-1
 261 470 l 1,50,-1
 261 369 l 1,43,-1
EndSplineSet
EndChar

StartChar: overscore
Encoding: 175 175 113
Width: 600
GlyphClass: 1
Flags: W
LayerCount: 2
Fore
SplineSet
152 618 m 1,0,-1
 152 689 l 1,1,-1
 449 689 l 1,2,-1
 449 618 l 1,3,-1
 152 618 l 1,0,-1
EndSplineSet
EndChar

StartChar: degree
Encoding: 176 176 114
Width: 600
GlyphClass: 1
Flags: W
LayerCount: 2
Fore
SplineSet
301 421 m 0,0,1
 233 421 233 421 191 464.5 c 128,-1,2
 149 508 149 508 149 572 c 0,3,4
 149 615 149 615 169 649.5 c 128,-1,5
 189 684 189 684 223.5 704 c 128,-1,6
 258 724 258 724 301 724 c 0,7,8
 342 724 342 724 376.5 704 c 128,-1,9
 411 684 411 684 431 649.5 c 128,-1,10
 451 615 451 615 451 572 c 256,11,12
 451 529 451 529 432 495 c 128,-1,13
 413 461 413 461 379 441 c 128,-1,14
 345 421 345 421 301 421 c 0,0,1
302 480 m 256,15,16
 340 480 340 480 365.5 504.5 c 128,-1,17
 391 529 391 529 391 572 c 256,18,19
 391 615 391 615 365.5 639.5 c 128,-1,20
 340 664 340 664 302 664 c 0,21,22
 262 664 262 664 236 640 c 128,-1,23
 210 616 210 616 210 572 c 0,24,25
 210 530 210 530 237 505 c 128,-1,26
 264 480 264 480 302 480 c 256,15,16
EndSplineSet
EndChar

StartChar: plusminus
Encoding: 177 177 115
Width: 600
GlyphClass: 1
Flags: W
LayerCount: 2
Fore
SplineSet
262 124 m 1,0,-1
 262 320 l 1,1,-1
 76 320 l 1,2,-1
 76 391 l 1,3,-1
 262 391 l 1,4,-1
 262 588 l 1,5,-1
 334 588 l 1,6,-1
 334 391 l 1,7,-1
 520 391 l 1,8,-1
 520 320 l 1,9,-1
 334 320 l 1,10,-1
 334 124 l 1,11,-1
 262 124 l 1,0,-1
80 0 m 1,12,-1
 80 71 l 1,13,-1
 520 71 l 1,14,-1
 520 0 l 1,15,-1
 80 0 l 1,12,-1
EndSplineSet
EndChar

StartChar: uni00B2
Encoding: 178 178 116
Width: 600
GlyphClass: 1
Flags: W
LayerCount: 2
Fore
SplineSet
155 416 m 1,0,-1
 155 470 l 1,1,-1
 270 582 l 2,2,3
 312 622 312 622 334 646.5 c 128,-1,4
 356 671 356 671 364 689.5 c 128,-1,5
 372 708 372 708 372 731 c 0,6,7
 372 762 372 762 352 778.5 c 128,-1,8
 332 795 332 795 300 795 c 0,9,10
 270 795 270 795 245 783.5 c 128,-1,11
 220 772 220 772 195 752 c 1,12,-1
 160 798 l 1,13,14
 189 823 189 823 223.5 838 c 128,-1,15
 258 853 258 853 301 853 c 0,16,17
 366 853 366 853 403 821.5 c 128,-1,18
 440 790 440 790 440 735 c 0,19,20
 440 702 440 702 427 675 c 128,-1,21
 414 648 414 648 388 620 c 128,-1,22
 362 592 362 592 323 555 c 2,23,-1
 242 478 l 1,24,-1
 455 478 l 1,25,-1
 455 416 l 1,26,-1
 155 416 l 1,0,-1
EndSplineSet
EndChar

StartChar: uni00B3
Encoding: 179 179 117
Width: 600
GlyphClass: 1
Flags: W
LayerCount: 2
Fore
SplineSet
278 408 m 0,0,1
 245 408 245 408 215 414.5 c 128,-1,2
 185 421 185 421 155 436 c 1,3,-1
 155 499 l 1,4,5
 189 482 189 482 220.5 473.5 c 128,-1,6
 252 465 252 465 282 465 c 0,7,8
 328 465 328 465 350.5 485.5 c 128,-1,9
 373 506 373 506 373 539 c 0,10,11
 373 576 373 576 346 593 c 128,-1,12
 319 610 319 610 270 610 c 2,13,-1
 213 610 l 1,14,-1
 213 665 l 1,15,-1
 270 665 l 2,16,17
 316 665 316 665 338 684.5 c 128,-1,18
 360 704 360 704 360 735 c 256,19,20
 360 766 360 766 341 781 c 128,-1,21
 322 796 322 796 294 796 c 0,22,23
 268 796 268 796 243 785 c 128,-1,24
 218 774 218 774 193 758 c 1,25,-1
 157 804 l 1,26,27
 188 826 188 826 220 839.5 c 128,-1,28
 252 853 252 853 296 853 c 0,29,30
 363 853 363 853 397.5 822.5 c 128,-1,31
 432 792 432 792 432 742 c 0,32,33
 432 702 432 702 412.5 676.5 c 128,-1,34
 393 651 393 651 366 641 c 1,35,-1
 366 638 l 1,36,37
 402 630 402 630 423.5 605 c 128,-1,38
 445 580 445 580 445 537 c 0,39,40
 445 481 445 481 404.5 444.5 c 128,-1,41
 364 408 364 408 278 408 c 0,0,1
EndSplineSet
EndChar

StartChar: acute
Encoding: 180 180 118
Width: 600
GlyphClass: 1
Flags: W
LayerCount: 2
Fore
SplineSet
246 606 m 1,0,-1
 246 618 l 1,1,2
 260 636 260 636 278 662.5 c 128,-1,3
 296 689 296 689 313 716.5 c 128,-1,4
 330 744 330 744 341 766 c 1,5,-1
 447 766 l 1,6,-1
 447 756 l 1,7,8
 434 738 434 738 409.5 709.5 c 128,-1,9
 385 681 385 681 356.5 652.5 c 128,-1,10
 328 624 328 624 304 606 c 1,11,-1
 246 606 l 1,0,-1
EndSplineSet
EndChar

StartChar: uni00B5
Encoding: 181 181 119
Width: 600
GlyphClass: 2
Flags: W
AnchorPoint: "Anchor-4" 580 536 basechar 0
AnchorPoint: "Anchor-3" 300 536 basechar 0
AnchorPoint: "Anchor-2" 540 10 basechar 0
AnchorPoint: "Anchor-0" 300 0 basechar 0
LayerCount: 2
Fore
SplineSet
75 -240 m 1,0,-1
 75 536 l 1,1,-1
 165 536 l 1,2,-1
 165 193 l 2,3,4
 165 129 165 129 191.5 96 c 128,-1,5
 218 63 218 63 283 63 c 0,6,7
 366 63 366 63 398 115 c 128,-1,8
 430 167 430 167 430 260 c 2,9,-1
 430 536 l 1,10,-1
 520 536 l 1,11,-1
 520 0 l 1,12,-1
 448 0 l 1,13,-1
 435 72 l 1,14,-1
 430 72 l 1,15,16
 402 27 402 27 359.5 8.5 c 128,-1,17
 317 -10 317 -10 261 -10 c 0,18,19
 204 -10 204 -10 165 7 c 1,20,-1
 165 -240 l 1,21,-1
 75 -240 l 1,0,-1
EndSplineSet
EndChar

StartChar: paragraph
Encoding: 182 182 120
Width: 600
GlyphClass: 1
Flags: W
LayerCount: 2
Fore
SplineSet
321 -127 m 1,0,-1
 321 273 l 1,1,2
 304 268 304 268 282 266 c 128,-1,3
 260 264 260 264 240 264 c 0,4,5
 182 264 182 264 139.5 287 c 128,-1,6
 97 310 97 310 73.5 364 c 128,-1,7
 50 418 50 418 50 509 c 0,8,9
 50 604 50 604 76 659 c 128,-1,10
 102 714 102 714 148 737 c 128,-1,11
 194 760 194 760 255 760 c 2,12,-1
 539 760 l 1,13,-1
 539 -127 l 1,14,-1
 481 -127 l 1,15,-1
 481 704 l 1,16,-1
 379 704 l 1,17,-1
 379 -127 l 1,18,-1
 321 -127 l 1,0,-1
EndSplineSet
EndChar

StartChar: cedilla
Encoding: 184 184 122
Width: 600
GlyphClass: 1
Flags: W
LayerCount: 2
Fore
SplineSet
250 -240 m 0,0,1
 217 -240 217 -240 199 -235 c 1,2,-1
 199 -180 l 1,3,4
 208 -182 208 -182 223 -183.5 c 128,-1,5
 238 -185 238 -185 252 -185 c 0,6,7
 286 -185 286 -185 306 -175.5 c 128,-1,8
 326 -166 326 -166 326 -142 c 0,9,10
 326 -116 326 -116 302 -104 c 128,-1,11
 278 -92 278 -92 235 -86 c 1,12,-1
 278 5 l 1,13,-1
 336 5 l 1,14,-1
 310 -53 l 1,15,16
 346 -61 346 -61 371.5 -80.5 c 128,-1,17
 397 -100 397 -100 397 -141 c 0,18,19
 397 -187 397 -187 360 -213.5 c 128,-1,20
 323 -240 323 -240 250 -240 c 0,0,1
EndSplineSet
EndChar

StartChar: uni00B9
Encoding: 185 185 123
Width: 600
GlyphClass: 1
Flags: W
LayerCount: 2
Fore
SplineSet
180 416 m 1,0,-1
 180 467 l 1,1,-1
 283 474 l 1,2,-1
 283 692 l 2,3,4
 283 718 283 718 283.5 737 c 128,-1,5
 284 756 284 756 285 777 c 1,6,7
 265 758 265 758 241 745 c 2,8,-1
 182 712 l 1,9,-1
 148 768 l 1,10,-1
 281 844 l 1,11,-1
 348 844 l 1,12,-1
 348 474 l 1,13,-1
 455 467 l 1,14,-1
 455 416 l 1,15,-1
 180 416 l 1,0,-1
EndSplineSet
EndChar

StartChar: ordmasculine
Encoding: 186 186 124
Width: 600
GlyphClass: 1
Flags: W
LayerCount: 2
Fore
SplineSet
298 383 m 0,0,1
 232 383 232 383 192.5 426.5 c 128,-1,2
 153 470 153 470 153 553 c 0,3,4
 153 635 153 635 192.5 678.5 c 128,-1,5
 232 722 232 722 300 722 c 0,6,7
 366 722 366 722 406 679 c 128,-1,8
 446 636 446 636 446 553 c 0,9,10
 446 469 446 469 406 426 c 128,-1,11
 366 383 366 383 298 383 c 0,0,1
299 436 m 0,12,13
 342 436 342 436 362 465 c 128,-1,14
 382 494 382 494 382 553 c 256,15,16
 382 612 382 612 362 640.5 c 128,-1,17
 342 669 342 669 299 669 c 256,18,19
 256 669 256 669 236 638 c 128,-1,20
 216 607 216 607 216 553 c 0,21,22
 216 494 216 494 235.5 465 c 128,-1,23
 255 436 255 436 299 436 c 0,12,13
EndSplineSet
EndChar

StartChar: AE
Encoding: 198 198 136
Width: 600
GlyphClass: 2
Flags: W
AnchorPoint: "Anchor-3" 325 714 basechar 0
AnchorPoint: "Anchor-0" 300 0 basechar 0
LayerCount: 2
Fore
SplineSet
20 0 m 1,0,-1
 180 714 l 1,1,-1
 543 714 l 1,2,-1
 543 634 l 1,3,-1
 363 634 l 1,4,-1
 363 413 l 1,5,-1
 524 413 l 1,6,-1
 524 334 l 1,7,-1
 363 334 l 1,8,-1
 363 80 l 1,9,-1
 543 80 l 1,10,-1
 543 0 l 1,11,-1
 277 0 l 1,12,-1
 277 219 l 1,13,-1
 154 219 l 1,14,-1
 107 0 l 1,15,-1
 20 0 l 1,0,-1
242 634 m 1,16,-1
 170 296 l 1,17,-1
 277 296 l 1,18,-1
 277 634 l 1,19,-1
 242 634 l 1,16,-1
EndSplineSet
Substitution2: "'c2sc' Capitals to Small Capitals lookup 32 subtable" ae.sc
Substitution2: "'aalt' Access All Alternates lookup 0 subtable" ae.sc
EndChar

StartChar: Eth
Encoding: 208 208 146
Width: 600
GlyphClass: 2
Flags: W
AnchorPoint: "Anchor-4" 610 714 basechar 0
AnchorPoint: "Anchor-3" 300 714 basechar 0
AnchorPoint: "Anchor-1" 309 357 basechar 0
AnchorPoint: "Anchor-0" 300 0 basechar 0
LayerCount: 2
Fore
SplineSet
80 0 m 1,0,-1
 80 314 l 1,1,-1
 0 314 l 1,2,-1
 0 392 l 1,3,-1
 80 392 l 1,4,-1
 80 714 l 1,5,-1
 253 714 l 2,6,7
 348 714 348 714 418 674 c 128,-1,8
 488 634 488 634 526.5 556 c 128,-1,9
 565 478 565 478 565 364 c 0,10,11
 565 183 565 183 477.5 91.5 c 128,-1,12
 390 0 390 0 233 0 c 2,13,-1
 80 0 l 1,0,-1
170 78 m 1,14,-1
 224 78 l 2,15,16
 352 78 352 78 412.5 150 c 128,-1,17
 473 222 473 222 473 361 c 0,18,19
 473 503 473 503 411.5 569.5 c 128,-1,20
 350 636 350 636 243 636 c 2,21,-1
 170 636 l 1,22,-1
 170 392 l 1,23,-1
 292 392 l 1,24,-1
 292 314 l 1,25,-1
 170 314 l 1,26,-1
 170 78 l 1,14,-1
EndSplineSet
Substitution2: "'c2sc' Capitals to Small Capitals lookup 32 subtable" eth.sc
Substitution2: "'aalt' Access All Alternates lookup 0 subtable" eth.sc
EndChar

StartChar: multiply
Encoding: 215 215 153
Width: 600
GlyphClass: 1
Flags: W
LayerCount: 2
Fore
SplineSet
136 138 m 1,0,-1
 86 187 l 1,1,-1
 250 353 l 1,2,-1
 85 518 l 1,3,-1
 135 568 l 1,4,-1
 300 402 l 1,5,-1
 467 568 l 1,6,-1
 516 519 l 1,7,-1
 350 353 l 1,8,-1
 515 187 l 1,9,-1
 466 138 l 1,10,-1
 299 302 l 1,11,-1
 136 138 l 1,0,-1
EndSplineSet
EndChar

StartChar: Oslash
Encoding: 216 216 154
Width: 600
GlyphClass: 2
Flags: W
AnchorPoint: "Anchor-4" 600 714 basechar 0
AnchorPoint: "Anchor-3" 300 714 basechar 0
AnchorPoint: "Anchor-2" 299 10 basechar 0
AnchorPoint: "Anchor-1" 300 357 basechar 0
AnchorPoint: "Anchor-0" 300 0 basechar 0
LayerCount: 2
Fore
SplineSet
121 -38 m 1,0,-1
 56 -3 l 1,1,-1
 108 88 l 1,2,3
 76 136 76 136 60.5 204.5 c 128,-1,4
 45 273 45 273 45 357 c 0,5,6
 45 466 45 466 71.5 549.5 c 128,-1,7
 98 633 98 633 154.5 679.5 c 128,-1,8
 211 726 211 726 300 726 c 0,9,10
 345 726 345 726 381.5 714 c 128,-1,11
 418 702 418 702 446 679 c 1,12,-1
 486 749 l 1,13,-1
 550 714 l 1,14,-1
 497 621 l 1,15,16
 527 573 527 573 541 506.5 c 128,-1,17
 555 440 555 440 555 359 c 0,18,19
 555 248 555 248 528 165 c 128,-1,20
 501 82 501 82 444.5 36 c 128,-1,21
 388 -10 388 -10 299 -10 c 0,22,23
 217 -10 217 -10 161 31 c 1,24,-1
 121 -38 l 1,0,-1
137 358 m 0,25,26
 137 304 137 304 142.5 259 c 128,-1,27
 148 214 148 214 160 179 c 1,28,-1
 403 605 l 1,29,30
 366 646 366 646 302 646 c 0,31,32
 211 646 211 646 174 569 c 128,-1,33
 137 492 137 492 137 358 c 0,25,26
301 70 m 0,34,35
 391 70 391 70 427 146.5 c 128,-1,36
 463 223 463 223 463 358 c 0,37,38
 463 409 463 409 458.5 451.5 c 128,-1,39
 454 494 454 494 444 528 c 1,40,-1
 203 106 l 1,41,42
 241 70 241 70 301 70 c 0,34,35
EndSplineSet
Substitution2: "'c2sc' Capitals to Small Capitals lookup 32 subtable" oslash.sc
Substitution2: "'aalt' Access All Alternates lookup 0 subtable" oslash.sc
EndChar

StartChar: Thorn
Encoding: 222 222 160
Width: 600
GlyphClass: 2
Flags: W
AnchorPoint: "Anchor-3" 300 714 basechar 0
AnchorPoint: "Anchor-0" 300 0 basechar 0
LayerCount: 2
Fore
SplineSet
95 0 m 1,0,-1
 95 714 l 1,1,-1
 185 714 l 1,2,-1
 185 584 l 1,3,-1
 299 584 l 2,4,5
 427 584 427 584 486 529.5 c 128,-1,6
 545 475 545 475 545 375 c 0,7,8
 545 316 545 316 520.5 263 c 128,-1,9
 496 210 496 210 439.5 177.5 c 128,-1,10
 383 145 383 145 286 145 c 2,11,-1
 185 145 l 1,12,-1
 185 0 l 1,13,-1
 95 0 l 1,0,-1
185 223 m 1,14,-1
 276 223 l 2,15,16
 364 223 364 223 408.5 257 c 128,-1,17
 453 291 453 291 453 370 c 0,18,19
 453 506 453 506 291 506 c 2,20,-1
 185 506 l 1,21,-1
 185 223 l 1,14,-1
EndSplineSet
Substitution2: "'c2sc' Capitals to Small Capitals lookup 32 subtable" thorn.sc
Substitution2: "'aalt' Access All Alternates lookup 0 subtable" thorn.sc
EndChar

StartChar: germandbls
Encoding: 223 223 161
Width: 600
GlyphClass: 2
Flags: W
AnchorPoint: "Anchor-3" 300 765 basechar 0
AnchorPoint: "Anchor-0" 300 0 basechar 0
LayerCount: 2
Fore
SplineSet
385 -10 m 0,0,1
 298 -10 298 -10 244 24 c 1,2,-1
 244 105 l 1,3,4
 270 89 270 89 308 76 c 128,-1,5
 346 63 346 63 388 63 c 0,6,7
 441 63 441 63 464 86.5 c 128,-1,8
 487 110 487 110 487 153 c 0,9,10
 487 178 487 178 478.5 194 c 128,-1,11
 470 210 470 210 450 226 c 128,-1,12
 430 242 430 242 393 267 c 0,13,14
 338 305 338 305 311.5 333 c 128,-1,15
 285 361 285 361 285 403 c 0,16,17
 285 437 285 437 298.5 460 c 128,-1,18
 312 483 312 483 332.5 499.5 c 128,-1,19
 353 516 353 516 373 531.5 c 128,-1,20
 393 547 393 547 406.5 565.5 c 128,-1,21
 420 584 420 584 420 610 c 0,22,23
 420 650 420 650 385 669.5 c 128,-1,24
 350 689 350 689 295 689 c 0,25,26
 260 689 260 689 230 679.5 c 128,-1,27
 200 670 200 670 181.5 647 c 128,-1,28
 163 624 163 624 163 581 c 2,29,-1
 163 0 l 1,30,-1
 75 0 l 1,31,-1
 75 584 l 2,32,33
 75 651 75 651 103.5 690.5 c 128,-1,34
 132 730 132 730 182 747.5 c 128,-1,35
 232 765 232 765 295 765 c 0,36,37
 392 765 392 765 451.5 728 c 128,-1,38
 511 691 511 691 511 620 c 0,39,40
 511 584 511 584 497 558 c 128,-1,41
 483 532 483 532 462 512.5 c 128,-1,42
 441 493 441 493 420 477 c 128,-1,43
 399 461 399 461 385 444.5 c 128,-1,44
 371 428 371 428 371 407 c 0,45,46
 371 394 371 394 379 383.5 c 128,-1,47
 387 373 387 373 406.5 359.5 c 128,-1,48
 426 346 426 346 459 323 c 0,49,50
 494 299 494 299 520 276 c 128,-1,51
 546 253 546 253 560.5 223.5 c 128,-1,52
 575 194 575 194 575 150 c 0,53,54
 575 67 575 67 522.5 28.5 c 128,-1,55
 470 -10 470 -10 385 -10 c 0,0,1
EndSplineSet
Substitution2: "'smcp' Lowercase to Small Capitals lookup 33 subtable" germandbls.sc
Substitution2: "'aalt' Access All Alternates lookup 0 subtable" germandbls.sc
EndChar

StartChar: ae
Encoding: 230 230 168
Width: 600
GlyphClass: 2
Flags: W
AnchorPoint: "Anchor-3" 300 536 basechar 0
AnchorPoint: "Anchor-0" 300 0 basechar 0
LayerCount: 2
Fore
SplineSet
145 -10 m 0,0,1
 94 -10 94 -10 57 29 c 128,-1,2
 20 68 20 68 20 150 c 0,3,4
 20 230 20 230 62.5 274 c 128,-1,5
 105 318 105 318 180 320 c 2,6,-1
 258 322 l 1,7,-1
 258 356 l 2,8,9
 258 421 258 421 238 447 c 128,-1,10
 218 473 218 473 180 473 c 0,11,12
 157 473 157 473 131.5 462.5 c 128,-1,13
 106 452 106 452 86 435 c 1,14,-1
 55 499 l 1,15,16
 80 518 80 518 116.5 532 c 128,-1,17
 153 546 153 546 184 546 c 0,18,19
 232 546 232 546 263.5 527 c 128,-1,20
 295 508 295 508 311 467 c 1,21,22
 328 504 328 504 359 525 c 128,-1,23
 390 546 390 546 433 546 c 0,24,25
 502 546 502 546 541 483.5 c 128,-1,26
 580 421 580 421 580 306 c 2,27,-1
 580 251 l 1,28,-1
 335 251 l 1,29,30
 336 147 336 147 368.5 105 c 128,-1,31
 401 63 401 63 453 63 c 0,32,33
 485 63 485 63 511.5 72.5 c 128,-1,34
 538 82 538 82 567 105 c 1,35,-1
 567 26 l 1,36,37
 538 7 538 7 511.5 -1.5 c 128,-1,38
 485 -10 485 -10 449 -10 c 0,39,40
 401 -10 401 -10 360 13.5 c 128,-1,41
 319 37 319 37 297 98 c 1,42,43
 272 40 272 40 235.5 15 c 128,-1,44
 199 -10 199 -10 145 -10 c 0,0,1
337 321 m 1,45,-1
 498 321 l 1,46,47
 498 396 498 396 481 434.5 c 128,-1,48
 464 473 464 473 424 473 c 0,49,50
 389 473 389 473 364.5 433.5 c 128,-1,51
 340 394 340 394 337 321 c 1,45,-1
161 63 m 256,52,53
 186 63 186 63 207.5 77 c 128,-1,54
 229 91 229 91 242.5 124.5 c 128,-1,55
 256 158 256 158 256 214 c 2,56,-1
 256 259 l 1,57,-1
 211 256 l 2,58,59
 153 252 153 252 126.5 225.5 c 128,-1,60
 100 199 100 199 100 149 c 0,61,62
 100 104 100 104 118 83.5 c 128,-1,63
 136 63 136 63 161 63 c 256,52,53
EndSplineSet
Substitution2: "'smcp' Lowercase to Small Capitals lookup 33 subtable" ae.sc
Substitution2: "'aalt' Access All Alternates lookup 0 subtable" ae.sc
EndChar

StartChar: eth
Encoding: 240 240 178
Width: 600
GlyphClass: 2
Flags: W
AnchorPoint: "Anchor-4" 580 760 basechar 0
AnchorPoint: "Anchor-3" 300 765 basechar 0
AnchorPoint: "Anchor-1" 300 268 basechar 0
AnchorPoint: "Anchor-0" 300 0 basechar 0
LayerCount: 2
Fore
SplineSet
301 -10 m 0,0,1
 229 -10 229 -10 173.5 19.5 c 128,-1,2
 118 49 118 49 86.5 103.5 c 128,-1,3
 55 158 55 158 55 233 c 0,4,5
 55 345 55 345 118.5 409 c 128,-1,6
 182 473 182 473 290 473 c 0,7,8
 342 473 342 473 382 459 c 128,-1,9
 422 445 422 445 446 415 c 1,10,-1
 450 417 l 1,11,12
 432 472 432 472 399 519 c 128,-1,13
 366 566 366 566 322 606 c 1,14,-1
 196 533 l 1,15,-1
 158 588 l 1,16,-1
 267 651 l 1,17,18
 227 680 227 680 180 705 c 1,19,-1
 216 765 l 1,20,21
 281 734 281 734 336 691 c 1,22,-1
 457 760 l 1,23,-1
 495 706 l 1,24,-1
 388 644 l 1,25,26
 462 570 462 570 503.5 475.5 c 128,-1,27
 545 381 545 381 545 275 c 0,28,29
 545 132 545 132 479.5 61 c 128,-1,30
 414 -10 414 -10 301 -10 c 0,0,1
303 62 m 0,31,32
 382 62 382 62 419 110.5 c 128,-1,33
 456 159 456 159 456 251 c 0,34,35
 456 313 456 313 418.5 357.5 c 128,-1,36
 381 402 381 402 303 402 c 0,37,38
 219 402 219 402 181.5 357.5 c 128,-1,39
 144 313 144 313 144 230 c 0,40,41
 144 156 144 156 182 109 c 128,-1,42
 220 62 220 62 303 62 c 0,31,32
EndSplineSet
Substitution2: "'smcp' Lowercase to Small Capitals lookup 33 subtable" eth.sc
Substitution2: "'aalt' Access All Alternates lookup 0 subtable" eth.sc
EndChar

StartChar: divide
Encoding: 247 247 185
Width: 600
GlyphClass: 1
Flags: W
LayerCount: 2
Fore
SplineSet
299 462 m 256,0,1
 276 462 276 462 259.5 476.5 c 128,-1,2
 243 491 243 491 243 523 c 0,3,4
 243 557 243 557 259.5 570 c 128,-1,5
 276 583 276 583 299 583 c 256,6,7
 322 583 322 583 338 570 c 128,-1,8
 354 557 354 557 354 523 c 0,9,10
 354 491 354 491 338 476.5 c 128,-1,11
 322 462 322 462 299 462 c 256,0,1
80 317 m 1,12,-1
 80 388 l 1,13,-1
 520 388 l 1,14,-1
 520 317 l 1,15,-1
 80 317 l 1,12,-1
299 121 m 256,16,17
 276 121 276 121 259.5 135.5 c 128,-1,18
 243 150 243 150 243 182 c 0,19,20
 243 216 243 216 259.5 229 c 128,-1,21
 276 242 276 242 299 242 c 256,22,23
 322 242 322 242 338 229 c 128,-1,24
 354 216 354 216 354 182 c 0,25,26
 354 150 354 150 338 135.5 c 128,-1,27
 322 121 322 121 299 121 c 256,16,17
EndSplineSet
EndChar

StartChar: oslash
Encoding: 248 248 186
Width: 600
GlyphClass: 2
Flags: W
AnchorPoint: "Anchor-4" 580 536 basechar 0
AnchorPoint: "Anchor-3" 300 536 basechar 0
AnchorPoint: "Anchor-2" 301 10 basechar 0
AnchorPoint: "Anchor-1" 300 268 basechar 0
AnchorPoint: "Anchor-0" 300 0 basechar 0
LayerCount: 2
Fore
SplineSet
132 -33 m 1,0,-1
 74 6 l 1,1,-1
 118 68 l 1,2,3
 88 102 88 102 71.5 152.5 c 128,-1,4
 55 203 55 203 55 270 c 0,5,6
 55 363 55 363 86.5 424 c 128,-1,7
 118 485 118 485 173 515.5 c 128,-1,8
 228 546 228 546 298 546 c 0,9,10
 376 546 376 546 434 510 c 1,11,-1
 474 566 l 1,12,-1
 533 528 l 1,13,-1
 487 463 l 1,14,15
 514 429 514 429 529.5 380 c 128,-1,16
 545 331 545 331 545 267 c 0,17,18
 545 174 545 174 513 112.5 c 128,-1,19
 481 51 481 51 426 20.5 c 128,-1,20
 371 -10 371 -10 301 -10 c 0,21,22
 227 -10 227 -10 172 23 c 1,23,-1
 132 -33 l 1,0,-1
144 269 m 0,24,25
 144 191 144 191 170 140 c 1,26,-1
 388 446 l 1,27,28
 352 473 352 473 299 473 c 0,29,30
 221 473 221 473 182.5 418.5 c 128,-1,31
 144 364 144 364 144 269 c 0,24,25
300 63 m 0,32,33
 378 63 378 63 416 118.5 c 128,-1,34
 454 174 454 174 454 269 c 0,35,36
 454 340 454 340 433 388 c 1,37,-1
 217 86 l 1,38,39
 251 63 251 63 300 63 c 0,32,33
EndSplineSet
Substitution2: "'smcp' Lowercase to Small Capitals lookup 33 subtable" oslash.sc
Substitution2: "'aalt' Access All Alternates lookup 0 subtable" oslash.sc
EndChar

StartChar: thorn
Encoding: 254 254 192
Width: 600
GlyphClass: 2
Flags: W
AnchorPoint: "Anchor-3" 320 760 basechar 0
AnchorPoint: "Anchor-0" 320 -240 basechar 0
LayerCount: 2
Fore
SplineSet
80 -240 m 1,0,-1
 80 760 l 1,1,-1
 169 760 l 1,2,-1
 169 551 l 2,3,4
 169 529 169 529 168 507 c 128,-1,5
 167 485 167 485 165 463 c 1,6,-1
 169 463 l 1,7,8
 192 502 192 502 230.5 524 c 128,-1,9
 269 546 269 546 329 546 c 0,10,11
 427 546 427 546 486 476 c 128,-1,12
 545 406 545 406 545 269 c 256,13,14
 545 132 545 132 486 61 c 128,-1,15
 427 -10 427 -10 329 -10 c 0,16,17
 270 -10 270 -10 231 14 c 128,-1,18
 192 38 192 38 169 69 c 1,19,-1
 163 69 l 1,20,21
 169 30 169 30 169 -11 c 2,22,-1
 169 -240 l 1,23,-1
 80 -240 l 1,0,-1
310 63 m 0,24,25
 385 63 385 63 419 114.5 c 128,-1,26
 453 166 453 166 453 271 c 0,27,28
 453 374 453 374 419.5 423.5 c 128,-1,29
 386 473 386 473 309 473 c 0,30,31
 236 473 236 473 202.5 425.5 c 128,-1,32
 169 378 169 378 169 289 c 2,33,-1
 169 269 l 2,34,35
 169 174 169 174 199.5 118.5 c 128,-1,36
 230 63 230 63 310 63 c 0,24,25
EndSplineSet
Substitution2: "'smcp' Lowercase to Small Capitals lookup 33 subtable" thorn.sc
Substitution2: "'aalt' Access All Alternates lookup 0 subtable" thorn.sc
EndChar

StartChar: dcaron
Encoding: 271 271 209
Width: 600
GlyphClass: 2
Flags: W
AnchorPoint: "Anchor-4" 580 760 basechar 0
AnchorPoint: "Anchor-3" 327 760 basechar 0
AnchorPoint: "Anchor-1" 261 268 basechar 0
AnchorPoint: "Anchor-0" 300 0 basechar 0
LayerCount: 2
Fore
SplineSet
245 -10 m 0,0,1
 154 -10 154 -10 99.5 59 c 128,-1,2
 45 128 45 128 45 270 c 0,3,4
 45 404 45 404 97 475 c 128,-1,5
 149 546 149 546 249 546 c 0,6,7
 308 546 308 546 340 524 c 128,-1,8
 372 502 372 502 391 468 c 1,9,-1
 397 468 l 1,10,11
 395 485 395 485 393 506.5 c 128,-1,12
 391 528 391 528 391 551 c 2,13,-1
 391 760 l 1,14,-1
 480 760 l 1,15,-1
 480 0 l 1,16,-1
 406 0 l 1,17,-1
 396 72 l 1,18,-1
 392 72 l 1,19,20
 370 34 370 34 334.5 12 c 128,-1,21
 299 -10 299 -10 245 -10 c 0,0,1
522 600 m 1,22,-1
 522 612 l 1,23,24
 528 631 528 631 535 657.5 c 128,-1,25
 542 684 542 684 547 711 c 128,-1,26
 552 738 552 738 555 760 c 1,27,-1
 642 760 l 1,28,-1
 642 752 l 1,29,30
 638 734 638 734 626.5 706.5 c 128,-1,31
 615 679 615 679 600 650.5 c 128,-1,32
 585 622 585 622 570 600 c 1,33,-1
 522 600 l 1,22,-1
261 63 m 0,34,35
 327 63 327 63 359 112.5 c 128,-1,36
 391 162 391 162 391 247 c 2,37,-1
 391 267 l 2,38,39
 391 325 391 325 379 371.5 c 128,-1,40
 367 418 367 418 339.5 445.5 c 128,-1,41
 312 473 312 473 265 473 c 0,42,43
 204 473 204 473 170.5 421 c 128,-1,44
 137 369 137 369 137 262 c 0,45,46
 137 63 137 63 261 63 c 0,34,35
EndSplineSet
Substitution2: "'smcp' Lowercase to Small Capitals lookup 33 subtable" dcaron.sc
Substitution2: "'aalt' Access All Alternates lookup 0 subtable" dcaron.sc
EndChar

StartChar: dcroat
Encoding: 273 273 211
Width: 600
GlyphClass: 2
Flags: W
AnchorPoint: "Anchor-4" 580 760 basechar 0
AnchorPoint: "Anchor-3" 300 760 basechar 0
AnchorPoint: "Anchor-1" 300 268 basechar 0
AnchorPoint: "Anchor-0" 300 0 basechar 0
LayerCount: 2
Fore
SplineSet
274 -10 m 0,0,1
 175 -10 175 -10 115 58.5 c 128,-1,2
 55 127 55 127 55 269 c 0,3,4
 55 401 55 401 112 471 c 128,-1,5
 169 541 169 541 284 541 c 0,6,7
 340 541 340 541 376 519 c 128,-1,8
 412 497 412 497 431 463 c 1,9,-1
 437 463 l 1,10,11
 435 482 435 482 433 502 c 128,-1,12
 431 522 431 522 431 542 c 2,13,-1
 431 604 l 1,14,-1
 254 604 l 1,15,-1
 254 670 l 1,16,-1
 431 670 l 1,17,-1
 431 760 l 1,18,-1
 520 760 l 1,19,-1
 520 670 l 1,20,-1
 600 670 l 1,21,-1
 600 604 l 1,22,-1
 520 604 l 1,23,-1
 520 0 l 1,24,-1
 446 0 l 1,25,-1
 436 72 l 1,26,-1
 432 72 l 1,27,28
 410 36 410 36 372.5 13 c 128,-1,29
 335 -10 335 -10 274 -10 c 0,0,1
291 63 m 0,30,31
 362 63 362 63 396.5 112 c 128,-1,32
 431 161 431 161 431 245 c 2,33,-1
 431 265 l 2,34,35
 431 322 431 322 418 368 c 128,-1,36
 405 414 405 414 375 441 c 128,-1,37
 345 468 345 468 294 468 c 0,38,39
 224 468 224 468 185.5 417 c 128,-1,40
 147 366 147 366 147 260 c 0,41,42
 147 63 147 63 291 63 c 0,30,31
EndSplineSet
Substitution2: "'smcp' Lowercase to Small Capitals lookup 33 subtable" dcroat.sc
Substitution2: "'aalt' Access All Alternates lookup 0 subtable" dcroat.sc
EndChar

StartChar: eogonek
Encoding: 281 281 219
Width: 600
GlyphClass: 2
Flags: W
AnchorPoint: "Anchor-4" 580 536 basechar 0
AnchorPoint: "Anchor-3" 300 536 basechar 0
AnchorPoint: "Anchor-2" 306 10 basechar 0
AnchorPoint: "Anchor-0" 320 -220 basechar 0
LayerCount: 2
Fore
SplineSet
337 -10 m 0,0,1
 208 -10 208 -10 134 61 c 128,-1,2
 60 132 60 132 60 266 c 0,3,4
 60 354 60 354 92 416.5 c 128,-1,5
 124 479 124 479 181 512.5 c 128,-1,6
 238 546 238 546 314 546 c 0,7,8
 419 546 419 546 479.5 478 c 128,-1,9
 540 410 540 410 540 292 c 2,10,-1
 540 251 l 1,11,-1
 151 251 l 1,12,13
 153 181 153 181 177.5 140 c 128,-1,14
 202 99 202 99 244.5 81.5 c 128,-1,15
 287 64 287 64 343 64 c 0,16,17
 386 64 386 64 429 76 c 128,-1,18
 472 88 472 88 516 108 c 1,19,-1
 516 28 l 1,20,21
 475 -3 475 -3 444.5 -35.5 c 128,-1,22
 414 -68 414 -68 414 -110 c 0,23,24
 414 -161 414 -161 466 -161 c 0,25,26
 475 -161 475 -161 487 -159.5 c 128,-1,27
 499 -158 499 -158 507 -155 c 1,28,-1
 507 -211 l 1,29,30
 493 -215 493 -215 478.5 -217.5 c 128,-1,31
 464 -220 464 -220 447 -220 c 0,32,33
 392 -220 392 -220 367 -192 c 128,-1,34
 342 -164 342 -164 342 -124 c 0,35,36
 342 -86 342 -86 361.5 -56 c 128,-1,37
 381 -26 381 -26 409 -4 c 1,38,39
 373 -10 373 -10 337 -10 c 0,0,1
153 323 m 1,40,-1
 450 323 l 1,41,42
 447 393 447 393 412.5 433 c 128,-1,43
 378 473 378 473 314 473 c 0,44,45
 246 473 246 473 205 432.5 c 128,-1,46
 164 392 164 392 153 323 c 1,40,-1
EndSplineSet
Substitution2: "'smcp' Lowercase to Small Capitals lookup 33 subtable" eogonek.sc
Substitution2: "'locl' Localized Forms in Latin lookup 11 subtable" eogonek.loclNAV
Ligature2: "'ccmp' Glyph Composition/Decomposition lookup 6 subtable" e uni0328
AlternateSubs2: "'aalt' Access All Alternates lookup 1 subtable" eogonek.loclNAV eogonek.sc
EndChar

StartChar: Hbar
Encoding: 294 294 232
Width: 600
GlyphClass: 2
Flags: W
AnchorPoint: "Anchor-3" 300 714 basechar 0
AnchorPoint: "Anchor-1" 300 357 basechar 0
AnchorPoint: "Anchor-0" 300 0 basechar 0
LayerCount: 2
Fore
SplineSet
70 0 m 1,0,-1
 70 523 l 1,1,-1
 0 523 l 1,2,-1
 0 595 l 1,3,-1
 70 595 l 1,4,-1
 70 714 l 1,5,-1
 160 714 l 1,6,-1
 160 595 l 1,7,-1
 440 595 l 1,8,-1
 440 714 l 1,9,-1
 530 714 l 1,10,-1
 530 595 l 1,11,-1
 600 595 l 1,12,-1
 600 523 l 1,13,-1
 530 523 l 1,14,-1
 530 0 l 1,15,-1
 440 0 l 1,16,-1
 440 333 l 1,17,-1
 160 333 l 1,18,-1
 160 0 l 1,19,-1
 70 0 l 1,0,-1
160 413 m 1,20,-1
 440 413 l 1,21,-1
 440 523 l 1,22,-1
 160 523 l 1,23,-1
 160 413 l 1,20,-1
EndSplineSet
Substitution2: "'c2sc' Capitals to Small Capitals lookup 32 subtable" hbar.sc
Substitution2: "'aalt' Access All Alternates lookup 0 subtable" hbar.sc
EndChar

StartChar: hbar
Encoding: 295 295 233
Width: 600
GlyphClass: 2
Flags: W
AnchorPoint: "Anchor-3" 126 760 basechar 0
AnchorPoint: "Anchor-1" 300 268 basechar 0
AnchorPoint: "Anchor-0" 300 0 basechar 0
LayerCount: 2
Fore
SplineSet
80 0 m 1,0,-1
 80 604 l 1,1,-1
 0 604 l 1,2,-1
 0 670 l 1,3,-1
 80 670 l 1,4,-1
 80 760 l 1,5,-1
 170 760 l 1,6,-1
 170 670 l 1,7,-1
 346 670 l 1,8,-1
 346 604 l 1,9,-1
 170 604 l 1,10,-1
 170 544 l 2,11,12
 170 525 170 525 168.5 496 c 128,-1,13
 167 467 167 467 166 450 c 1,14,-1
 171 450 l 1,15,16
 196 500 196 500 240 523 c 128,-1,17
 284 546 284 546 339 546 c 0,18,19
 422 546 422 546 473.5 499.5 c 128,-1,20
 525 453 525 453 525 350 c 2,21,-1
 525 0 l 1,22,-1
 435 0 l 1,23,-1
 435 332 l 2,24,25
 435 405 435 405 404 439 c 128,-1,26
 373 473 373 473 316 473 c 0,27,28
 249 473 249 473 209.5 421.5 c 128,-1,29
 170 370 170 370 170 278 c 2,30,-1
 170 0 l 1,31,-1
 80 0 l 1,0,-1
EndSplineSet
Substitution2: "'smcp' Lowercase to Small Capitals lookup 33 subtable" hbar.sc
Substitution2: "'aalt' Access All Alternates lookup 0 subtable" hbar.sc
EndChar

StartChar: IJ
Encoding: 306 306 243
Width: 600
GlyphClass: 2
LigCaretCntFixed: 1
Flags: W
AnchorPoint: "Anchor-3" 300 714 basechar 0
AnchorPoint: "Anchor-0" 300 0 basechar 0
LayerCount: 2
Fore
SplineSet
270 -10 m 0,0,1
 240 -10 240 -10 207.5 -6.5 c 128,-1,2
 175 -3 175 -3 146.5 3.5 c 128,-1,3
 118 10 118 10 102 19 c 1,4,-1
 102 104 l 1,5,6
 116 98 116 98 142 90.5 c 128,-1,7
 168 83 168 83 200 78 c 128,-1,8
 232 73 232 73 263 73 c 0,9,10
 328 73 328 73 369 108.5 c 128,-1,11
 410 144 410 144 410 229 c 2,12,-1
 410 714 l 1,13,-1
 500 714 l 1,14,-1
 500 217 l 2,15,16
 500 108 500 108 441 49 c 128,-1,17
 382 -10 382 -10 270 -10 c 0,0,1
100 200 m 1,18,-1
 100 714 l 1,19,-1
 190 714 l 1,20,-1
 190 200 l 1,21,-1
 100 200 l 1,18,-1
EndSplineSet
Substitution2: "'c2sc' Capitals to Small Capitals lookup 32 subtable" ij.sc
Substitution2: "'aalt' Access All Alternates lookup 0 subtable" ij.sc
LCarets2: 1 0
EndChar

StartChar: ij
Encoding: 307 307 244
Width: 600
GlyphClass: 2
LigCaretCntFixed: 1
Flags: W
AnchorPoint: "Anchor-3" 300 760 basechar 0
AnchorPoint: "Anchor-0" 306 -245 basechar 0
LayerCount: 2
Fore
SplineSet
163 633 m 0,0,1
 137 633 137 633 118.5 649 c 128,-1,2
 100 665 100 665 100 697 c 0,3,4
 100 728 100 728 118 744 c 128,-1,5
 136 760 136 760 163 760 c 0,6,7
 188 760 188 760 207 744.5 c 128,-1,8
 226 729 226 729 226 697 c 0,9,10
 226 664 226 664 207 648.5 c 128,-1,11
 188 633 188 633 163 633 c 0,0,1
437 633 m 0,12,13
 411 633 411 633 393 649 c 128,-1,14
 375 665 375 665 375 697 c 0,15,16
 375 728 375 728 392.5 744 c 128,-1,17
 410 760 410 760 437 760 c 0,18,19
 462 760 462 760 481 744.5 c 128,-1,20
 500 729 500 729 500 697 c 0,21,22
 500 664 500 664 481 648.5 c 128,-1,23
 462 633 462 633 437 633 c 0,12,13
271 -245 m 0,24,25
 238 -245 238 -245 198 -240.5 c 128,-1,26
 158 -236 158 -236 130 -228 c 1,27,-1
 130 -149 l 1,28,29
 158 -158 158 -158 194 -164 c 128,-1,30
 230 -170 230 -170 262 -170 c 0,31,32
 334 -170 334 -170 365.5 -137 c 128,-1,33
 397 -104 397 -104 397 -37 c 2,34,-1
 397 536 l 1,35,-1
 487 536 l 1,36,-1
 487 -52 l 2,37,38
 487 -145 487 -145 430.5 -195 c 128,-1,39
 374 -245 374 -245 271 -245 c 0,24,25
117 0 m 1,40,-1
 117 536 l 1,41,-1
 207 536 l 1,42,-1
 207 0 l 1,43,-1
 117 0 l 1,40,-1
EndSplineSet
Substitution2: "'smcp' Lowercase to Small Capitals lookup 33 subtable" ij.sc
Substitution2: "'aalt' Access All Alternates lookup 0 subtable" ij.sc
LCarets2: 1 0
EndChar

StartChar: kgreenlandic
Encoding: 312 312 249
Width: 600
GlyphClass: 2
Flags: W
AnchorPoint: "Anchor-3" 300 536 basechar 0
AnchorPoint: "Anchor-0" 300 0 basechar 0
LayerCount: 2
Fore
SplineSet
105 0 m 1,0,-1
 105 536 l 1,1,-1
 195 536 l 1,2,-1
 195 394 l 2,3,4
 195 362 195 362 192.5 320 c 128,-1,5
 190 278 190 278 188 243 c 1,6,-1
 190 243 l 1,7,8
 209 268 209 268 226 288.5 c 128,-1,9
 243 309 243 309 263 331 c 2,10,-1
 448 536 l 1,11,-1
 556 536 l 1,12,-1
 343 305 l 1,13,-1
 570 0 l 1,14,-1
 466 0 l 1,15,-1
 283 252 l 1,16,-1
 195 167 l 1,17,-1
 195 0 l 1,18,-1
 105 0 l 1,0,-1
EndSplineSet
EndChar

StartChar: Lslash
Encoding: 321 321 258
Width: 600
GlyphClass: 2
Flags: W
AnchorPoint: "Anchor-4" 486 714 basechar 0
AnchorPoint: "Anchor-3" 202 714 basechar 0
AnchorPoint: "Anchor-1" 340 357 basechar 0
AnchorPoint: "Anchor-0" 367 0 basechar 0
LayerCount: 2
Fore
SplineSet
155 0 m 1,0,-1
 155 251 l 1,1,-1
 89 213 l 1,2,-1
 54 273 l 1,3,-1
 155 333 l 1,4,-1
 155 714 l 1,5,-1
 245 714 l 1,6,-1
 245 386 l 1,7,-1
 365 457 l 1,8,-1
 401 394 l 1,9,-1
 245 304 l 1,10,-1
 245 83 l 1,11,-1
 555 83 l 1,12,-1
 555 0 l 1,13,-1
 155 0 l 1,0,-1
EndSplineSet
Substitution2: "'c2sc' Capitals to Small Capitals lookup 32 subtable" lslash.sc
Substitution2: "'aalt' Access All Alternates lookup 0 subtable" lslash.sc
EndChar

StartChar: lslash
Encoding: 322 322 259
Width: 600
GlyphClass: 2
Flags: W
AnchorPoint: "Anchor-4" 493 760 basechar 0
AnchorPoint: "Anchor-3" 300 760 basechar 0
AnchorPoint: "Anchor-1" 322 387 basechar 0
AnchorPoint: "Anchor-0" 300 0 basechar 0
LayerCount: 2
Fore
SplineSet
80 0 m 1,0,-1
 80 60 l 1,1,-1
 276 75 l 1,2,-1
 276 296 l 1,3,-1
 180 237 l 1,4,-1
 144 296 l 1,5,-1
 276 378 l 1,6,-1
 276 685 l 1,7,-1
 86 698 l 1,8,-1
 86 760 l 1,9,-1
 366 760 l 1,10,-1
 366 434 l 1,11,-1
 452 487 l 1,12,-1
 489 428 l 1,13,-1
 366 352 l 1,14,-1
 366 75 l 1,15,-1
 540 60 l 1,16,-1
 540 0 l 1,17,-1
 80 0 l 1,0,-1
EndSplineSet
Substitution2: "'smcp' Lowercase to Small Capitals lookup 33 subtable" lslash.sc
Substitution2: "'aalt' Access All Alternates lookup 0 subtable" lslash.sc
EndChar

StartChar: napostrophe
Encoding: 329 329 266
Width: 600
GlyphClass: 2
Flags: W
AnchorPoint: "Anchor-3" 312 536 basechar 0
AnchorPoint: "Anchor-0" 312 0 basechar 0
LayerCount: 2
Fore
SplineSet
-50 469 m 1,0,1
 -36 528 -36 528 -22 595 c 128,-1,2
 -8 662 -8 662 -1 714 c 1,3,-1
 102 714 l 1,4,-1
 109 703 l 1,5,6
 96 650 96 650 72 587 c 128,-1,7
 48 524 48 524 23 469 c 1,8,-1
 -50 469 l 1,0,1
95 0 m 1,9,-1
 95 536 l 1,10,-1
 167 536 l 1,11,-1
 180 457 l 1,12,-1
 185 457 l 1,13,14
 208 503 208 503 250.5 524.5 c 128,-1,15
 293 546 293 546 350 546 c 0,16,17
 429 546 429 546 477 500.5 c 128,-1,18
 525 455 525 455 525 358 c 2,19,-1
 525 0 l 1,20,-1
 435 0 l 1,21,-1
 435 342 l 2,22,23
 435 410 435 410 405.5 441.5 c 128,-1,24
 376 473 376 473 324 473 c 0,25,26
 250 473 250 473 217.5 421 c 128,-1,27
 185 369 185 369 185 275 c 2,28,-1
 185 0 l 1,29,-1
 95 0 l 1,9,-1
EndSplineSet
EndChar

StartChar: Eng
Encoding: 330 330 267
Width: 600
GlyphClass: 2
Flags: W
AnchorPoint: "Anchor-4" 600 714 basechar 0
AnchorPoint: "Anchor-3" 305 714 basechar 0
AnchorPoint: "Anchor-0" 305 -190 basechar 0
LayerCount: 2
Fore
SplineSet
70 0 m 1,0,-1
 70 714 l 1,1,-1
 189 714 l 1,2,-1
 449 119 l 1,3,-1
 452 119 l 1,4,5
 447 178 447 178 445 226.5 c 128,-1,6
 443 275 443 275 443 336 c 2,7,-1
 443 714 l 1,8,-1
 530 714 l 1,9,-1
 530 0 l 1,10,-1
 530 0 l 1,11,12
 528 -98 528 -98 477.5 -144 c 128,-1,13
 427 -190 427 -190 342 -190 c 0,14,15
 317 -190 317 -190 298.5 -186.5 c 128,-1,16
 280 -183 280 -183 266 -177 c 1,17,-1
 266 -101 l 1,18,19
 301 -111 301 -111 338 -111 c 0,20,21
 366 -111 366 -111 390.5 -101.5 c 128,-1,22
 415 -92 415 -92 430.5 -68 c 128,-1,23
 446 -44 446 -44 446 0 c 1,24,-1
 421 0 l 1,25,-1
 148 622 l 1,26,-1
 144 622 l 1,27,28
 148 566 148 566 152.5 510 c 128,-1,29
 157 454 157 454 157 398 c 2,30,-1
 157 0 l 1,31,-1
 70 0 l 1,0,-1
EndSplineSet
Substitution2: "'c2sc' Capitals to Small Capitals lookup 32 subtable" eng.sc
AlternateSubs2: "'aalt' Access All Alternates lookup 1 subtable" Eng.alt1 Eng.alt2 Eng.alt3 eng.sc
EndChar

StartChar: eng
Encoding: 331 331 268
Width: 600
GlyphClass: 2
Flags: W
AnchorPoint: "Anchor-4" 580 536 basechar 0
AnchorPoint: "Anchor-3" 312 536 basechar 0
AnchorPoint: "Anchor-0" 312 -240 basechar 0
LayerCount: 2
Fore
SplineSet
80 0 m 1,0,-1
 80 536 l 1,1,-1
 152 536 l 1,2,-1
 165 457 l 1,3,-1
 170 457 l 1,4,5
 193 503 193 503 238.5 524.5 c 128,-1,6
 284 546 284 546 345 546 c 0,7,8
 426 546 426 546 475.5 500.5 c 128,-1,9
 525 455 525 455 525 358 c 2,10,-1
 525 -80 l 2,11,12
 525 -155 525 -155 489.5 -197.5 c 128,-1,13
 454 -240 454 -240 380 -240 c 0,14,15
 356 -240 356 -240 339 -236.5 c 128,-1,16
 322 -233 322 -233 309 -228 c 1,17,-1
 309 -157 l 1,18,19
 322 -162 322 -162 336.5 -164.5 c 128,-1,20
 351 -167 351 -167 369 -167 c 0,21,22
 398 -167 398 -167 416.5 -149.5 c 128,-1,23
 435 -132 435 -132 435 -83 c 2,24,-1
 435 342 l 2,25,26
 435 410 435 410 407.5 441.5 c 128,-1,27
 380 473 380 473 319 473 c 0,28,29
 237 473 237 473 203.5 421 c 128,-1,30
 170 369 170 369 170 275 c 2,31,-1
 170 0 l 1,32,-1
 80 0 l 1,0,-1
EndSplineSet
Substitution2: "'smcp' Lowercase to Small Capitals lookup 33 subtable" eng.sc
Substitution2: "'aalt' Access All Alternates lookup 0 subtable" eng.sc
EndChar

StartChar: OE
Encoding: 338 338 275
Width: 600
GlyphClass: 2
Flags: W
AnchorPoint: "Anchor-3" 300 714 basechar 0
AnchorPoint: "Anchor-0" 300 0 basechar 0
LayerCount: 2
Fore
SplineSet
240 -10 m 0,0,1
 169 -10 169 -10 125 36 c 128,-1,2
 81 82 81 82 60.5 165 c 128,-1,3
 40 248 40 248 40 359 c 256,4,5
 40 470 40 470 61.5 552 c 128,-1,6
 83 634 83 634 130 679 c 128,-1,7
 177 724 177 724 252 724 c 0,8,9
 294 724 294 724 327 714 c 1,10,-1
 570 714 l 1,11,-1
 570 634 l 1,12,-1
 397 634 l 1,13,-1
 397 413 l 1,14,-1
 551 413 l 1,15,-1
 551 334 l 1,16,-1
 397 334 l 1,17,-1
 397 80 l 1,18,-1
 570 80 l 1,19,-1
 570 0 l 1,20,-1
 311 0 l 1,21,22
 294 -4 294 -4 276.5 -7 c 128,-1,23
 259 -10 259 -10 240 -10 c 0,0,1
245 70 m 0,24,25
 281 70 281 70 310 86 c 1,26,-1
 310 629 l 1,27,28
 281 645 281 645 246 645 c 0,29,30
 185 645 185 645 158.5 568.5 c 128,-1,31
 132 492 132 492 132 358 c 256,32,33
 132 224 132 224 158.5 147 c 128,-1,34
 185 70 185 70 245 70 c 0,24,25
EndSplineSet
Substitution2: "'c2sc' Capitals to Small Capitals lookup 32 subtable" oe.sc
Substitution2: "'aalt' Access All Alternates lookup 0 subtable" oe.sc
EndChar

StartChar: oe
Encoding: 339 339 276
Width: 600
GlyphClass: 2
Flags: W
AnchorPoint: "Anchor-3" 300 536 basechar 0
AnchorPoint: "Anchor-0" 300 0 basechar 0
LayerCount: 2
Fore
SplineSet
190 -10 m 0,0,1
 109 -10 109 -10 65.5 64.5 c 128,-1,2
 22 139 22 139 22 273 c 0,3,4
 22 405 22 405 64.5 476 c 128,-1,5
 107 547 107 547 189 547 c 0,6,7
 237 547 237 547 266.5 522.5 c 128,-1,8
 296 498 296 498 316 451 c 1,9,10
 355 546 355 546 438 546 c 0,11,12
 488 546 488 546 519.5 514 c 128,-1,13
 551 482 551 482 565.5 428.5 c 128,-1,14
 580 375 580 375 580 309 c 2,15,-1
 580 253 l 1,16,-1
 356 253 l 1,17,18
 358 154 358 154 381 106 c 128,-1,19
 404 58 404 58 458 58 c 0,20,21
 502 58 502 58 560 94 c 1,22,-1
 560 24 l 1,23,24
 505 -10 505 -10 450 -10 c 0,25,26
 404 -10 404 -10 371.5 13 c 128,-1,27
 339 36 339 36 317 87 c 1,28,29
 298 39 298 39 267 14.5 c 128,-1,30
 236 -10 236 -10 190 -10 c 0,0,1
357 317 m 1,31,-1
 505 317 l 1,32,33
 505 362 505 362 498 398.5 c 128,-1,34
 491 435 491 435 475.5 457 c 128,-1,35
 460 479 460 479 435 479 c 0,36,37
 401 479 401 479 380 437.5 c 128,-1,38
 359 396 359 396 357 317 c 1,31,-1
194 60 m 0,39,40
 238 60 238 60 257.5 110 c 128,-1,41
 277 160 277 160 277 267 c 0,42,43
 277 371 277 371 257.5 423.5 c 128,-1,44
 238 476 238 476 192 476 c 0,45,46
 145 476 145 476 123.5 423.5 c 128,-1,47
 102 371 102 371 102 270 c 0,48,49
 102 60 102 60 194 60 c 0,39,40
EndSplineSet
Substitution2: "'smcp' Lowercase to Small Capitals lookup 33 subtable" oe.sc
Substitution2: "'aalt' Access All Alternates lookup 0 subtable" oe.sc
EndChar

StartChar: Tbar
Encoding: 358 358 295
Width: 600
GlyphClass: 2
Flags: W
AnchorPoint: "Anchor-4" 580 714 basechar 0
AnchorPoint: "Anchor-3" 300 714 basechar 0
AnchorPoint: "Anchor-1" 300 357 basechar 0
AnchorPoint: "Anchor-0" 300 0 basechar 0
LayerCount: 2
Fore
SplineSet
255 0 m 1,0,-1
 255 325 l 1,1,-1
 107 325 l 1,2,-1
 107 399 l 1,3,-1
 255 399 l 1,4,-1
 255 634 l 1,5,-1
 45 634 l 1,6,-1
 45 714 l 1,7,-1
 555 714 l 1,8,-1
 555 634 l 1,9,-1
 345 634 l 1,10,-1
 345 399 l 1,11,-1
 494 399 l 1,12,-1
 494 325 l 1,13,-1
 345 325 l 1,14,-1
 345 0 l 1,15,-1
 255 0 l 1,0,-1
EndSplineSet
Substitution2: "'c2sc' Capitals to Small Capitals lookup 32 subtable" tbar.sc
Substitution2: "'aalt' Access All Alternates lookup 0 subtable" tbar.sc
EndChar

StartChar: tbar
Encoding: 359 359 296
Width: 600
GlyphClass: 2
Flags: W
AnchorPoint: "Anchor-4" 580 679 basechar 0
AnchorPoint: "Anchor-3" 255 679 basechar 0
AnchorPoint: "Anchor-1" 252 268 basechar 0
AnchorPoint: "Anchor-0" 323 0 basechar 0
LayerCount: 2
Fore
SplineSet
56 280 m 1,0,-1
 56 346 l 1,1,-1
 202 346 l 1,2,-1
 202 461 l 1,3,-1
 56 461 l 1,4,-1
 56 523 l 1,5,-1
 202 539 l 1,6,-1
 220 679 l 1,7,-1
 292 679 l 1,8,-1
 292 536 l 1,9,-1
 501 536 l 1,10,-1
 501 461 l 1,11,-1
 292 461 l 1,12,-1
 292 346 l 1,13,-1
 516 346 l 1,14,-1
 516 280 l 1,15,-1
 292 280 l 1,16,-1
 292 180 l 2,17,18
 292 119 292 119 319 91 c 128,-1,19
 346 63 346 63 408 63 c 0,20,21
 434 63 434 63 464 68 c 128,-1,22
 494 73 494 73 516 78 c 1,23,-1
 516 6 l 1,24,25
 492 0 492 0 463 -5 c 128,-1,26
 434 -10 434 -10 402 -10 c 0,27,28
 345 -10 345 -10 299.5 5 c 128,-1,29
 254 20 254 20 228 58 c 128,-1,30
 202 96 202 96 202 163 c 2,31,-1
 202 280 l 1,32,-1
 56 280 l 1,0,-1
EndSplineSet
Substitution2: "'smcp' Lowercase to Small Capitals lookup 33 subtable" tbar.sc
Substitution2: "'aalt' Access All Alternates lookup 0 subtable" tbar.sc
EndChar

StartChar: Uogonek
Encoding: 370 370 307
Width: 600
GlyphClass: 2
Flags: W
AnchorPoint: "Anchor-4" 580 714 basechar 0
AnchorPoint: "Anchor-3" 300 714 basechar 0
AnchorPoint: "Anchor-2" 540 10 basechar 0
AnchorPoint: "Anchor-0" 330 -220 basechar 0
LayerCount: 2
Fore
SplineSet
298 -10 m 2,0,1
 216 -10 216 -10 165.5 22.5 c 128,-1,2
 115 55 115 55 92.5 114.5 c 128,-1,3
 70 174 70 174 70 254 c 2,4,-1
 70 714 l 1,5,-1
 160 714 l 1,6,-1
 160 259 l 2,7,8
 160 202 160 202 172.5 159.5 c 128,-1,9
 185 117 185 117 215.5 93.5 c 128,-1,10
 246 70 246 70 300 70 c 0,11,12
 357 70 357 70 387.5 95 c 128,-1,13
 418 120 418 120 429 163 c 128,-1,14
 440 206 440 206 440 260 c 2,15,-1
 440 714 l 1,16,-1
 530 714 l 1,17,-1
 530 252 l 2,18,19
 530 170 530 170 503.5 106.5 c 128,-1,20
 477 43 477 43 413 13 c 1,21,22
 361 -18 361 -18 333 -47.5 c 128,-1,23
 305 -77 305 -77 305 -113 c 0,24,25
 305 -161 305 -161 356 -161 c 0,26,27
 366 -161 366 -161 378 -159.5 c 128,-1,28
 390 -158 390 -158 398 -155 c 1,29,-1
 398 -211 l 1,30,31
 384 -215 384 -215 369.5 -217.5 c 128,-1,32
 355 -220 355 -220 337 -220 c 0,33,34
 283 -220 283 -220 258 -192 c 128,-1,35
 233 -164 233 -164 233 -121 c 0,36,37
 233 -86 233 -86 253 -58.5 c 128,-1,38
 273 -31 273 -31 301 -10 c 1,39,-1
 298 -10 l 2,0,1
EndSplineSet
Substitution2: "'c2sc' Capitals to Small Capitals lookup 32 subtable" uogonek.sc
Substitution2: "'locl' Localized Forms in Latin lookup 11 subtable" Uogonek.loclNAV
Ligature2: "'ccmp' Glyph Composition/Decomposition lookup 6 subtable" U uni0328
AlternateSubs2: "'aalt' Access All Alternates lookup 1 subtable" Uogonek.loclNAV uogonek.sc
EndChar

StartChar: longs
Encoding: 383 383 320
Width: 600
GlyphClass: 2
Flags: W
AnchorPoint: "Anchor-3" 410 765 basechar 0
AnchorPoint: "Anchor-0" 300 0 basechar 0
LayerCount: 2
Fore
SplineSet
221 0 m 1,0,-1
 221 577 l 2,1,2
 221 680 221 680 277 722.5 c 128,-1,3
 333 765 333 765 425 765 c 0,4,5
 463 765 463 765 495.5 759.5 c 128,-1,6
 528 754 528 754 548 746 c 1,7,-1
 525 677 l 1,8,9
 509 682 509 682 480.5 687 c 128,-1,10
 452 692 452 692 424 692 c 0,11,12
 369 692 369 692 339 664 c 128,-1,13
 309 636 309 636 309 562 c 2,14,-1
 309 0 l 1,15,-1
 221 0 l 1,0,-1
EndSplineSet
EndChar

StartChar: florin
Encoding: 402 402 321
Width: 600
GlyphClass: 2
Flags: W
AnchorPoint: "Anchor-3" 378 724 basechar 0
AnchorPoint: "Anchor-0" 275 -240 basechar 0
LayerCount: 2
Fore
SplineSet
178 -240 m 0,0,1
 157 -240 157 -240 135.5 -237.5 c 128,-1,2
 114 -235 114 -235 100 -231 c 1,3,-1
 100 -158 l 1,4,5
 115 -162 115 -162 134.5 -164.5 c 128,-1,6
 154 -167 154 -167 173 -167 c 0,7,8
 208 -167 208 -167 223 -145 c 128,-1,9
 238 -123 238 -123 238 -64 c 2,10,-1
 238 406 l 1,11,-1
 116 406 l 1,12,-1
 116 447 l 1,13,-1
 238 477 l 1,14,-1
 238 542 l 2,15,16
 238 646 238 646 283.5 685 c 128,-1,17
 329 724 329 724 410 724 c 0,18,19
 450 724 450 724 480.5 717 c 128,-1,20
 511 710 511 710 530 703 c 1,21,-1
 508 635 l 1,22,23
 492 640 492 640 467 645.5 c 128,-1,24
 442 651 442 651 415 651 c 0,25,26
 370 651 370 651 348 627.5 c 128,-1,27
 326 604 326 604 326 543 c 2,28,-1
 326 473 l 1,29,-1
 471 473 l 1,30,-1
 471 406 l 1,31,-1
 328 406 l 1,32,-1
 328 -64 l 2,33,34
 328 -162 328 -162 289.5 -201 c 128,-1,35
 251 -240 251 -240 178 -240 c 0,0,1
EndSplineSet
EndChar

StartChar: circumflex
Encoding: 710 710 330
Width: 600
GlyphClass: 1
Flags: W
LayerCount: 2
Fore
SplineSet
131 606 m 1,0,-1
 131 617 l 1,1,2
 150 636 150 636 173.5 662.5 c 128,-1,3
 197 689 197 689 219 716.5 c 128,-1,4
 241 744 241 744 254 766 c 1,5,-1
 344 766 l 1,6,7
 356 744 356 744 378.5 716.5 c 128,-1,8
 401 689 401 689 425.5 662.5 c 128,-1,9
 450 636 450 636 469 617 c 1,10,-1
 469 606 l 1,11,-1
 407 606 l 1,12,13
 381 622 381 622 353 649 c 128,-1,14
 325 676 325 676 298 703 c 1,15,16
 271 676 271 676 244 649 c 128,-1,17
 217 622 217 622 191 606 c 1,18,-1
 131 606 l 1,0,-1
EndSplineSet
EndChar

StartChar: caron
Encoding: 711 711 331
Width: 600
GlyphClass: 2
Flags: W
AnchorPoint: "Anchor-13" 299 763 basemark 0
AnchorPoint: "Anchor-13" 299 528 mark 0
AnchorPoint: "Anchor-8" 299 528 mark 0
AnchorPoint: "Anchor-3" 299 528 mark 0
LayerCount: 2
Fore
SplineSet
254 606 m 1,0,1
 241 628 241 628 219 655 c 128,-1,2
 197 682 197 682 173 708 c 128,-1,3
 149 734 149 734 131 753 c 1,4,-1
 131 766 l 1,5,-1
 191 766 l 1,6,7
 217 749 217 749 245 725 c 128,-1,8
 273 701 273 701 298 674 c 1,9,10
 325 701 325 701 353 725 c 128,-1,11
 381 749 381 749 407 766 c 1,12,-1
 469 766 l 1,13,-1
 469 753 l 1,14,15
 450 734 450 734 425.5 708 c 128,-1,16
 401 682 401 682 378.5 655 c 128,-1,17
 356 628 356 628 344 606 c 1,18,-1
 254 606 l 1,0,1
EndSplineSet
EndChar

StartChar: breve
Encoding: 728 728 333
Width: 600
GlyphClass: 2
Flags: W
AnchorPoint: "Anchor-13" 300 765 basemark 0
AnchorPoint: "Anchor-13" 300 536 mark 0
AnchorPoint: "Anchor-8" 300 536 mark 0
AnchorPoint: "Anchor-3" 300 536 mark 0
LayerCount: 2
Fore
SplineSet
297 606 m 0,0,1
 226 606 226 606 186.5 644 c 128,-1,2
 147 682 147 682 145 740 c 1,3,-1
 203 740 l 1,4,5
 210 710 210 710 225.5 695 c 128,-1,6
 241 680 241 680 261 674.5 c 128,-1,7
 281 669 281 669 300 669 c 0,8,9
 331 669 331 669 359.5 682.5 c 128,-1,10
 388 696 388 696 397 740 c 1,11,-1
 456 740 l 1,12,13
 454 682 454 682 413 644 c 128,-1,14
 372 606 372 606 297 606 c 0,0,1
EndSplineSet
EndChar

StartChar: dotaccent
Encoding: 729 729 334
Width: 600
GlyphClass: 1
Flags: W
LayerCount: 2
Fore
SplineSet
300 633 m 256,0,1
 274 633 274 633 255.5 648.5 c 128,-1,2
 237 664 237 664 237 696 c 0,3,4
 237 729 237 729 255.5 744.5 c 128,-1,5
 274 760 274 760 300 760 c 256,6,7
 326 760 326 760 344.5 744.5 c 128,-1,8
 363 729 363 729 363 696 c 0,9,10
 363 664 363 664 344.5 648.5 c 128,-1,11
 326 633 326 633 300 633 c 256,0,1
EndSplineSet
EndChar

StartChar: ring
Encoding: 730 730 335
Width: 600
GlyphClass: 1
Flags: W
LayerCount: 2
Fore
SplineSet
299 606 m 0,0,1
 250 606 250 606 220 634 c 128,-1,2
 190 662 190 662 190 712 c 256,3,4
 190 762 190 762 220 789.5 c 128,-1,5
 250 817 250 817 299 817 c 0,6,7
 346 817 346 817 378 789.5 c 128,-1,8
 410 762 410 762 410 713 c 0,9,10
 410 662 410 662 378.5 634 c 128,-1,11
 347 606 347 606 299 606 c 0,0,1
299 658 m 0,12,13
 323 658 323 658 338 672 c 128,-1,14
 353 686 353 686 353 712 c 256,15,16
 353 738 353 738 337.5 752 c 128,-1,17
 322 766 322 766 299 766 c 256,18,19
 276 766 276 766 261 752 c 128,-1,20
 246 738 246 738 246 712 c 256,21,22
 246 686 246 686 261 672 c 128,-1,23
 276 658 276 658 299 658 c 0,12,13
EndSplineSet
EndChar

StartChar: ogonek
Encoding: 731 731 336
Width: 600
GlyphClass: 1
Flags: W
LayerCount: 2
Fore
SplineSet
325 -220 m 0,0,1
 271 -220 271 -220 246 -195 c 128,-1,2
 221 -170 221 -170 221 -131 c 0,3,4
 221 -98 221 -98 235.5 -70.5 c 128,-1,5
 250 -43 250 -43 271.5 -21.5 c 128,-1,6
 293 0 293 0 313 15 c 1,7,-1
 361 0 l 1,8,9
 328 -32 328 -32 310.5 -58.5 c 128,-1,10
 293 -85 293 -85 293 -115 c 0,11,12
 293 -140 293 -140 305.5 -150.5 c 128,-1,13
 318 -161 318 -161 344 -161 c 0,14,15
 354 -161 354 -161 366 -159.5 c 128,-1,16
 378 -158 378 -158 386 -155 c 1,17,-1
 386 -211 l 1,18,19
 372 -215 372 -215 357.5 -217.5 c 128,-1,20
 343 -220 343 -220 325 -220 c 0,0,1
EndSplineSet
EndChar

StartChar: tilde
Encoding: 732 732 337
Width: 600
GlyphClass: 1
Flags: W
LayerCount: 2
Fore
SplineSet
120 606 m 1,0,1
 126 665 126 665 154.5 699.5 c 128,-1,2
 183 734 183 734 230 734 c 0,3,4
 258 734 258 734 283 719.5 c 128,-1,5
 308 705 308 705 331 691 c 128,-1,6
 354 677 354 677 375 677 c 0,7,8
 398 677 398 677 410 691.5 c 128,-1,9
 422 706 422 706 430 735 c 1,10,-1
 480 735 l 1,11,12
 474 676 474 676 446 641.5 c 128,-1,13
 418 607 418 607 371 607 c 0,14,15
 343 607 343 607 318.5 621 c 128,-1,16
 294 635 294 635 271 649.5 c 128,-1,17
 248 664 248 664 226 664 c 0,18,19
 202 664 202 664 190 649.5 c 128,-1,20
 178 635 178 635 171 606 c 1,21,-1
 120 606 l 1,0,1
EndSplineSet
EndChar

StartChar: hungarumlaut
Encoding: 733 733 338
Width: 600
GlyphClass: 1
Flags: W
LayerCount: 2
Fore
SplineSet
331 606 m 1,0,-1
 331 618 l 1,1,2
 345 637 345 637 361 663 c 128,-1,3
 377 689 377 689 392.5 716.5 c 128,-1,4
 408 744 408 744 418 766 c 1,5,-1
 514 766 l 1,6,-1
 514 756 l 1,7,8
 504 738 504 738 481 709.5 c 128,-1,9
 458 681 458 681 431 652.5 c 128,-1,10
 404 624 404 624 381 606 c 1,11,-1
 331 606 l 1,0,-1
155 606 m 1,12,-1
 155 618 l 1,13,14
 176 646 176 646 201 689 c 128,-1,15
 226 732 226 732 242 766 c 1,16,-1
 338 766 l 1,17,-1
 338 756 l 1,18,19
 328 738 328 738 305 709.5 c 128,-1,20
 282 681 282 681 255 652.5 c 128,-1,21
 228 624 228 624 205 606 c 1,22,-1
 155 606 l 1,12,-1
EndSplineSet
EndChar

StartChar: tonos
Encoding: 900 900 339
Width: 600
GlyphClass: 2
Flags: W
AnchorPoint: "Anchor-13" 305 760 basemark 0
AnchorPoint: "Anchor-13" 300 536 mark 0
AnchorPoint: "Anchor-8" 300 536 mark 0
AnchorPoint: "Anchor-3" 300 536 mark 0
LayerCount: 2
Fore
SplineSet
270 606 m 1,0,-1
 270 620 l 1,1,2
 277 644 277 644 284 677 c 128,-1,3
 291 710 291 710 296.5 744 c 128,-1,4
 302 778 302 778 305 805 c 1,5,-1
 399 805 l 1,6,-1
 399 794 l 1,7,8
 394 772 394 772 382 738.5 c 128,-1,9
 370 705 370 705 354 669.5 c 128,-1,10
 338 634 338 634 323 606 c 1,11,-1
 270 606 l 1,0,-1
EndSplineSet
EndChar

StartChar: dieresistonos
Encoding: 901 901 340
Width: 600
GlyphClass: 2
Flags: W
AnchorPoint: "Anchor-13" 301 838 basemark 0
AnchorPoint: "Anchor-13" 300 536 mark 0
AnchorPoint: "Anchor-8" 300 536 mark 0
AnchorPoint: "Anchor-3" 300 536 mark 0
LayerCount: 2
Fore
SplineSet
267 678 m 1,0,-1
 267 690 l 1,1,2
 278 720 278 720 291 762 c 128,-1,3
 304 804 304 804 312 838 c 1,4,-1
 408 838 l 1,5,-1
 408 828 l 1,6,7
 392 796 392 796 365 754.5 c 128,-1,8
 338 713 338 713 309 678 c 1,9,-1
 267 678 l 1,0,-1
190 631 m 0,10,11
 170 631 170 631 157 643.5 c 128,-1,12
 144 656 144 656 144 681 c 0,13,14
 144 707 144 707 157 718.5 c 128,-1,15
 170 730 170 730 190 730 c 0,16,17
 209 730 209 730 222.5 718.5 c 128,-1,18
 236 707 236 707 236 681 c 0,19,20
 236 656 236 656 222.5 643.5 c 128,-1,21
 209 631 209 631 190 631 c 0,10,11
409 631 m 0,22,23
 389 631 389 631 376 643.5 c 128,-1,24
 363 656 363 656 363 681 c 0,25,26
 363 707 363 707 376 718.5 c 128,-1,27
 389 730 389 730 409 730 c 0,28,29
 427 730 427 730 441 718.5 c 128,-1,30
 455 707 455 707 455 681 c 0,31,32
 455 656 455 656 441 643.5 c 128,-1,33
 427 631 427 631 409 631 c 0,22,23
EndSplineSet
EndChar

StartChar: Epsilontonos
Encoding: 904 904 343
Width: 600
GlyphClass: 2
Flags: W
AnchorPoint: "Anchor-3" 332 714 basechar 0
AnchorPoint: "Anchor-0" 341 0 basechar 0
LayerCount: 2
Fore
SplineSet
-42 606 m 1,0,-1
 -42 620 l 1,1,2
 -35 644 -35 644 -28 677 c 128,-1,3
 -21 710 -21 710 -15.5 744 c 128,-1,4
 -10 778 -10 778 -7 805 c 1,5,-1
 87 805 l 1,6,-1
 87 794 l 1,7,8
 82 772 82 772 70 738.5 c 128,-1,9
 58 705 58 705 42 669.5 c 128,-1,10
 26 634 26 634 11 606 c 1,11,-1
 -42 606 l 1,0,-1
124 0 m 1,12,-1
 124 714 l 1,13,-1
 515 714 l 1,14,-1
 515 634 l 1,15,-1
 214 634 l 1,16,-1
 214 413 l 1,17,-1
 496 413 l 1,18,-1
 496 333 l 1,19,-1
 214 333 l 1,20,-1
 214 80 l 1,21,-1
 515 80 l 1,22,-1
 515 0 l 1,23,-1
 124 0 l 1,12,-1
EndSplineSet
EndChar

StartChar: Etatonos
Encoding: 905 905 344
Width: 600
GlyphClass: 2
Flags: W
AnchorPoint: "Anchor-3" 324 714 basechar 0
AnchorPoint: "Anchor-1" 324 377 basechar 0
AnchorPoint: "Anchor-0" 324 0 basechar 0
LayerCount: 2
Fore
SplineSet
-26 606 m 1,0,-1
 -26 620 l 1,1,2
 -19 644 -19 644 -12 677 c 128,-1,3
 -5 710 -5 710 0.5 744 c 128,-1,4
 6 778 6 778 9 805 c 1,5,-1
 103 805 l 1,6,-1
 103 794 l 1,7,8
 98 772 98 772 86 738.5 c 128,-1,9
 74 705 74 705 58 669.5 c 128,-1,10
 42 634 42 634 27 606 c 1,11,-1
 -26 606 l 1,0,-1
111 0 m 1,12,-1
 111 714 l 1,13,-1
 201 714 l 1,14,-1
 201 413 l 1,15,-1
 440 413 l 1,16,-1
 440 714 l 1,17,-1
 530 714 l 1,18,-1
 530 0 l 1,19,-1
 440 0 l 1,20,-1
 440 333 l 1,21,-1
 201 333 l 1,22,-1
 201 0 l 1,23,-1
 111 0 l 1,12,-1
EndSplineSet
EndChar

StartChar: Upsilontonos
Encoding: 910 910 347
Width: 600
GlyphClass: 2
Flags: W
AnchorPoint: "Anchor-3" 360 714 basechar 0
AnchorPoint: "Anchor-0" 360 0 basechar 0
LayerCount: 2
Fore
SplineSet
-8 606 m 1,0,-1
 -8 620 l 1,1,2
 -1 644 -1 644 6 677 c 128,-1,3
 13 710 13 710 18.5 744 c 128,-1,4
 24 778 24 778 27 805 c 1,5,-1
 121 805 l 1,6,-1
 121 794 l 1,7,8
 116 772 116 772 104 738.5 c 128,-1,9
 92 705 92 705 76 669.5 c 128,-1,10
 60 634 60 634 45 606 c 1,11,-1
 -8 606 l 1,0,-1
317 0 m 1,12,-1
 317 278 l 1,13,-1
 135 714 l 1,14,-1
 234 714 l 1,15,-1
 361 363 l 1,16,-1
 489 714 l 1,17,-1
 585 714 l 1,18,-1
 403 278 l 1,19,-1
 403 0 l 1,20,-1
 317 0 l 1,12,-1
EndSplineSet
EndChar

StartChar: Gamma
Encoding: 915 915 352
Width: 600
GlyphClass: 2
Flags: W
AnchorPoint: "Anchor-3" 340 714 basechar 0
AnchorPoint: "Anchor-0" 340 0 basechar 0
LayerCount: 2
Fore
SplineSet
115 0 m 1,0,-1
 115 714 l 1,1,-1
 515 714 l 1,2,-1
 515 634 l 1,3,-1
 205 634 l 1,4,-1
 205 0 l 1,5,-1
 115 0 l 1,0,-1
EndSplineSet
EndChar

StartChar: uni0394
Encoding: 916 916 353
Width: 600
GlyphClass: 2
Flags: W
AnchorPoint: "Anchor-3" 300 714 basechar 0
AnchorPoint: "Anchor-0" 300 0 basechar 0
LayerCount: 2
Fore
SplineSet
20 0 m 1,0,-1
 20 55 l 1,1,-1
 254 714 l 1,2,-1
 344 714 l 1,3,-1
 580 54 l 1,4,-1
 580 0 l 1,5,-1
 20 0 l 1,0,-1
116 79 m 1,6,-1
 481 79 l 1,7,-1
 353 451 l 2,8,9
 337 496 337 496 322.5 538 c 128,-1,10
 308 580 308 580 298 616 c 1,11,12
 289 580 289 580 276 538.5 c 128,-1,13
 263 497 263 497 248 455 c 2,14,-1
 116 79 l 1,6,-1
EndSplineSet
EndChar

StartChar: Theta
Encoding: 920 920 357
Width: 600
GlyphClass: 2
Flags: W
AnchorPoint: "Anchor-4" 600 714 basechar 0
AnchorPoint: "Anchor-3" 300 714 basechar 0
AnchorPoint: "Anchor-2" 299 10 basechar 0
AnchorPoint: "Anchor-1" 300 357 basechar 0
AnchorPoint: "Anchor-0" 300 0 basechar 0
LayerCount: 2
Fore
SplineSet
299 -10 m 256,0,1
 210 -10 210 -10 154 36 c 128,-1,2
 98 82 98 82 71.5 165 c 128,-1,3
 45 248 45 248 45 357 c 256,4,5
 45 466 45 466 71.5 549.5 c 128,-1,6
 98 633 98 633 154.5 679.5 c 128,-1,7
 211 726 211 726 300 726 c 256,8,9
 389 726 389 726 445.5 680 c 128,-1,10
 502 634 502 634 528.5 551.5 c 128,-1,11
 555 469 555 469 555 359 c 0,12,13
 555 248 555 248 528 165 c 128,-1,14
 501 82 501 82 444.5 36 c 128,-1,15
 388 -10 388 -10 299 -10 c 256,0,1
301 70 m 256,16,17
 391 70 391 70 427 146.5 c 128,-1,18
 463 223 463 223 463 358 c 0,19,20
 463 494 463 494 427 570 c 128,-1,21
 391 646 391 646 302 646 c 0,22,23
 211 646 211 646 174 569 c 128,-1,24
 137 492 137 492 137 358 c 0,25,26
 137 223 137 223 174 146.5 c 128,-1,27
 211 70 211 70 301 70 c 256,16,17
199 324 m 1,28,-1
 199 402 l 1,29,-1
 401 402 l 1,30,-1
 401 324 l 1,31,-1
 199 324 l 1,28,-1
EndSplineSet
EndChar

StartChar: Lambda
Encoding: 923 923 360
Width: 600
GlyphClass: 2
Flags: W
AnchorPoint: "Anchor-3" 300 714 basechar 0
AnchorPoint: "Anchor-0" 300 0 basechar 0
LayerCount: 2
Fore
SplineSet
20 0 m 1,0,-1
 252 714 l 1,1,-1
 346 714 l 1,2,-1
 580 0 l 1,3,-1
 485 0 l 1,4,-1
 347 450 l 2,5,6
 333 497 333 497 320 538.5 c 128,-1,7
 307 580 307 580 298 616 c 1,8,9
 290 580 290 580 278.5 538.5 c 128,-1,10
 267 497 267 497 253 451 c 2,11,-1
 115 0 l 1,12,-1
 20 0 l 1,0,-1
EndSplineSet
EndChar

StartChar: Xi
Encoding: 926 926 363
Width: 600
GlyphClass: 2
Flags: W
AnchorPoint: "Anchor-3" 300 714 basechar 0
AnchorPoint: "Anchor-0" 300 0 basechar 0
LayerCount: 2
Fore
SplineSet
90 635 m 1,0,-1
 90 714 l 1,1,-1
 510 714 l 1,2,-1
 510 635 l 1,3,-1
 90 635 l 1,0,-1
120 334 m 1,4,-1
 120 412 l 1,5,-1
 480 412 l 1,6,-1
 480 334 l 1,7,-1
 120 334 l 1,4,-1
70 0 m 1,8,-1
 70 79 l 1,9,-1
 530 79 l 1,10,-1
 530 0 l 1,11,-1
 70 0 l 1,8,-1
EndSplineSet
EndChar

StartChar: Pi
Encoding: 928 928 365
Width: 600
GlyphClass: 2
Flags: W
AnchorPoint: "Anchor-3" 300 714 basechar 0
AnchorPoint: "Anchor-0" 300 0 basechar 0
LayerCount: 2
Fore
SplineSet
70 0 m 1,0,-1
 70 714 l 1,1,-1
 530 714 l 1,2,-1
 530 0 l 1,3,-1
 441 0 l 1,4,-1
 441 635 l 1,5,-1
 160 635 l 1,6,-1
 160 0 l 1,7,-1
 70 0 l 1,0,-1
EndSplineSet
EndChar

StartChar: Sigma
Encoding: 931 931 367
Width: 600
GlyphClass: 2
Flags: W
AnchorPoint: "Anchor-3" 300 714 basechar 0
AnchorPoint: "Anchor-0" 300 0 basechar 0
LayerCount: 2
Fore
SplineSet
95 0 m 1,0,-1
 95 74 l 1,1,-1
 299 373 l 1,2,-1
 101 639 l 1,3,-1
 101 714 l 1,4,-1
 476 714 l 1,5,-1
 476 634 l 1,6,-1
 271 634 l 2,7,8
 258 634 258 634 235.5 634 c 128,-1,9
 213 634 213 634 204 635 c 1,10,-1
 399 374 l 1,11,-1
 194 78 l 1,12,13
 220 78 220 78 245 78.5 c 128,-1,14
 270 79 270 79 297 79 c 2,15,-1
 505 79 l 1,16,-1
 505 0 l 1,17,-1
 95 0 l 1,0,-1
EndSplineSet
EndChar

StartChar: Phi
Encoding: 934 934 370
Width: 600
GlyphClass: 2
Flags: W
AnchorPoint: "Anchor-3" 300 714 basechar 0
AnchorPoint: "Anchor-0" 300 0 basechar 0
LayerCount: 2
Fore
SplineSet
259 -10 m 1,0,-1
 259 100 l 1,1,2
 192 100 192 100 142.5 134 c 128,-1,3
 93 168 93 168 66.5 228.5 c 128,-1,4
 40 289 40 289 40 369 c 0,5,6
 40 444 40 444 64.5 504.5 c 128,-1,7
 89 565 89 565 137.5 600.5 c 128,-1,8
 186 636 186 636 259 636 c 1,9,-1
 259 724 l 1,10,-1
 341 724 l 1,11,-1
 341 636 l 1,12,13
 414 636 414 636 462.5 602 c 128,-1,14
 511 568 511 568 535.5 508 c 128,-1,15
 560 448 560 448 560 370 c 256,16,17
 560 292 560 292 535 231 c 128,-1,18
 510 170 510 170 461.5 135 c 128,-1,19
 413 100 413 100 341 100 c 1,20,-1
 341 -10 l 1,21,-1
 259 -10 l 1,0,-1
259 173 m 1,22,-1
 259 563 l 1,23,24
 192 563 192 563 158.5 513.5 c 128,-1,25
 125 464 125 464 125 370 c 0,26,27
 125 274 125 274 159 223.5 c 128,-1,28
 193 173 193 173 259 173 c 1,22,-1
341 173 m 1,29,30
 406 173 406 173 441 224.5 c 128,-1,31
 476 276 476 276 476 373 c 0,32,33
 476 563 476 563 341 563 c 1,34,-1
 341 173 l 1,29,30
EndSplineSet
EndChar

StartChar: Psi
Encoding: 936 936 372
Width: 600
GlyphClass: 2
Flags: W
AnchorPoint: "Anchor-3" 300 714 basechar 0
AnchorPoint: "Anchor-0" 300 0 basechar 0
LayerCount: 2
Fore
SplineSet
259 0 m 1,0,-1
 259 213 l 1,1,2
 176 213 176 213 128 243.5 c 128,-1,3
 80 274 80 274 60 332 c 128,-1,4
 40 390 40 390 40 473 c 2,5,-1
 40 714 l 1,6,-1
 124 714 l 1,7,-1
 124 479 l 2,8,9
 124 423 124 423 133 380 c 128,-1,10
 142 337 142 337 171 312.5 c 128,-1,11
 200 288 200 288 259 288 c 1,12,-1
 259 714 l 1,13,-1
 341 714 l 1,14,-1
 341 288 l 1,15,16
 415 289 415 289 445.5 332 c 128,-1,17
 476 375 476 375 476 479 c 2,18,-1
 476 714 l 1,19,-1
 560 714 l 1,20,-1
 560 461 l 2,21,22
 560 386 560 386 539 330 c 128,-1,23
 518 274 518 274 470 243.5 c 128,-1,24
 422 213 422 213 341 213 c 1,25,-1
 341 0 l 1,26,-1
 259 0 l 1,0,-1
EndSplineSet
EndChar

StartChar: uni03A9
Encoding: 937 937 373
Width: 600
GlyphClass: 2
Flags: W
AnchorPoint: "Anchor-3" 299 714 basechar 0
AnchorPoint: "Anchor-0" 300 0 basechar 0
LayerCount: 2
Fore
SplineSet
20 0 m 1,0,-1
 20 76 l 1,1,-1
 154 76 l 1,2,3
 110 120 110 120 79.5 207 c 128,-1,4
 49 294 49 294 49 404 c 0,5,6
 49 558 49 558 114.5 641 c 128,-1,7
 180 724 180 724 301 724 c 256,8,9
 422 724 422 724 486 640 c 128,-1,10
 550 556 550 556 550 404 c 0,11,12
 550 292 550 292 519 205.5 c 128,-1,13
 488 119 488 119 445 76 c 1,14,-1
 580 76 l 1,15,-1
 580 0 l 1,16,-1
 351 0 l 1,17,-1
 351 67 l 1,18,19
 411 123 411 123 435 202.5 c 128,-1,20
 459 282 459 282 459 380 c 0,21,22
 459 511 459 511 421.5 579.5 c 128,-1,23
 384 648 384 648 302 648 c 0,24,25
 222 648 222 648 181.5 583 c 128,-1,26
 141 518 141 518 141 383 c 0,27,28
 141 281 141 281 167 201.5 c 128,-1,29
 193 122 193 122 249 67 c 1,30,-1
 249 0 l 1,31,-1
 20 0 l 1,0,-1
EndSplineSet
EndChar

StartChar: alpha
Encoding: 945 945 381
Width: 600
GlyphClass: 2
Flags: W
AnchorPoint: "Anchor-3" 300 536 basechar 0
AnchorPoint: "Anchor-0" 290 0 basechar 0
LayerCount: 2
Fore
SplineSet
258 -10 m 0,0,1
 165 -10 165 -10 110 59.5 c 128,-1,2
 55 129 55 129 55 267 c 0,3,4
 55 402 55 402 109.5 474 c 128,-1,5
 164 546 164 546 265 546 c 0,6,7
 318 546 318 546 354.5 525 c 128,-1,8
 391 504 391 504 417 464 c 1,9,-1
 423 464 l 1,10,11
 428 481 428 481 436 501 c 128,-1,12
 444 521 444 521 455 536 c 1,13,-1
 524 536 l 1,14,15
 516 514 516 514 510.5 478 c 128,-1,16
 505 442 505 442 502 402 c 128,-1,17
 499 362 499 362 499 326 c 2,18,-1
 499 118 l 2,19,20
 499 87 499 87 511 74.5 c 128,-1,21
 523 62 523 62 540 62 c 0,22,23
 548 62 548 62 557 64 c 128,-1,24
 566 66 566 66 570 67 c 1,25,-1
 570 3 l 1,26,27
 562 -2 562 -2 546 -6 c 128,-1,28
 530 -10 530 -10 511 -10 c 0,29,30
 480 -10 480 -10 455 7 c 128,-1,31
 430 24 430 24 419 72 c 1,32,-1
 412 72 l 1,33,34
 392 42 392 42 356.5 16 c 128,-1,35
 321 -10 321 -10 258 -10 c 0,0,1
278 63 m 0,36,37
 347 63 347 63 379.5 113 c 128,-1,38
 412 163 412 163 412 261 c 2,39,-1
 412 267 l 2,40,41
 412 362 412 362 381.5 417 c 128,-1,42
 351 472 351 472 277 472 c 0,43,44
 208 472 208 472 177 421 c 128,-1,45
 146 370 146 370 146 269 c 0,46,47
 146 159 146 159 180 111 c 128,-1,48
 214 63 214 63 278 63 c 0,36,37
EndSplineSet
EndChar

StartChar: beta
Encoding: 946 946 382
Width: 600
GlyphClass: 2
Flags: W
AnchorPoint: "Anchor-4" 580 765 basechar 0
AnchorPoint: "Anchor-3" 297 765 basechar 0
AnchorPoint: "Anchor-0" 336 0 basechar 0
LayerCount: 2
Fore
SplineSet
80 -240 m 1,0,-1
 80 535 l 2,1,2
 80 616 80 616 108.5 666.5 c 128,-1,3
 137 717 137 717 186.5 741 c 128,-1,4
 236 765 236 765 299 765 c 0,5,6
 366 765 366 765 418 743.5 c 128,-1,7
 470 722 470 722 499.5 680 c 128,-1,8
 529 638 529 638 529 574 c 0,9,10
 529 502 529 502 489.5 460 c 128,-1,11
 450 418 450 418 377 406 c 1,12,-1
 377 402 l 1,13,14
 468 392 468 392 514.5 343 c 128,-1,15
 561 294 561 294 561 203 c 0,16,17
 561 100 561 100 498 45 c 128,-1,18
 435 -10 435 -10 328 -10 c 0,19,20
 273 -10 273 -10 233.5 2 c 128,-1,21
 194 14 194 14 168 28 c 1,22,-1
 168 -240 l 1,23,-1
 80 -240 l 1,0,-1
318 62 m 0,24,25
 402 62 402 62 437.5 100 c 128,-1,26
 473 138 473 138 473 209 c 0,27,28
 473 288 473 288 425 324.5 c 128,-1,29
 377 361 377 361 299 361 c 2,30,-1
 246 361 l 1,31,-1
 246 435 l 1,32,-1
 289 435 l 2,33,34
 367 435 367 435 403 472 c 128,-1,35
 439 509 439 509 439 570 c 0,36,37
 439 632 439 632 400.5 662 c 128,-1,38
 362 692 362 692 297 692 c 0,39,40
 262 692 262 692 233 678 c 128,-1,41
 204 664 204 664 186 629 c 128,-1,42
 168 594 168 594 168 531 c 2,43,-1
 168 105 l 1,44,45
 193 88 193 88 230.5 75 c 128,-1,46
 268 62 268 62 318 62 c 0,24,25
EndSplineSet
EndChar

StartChar: gamma
Encoding: 947 947 383
Width: 600
GlyphClass: 2
Flags: W
AnchorPoint: "Anchor-4" 580 536 basechar 0
AnchorPoint: "Anchor-3" 309 536 basechar 0
AnchorPoint: "Anchor-0" 307 -240 basechar 0
LayerCount: 2
Fore
SplineSet
211 -240 m 1,0,1
 211 -212 211 -212 217.5 -170 c 128,-1,2
 224 -128 224 -128 235.5 -81.5 c 128,-1,3
 247 -35 247 -35 262 6 c 1,4,-1
 45 536 l 1,5,-1
 136 536 l 1,6,-1
 249 255 l 2,7,8
 260 229 260 229 271 197 c 128,-1,9
 282 165 282 165 291 135.5 c 128,-1,10
 300 106 300 106 303 89 c 1,11,-1
 307 89 l 1,12,13
 310 105 310 105 318.5 135 c 128,-1,14
 327 165 327 165 337.5 197 c 128,-1,15
 348 229 348 229 356 251 c 2,16,-1
 463 536 l 1,17,-1
 554 536 l 1,18,-1
 355 13 l 2,19,20
 340 -28 340 -28 329 -73.5 c 128,-1,21
 318 -119 318 -119 312 -162.5 c 128,-1,22
 306 -206 306 -206 306 -240 c 1,23,-1
 211 -240 l 1,0,1
EndSplineSet
EndChar

StartChar: delta
Encoding: 948 948 384
Width: 600
GlyphClass: 2
Flags: W
AnchorPoint: "Anchor-3" 337 760 basechar 0
AnchorPoint: "Anchor-0" 306 0 basechar 0
LayerCount: 2
Fore
SplineSet
299 -10 m 0,0,1
 228 -10 228 -10 172.5 16.5 c 128,-1,2
 117 43 117 43 86 92.5 c 128,-1,3
 55 142 55 142 55 212 c 0,4,5
 55 277 55 277 81.5 325 c 128,-1,6
 108 373 108 373 155 405.5 c 128,-1,7
 202 438 202 438 261 456 c 1,8,9
 205 488 205 488 171 526 c 128,-1,10
 137 564 137 564 137 620 c 0,11,12
 137 689 137 689 188 724.5 c 128,-1,13
 239 760 239 760 321 760 c 0,14,15
 384 760 384 760 434.5 743 c 128,-1,16
 485 726 485 726 523 706 c 1,17,-1
 485 637 l 1,18,19
 452 656 452 656 409 672 c 128,-1,20
 366 688 366 688 319 688 c 0,21,22
 267 688 267 688 246.5 667 c 128,-1,23
 226 646 226 646 226 618 c 0,24,25
 226 589 226 589 243.5 568.5 c 128,-1,26
 261 548 261 548 291.5 529.5 c 128,-1,27
 322 511 322 511 360 489 c 0,28,29
 417 456 417 456 458.5 421.5 c 128,-1,30
 500 387 500 387 522.5 342.5 c 128,-1,31
 545 298 545 298 545 232 c 0,32,33
 545 116 545 116 477.5 53 c 128,-1,34
 410 -10 410 -10 299 -10 c 0,0,1
299 63 m 0,35,36
 373 63 373 63 413.5 107.5 c 128,-1,37
 454 152 454 152 454 231 c 0,38,39
 454 304 454 304 421 345.5 c 128,-1,40
 388 387 388 387 331 418 c 1,41,42
 289 408 289 408 246.5 385 c 128,-1,43
 204 362 204 362 175.5 321 c 128,-1,44
 147 280 147 280 147 217 c 0,45,46
 147 146 147 146 187 104.5 c 128,-1,47
 227 63 227 63 299 63 c 0,35,36
EndSplineSet
EndChar

StartChar: epsilon
Encoding: 949 949 385
Width: 600
GlyphClass: 2
Flags: W
AnchorPoint: "Anchor-3" 300 536 basechar 0
AnchorPoint: "Anchor-0" 326 0 basechar 0
LayerCount: 2
Fore
SplineSet
327 -10 m 0,0,1
 212 -10 212 -10 157 34.5 c 128,-1,2
 102 79 102 79 102 146 c 0,3,4
 102 186 102 186 118.5 211.5 c 128,-1,5
 135 237 135 237 162 252.5 c 128,-1,6
 189 268 189 268 221 277 c 1,7,-1
 221 282 l 1,8,9
 176 296 176 296 148.5 325.5 c 128,-1,10
 121 355 121 355 121 404 c 0,11,12
 121 472 121 472 178.5 509 c 128,-1,13
 236 546 236 546 327 546 c 0,14,15
 385 546 385 546 426.5 536 c 128,-1,16
 468 526 468 526 508 508 c 1,17,-1
 475 438 l 1,18,19
 442 453 442 453 407 463 c 128,-1,20
 372 473 372 473 326 473 c 0,21,22
 205 473 205 473 205 397 c 0,23,24
 205 353 205 353 246.5 334 c 128,-1,25
 288 315 288 315 358 315 c 2,26,-1
 414 315 l 1,27,-1
 414 243 l 1,28,-1
 341 243 l 2,29,30
 190 243 190 243 190 151 c 0,31,32
 190 102 190 102 231 82 c 128,-1,33
 272 62 272 62 332 62 c 0,34,35
 388 62 388 62 430.5 75 c 128,-1,36
 473 88 473 88 506 104 c 1,37,-1
 506 27 l 1,38,39
 475 10 475 10 431.5 0 c 128,-1,40
 388 -10 388 -10 327 -10 c 0,0,1
EndSplineSet
EndChar

StartChar: zeta
Encoding: 950 950 386
Width: 600
GlyphClass: 2
Flags: W
AnchorPoint: "Anchor-3" 339 760 basechar 0
AnchorPoint: "Anchor-0" 337 -195 basechar 0
LayerCount: 2
Fore
SplineSet
371 -195 m 1,0,1
 395 -164 395 -164 414 -127 c 128,-1,2
 433 -90 433 -90 433 -63 c 0,3,4
 433 -49 433 -49 425 -37 c 128,-1,5
 417 -25 417 -25 391.5 -14.5 c 128,-1,6
 366 -4 366 -4 312 5 c 0,7,8
 217 22 217 22 168 73.5 c 128,-1,9
 119 125 119 125 119 224 c 0,10,11
 119 299 119 299 143 361.5 c 128,-1,12
 167 424 167 424 208.5 479 c 128,-1,13
 250 534 250 534 304 586 c 128,-1,14
 358 638 358 638 417 691 c 1,15,16
 400 690 400 690 360 688.5 c 128,-1,17
 320 687 320 687 269 687 c 2,18,-1
 149 687 l 1,19,-1
 149 760 l 1,20,-1
 521 760 l 1,21,-1
 521 694 l 1,22,23
 418 607 418 607 355.5 538.5 c 128,-1,24
 293 470 293 470 262 415 c 128,-1,25
 231 360 231 360 220.5 315 c 128,-1,26
 210 270 210 270 210 230 c 0,27,28
 210 173 210 173 230 143.5 c 128,-1,29
 250 114 250 114 288 99.5 c 128,-1,30
 326 85 326 85 380 74 c 0,31,32
 456 58 456 58 488.5 30.5 c 128,-1,33
 521 3 521 3 521 -40 c 0,34,35
 521 -84 521 -84 501.5 -124 c 128,-1,36
 482 -164 482 -164 458 -195 c 1,37,-1
 371 -195 l 1,0,1
EndSplineSet
EndChar

StartChar: eta
Encoding: 951 951 387
Width: 600
GlyphClass: 2
Flags: W
AnchorPoint: "Anchor-4" 580 536 basechar 0
AnchorPoint: "Anchor-3" 300 536 basechar 0
AnchorPoint: "Anchor-0" 298 -244 basechar 0
LayerCount: 2
Fore
SplineSet
80 0 m 1,0,-1
 80 536 l 1,1,-1
 152 536 l 1,2,-1
 165 457 l 1,3,-1
 170 457 l 1,4,5
 193 503 193 503 238.5 524.5 c 128,-1,6
 284 546 284 546 345 546 c 0,7,8
 426 546 426 546 475.5 500.5 c 128,-1,9
 525 455 525 455 525 358 c 2,10,-1
 525 -244 l 1,11,-1
 435 -244 l 1,12,-1
 435 342 l 2,13,14
 435 410 435 410 407.5 441.5 c 128,-1,15
 380 473 380 473 319 473 c 0,16,17
 237 473 237 473 203.5 421 c 128,-1,18
 170 369 170 369 170 275 c 2,19,-1
 170 0 l 1,20,-1
 80 0 l 1,0,-1
EndSplineSet
EndChar

StartChar: theta
Encoding: 952 952 388
Width: 600
GlyphClass: 2
Flags: W
AnchorPoint: "Anchor-4" 580 765 basechar 0
AnchorPoint: "Anchor-3" 301 765 basechar 0
AnchorPoint: "Anchor-0" 299 0 basechar 0
LayerCount: 2
Fore
SplineSet
298 -10 m 0,0,1
 174 -10 174 -10 115.5 93 c 128,-1,2
 57 196 57 196 57 377 c 0,3,4
 57 499 57 499 81 586 c 128,-1,5
 105 673 105 673 158.5 719 c 128,-1,6
 212 765 212 765 298 765 c 0,7,8
 422 765 422 765 482 663.5 c 128,-1,9
 542 562 542 562 542 377 c 0,10,11
 542 256 542 256 517.5 169.5 c 128,-1,12
 493 83 493 83 439.5 36.5 c 128,-1,13
 386 -10 386 -10 298 -10 c 0,0,1
146 424 m 1,14,-1
 452 424 l 1,15,16
 447 558 447 558 410.5 625.5 c 128,-1,17
 374 693 374 693 298 693 c 256,18,19
 222 693 222 693 186.5 625.5 c 128,-1,20
 151 558 151 558 146 424 c 1,14,-1
298 62 m 0,21,22
 376 62 376 62 413 134 c 128,-1,23
 450 206 450 206 453 351 c 1,24,-1
 146 351 l 1,25,26
 148 208 148 208 183 135 c 128,-1,27
 218 62 218 62 298 62 c 0,21,22
EndSplineSet
EndChar

StartChar: iota
Encoding: 953 953 389
Width: 600
GlyphClass: 2
Flags: W
AnchorPoint: "Anchor-3" 300 536 basechar 0
AnchorPoint: "Anchor-0" 393 0 basechar 0
LayerCount: 2
Fore
SplineSet
407 -10 m 0,0,1
 363 -10 363 -10 328.5 4.5 c 128,-1,2
 294 19 294 19 274.5 55.5 c 128,-1,3
 255 92 255 92 255 157 c 2,4,-1
 255 536 l 1,5,-1
 342 536 l 1,6,-1
 342 158 l 2,7,8
 342 110 342 110 360 86 c 128,-1,9
 378 62 378 62 419 62 c 0,10,11
 441 62 441 62 464.5 65.5 c 128,-1,12
 488 69 488 69 501 73 c 1,13,-1
 501 6 l 1,14,15
 487 -1 487 -1 460 -5.5 c 128,-1,16
 433 -10 433 -10 407 -10 c 0,0,1
EndSplineSet
EndChar

StartChar: lambda
Encoding: 955 955 391
Width: 600
GlyphClass: 2
Flags: W
AnchorPoint: "Anchor-3" 301 766 basechar 0
AnchorPoint: "Anchor-0" 299 0 basechar 0
LayerCount: 2
Fore
SplineSet
525 -10 m 0,0,1
 488 -10 488 -10 466.5 8.5 c 128,-1,2
 445 27 445 27 429 71 c 2,3,-1
 356 276 l 2,4,5
 348 300 348 300 337.5 329.5 c 128,-1,6
 327 359 327 359 318.5 387.5 c 128,-1,7
 310 416 310 416 306 435 c 1,8,-1
 302 435 l 1,9,10
 293 400 293 400 278.5 360 c 128,-1,11
 264 320 264 320 247 281 c 2,12,-1
 125 0 l 1,13,-1
 34 0 l 1,14,-1
 265 526 l 1,15,-1
 238 601 l 2,16,17
 222 644 222 644 203 668.5 c 128,-1,18
 184 693 184 693 141 693 c 0,19,20
 123 693 123 693 109.5 691 c 128,-1,21
 96 689 96 689 85 687 c 1,22,-1
 85 758 l 1,23,24
 98 761 98 761 115.5 763.5 c 128,-1,25
 133 766 133 766 151 766 c 0,26,27
 202 766 202 766 234 748 c 128,-1,28
 266 730 266 730 287 693 c 128,-1,29
 308 656 308 656 329 598 c 2,30,-1
 502 116 l 2,31,32
 521 62 521 62 552 62 c 0,33,34
 560 62 560 62 568.5 64 c 128,-1,35
 577 66 577 66 582 67 c 1,36,-1
 582 2 l 1,37,38
 571 -3 571 -3 556.5 -6.5 c 128,-1,39
 542 -10 542 -10 525 -10 c 0,0,1
EndSplineSet
EndChar

StartChar: uni03BC
Encoding: 956 956 392
Width: 600
GlyphClass: 2
Flags: W
AnchorPoint: "Anchor-4" 580 536 basechar 0
AnchorPoint: "Anchor-3" 300 536 basechar 0
AnchorPoint: "Anchor-2" 540 10 basechar 0
AnchorPoint: "Anchor-0" 300 -240 basechar 0
LayerCount: 2
Fore
SplineSet
75 -240 m 1,0,-1
 75 536 l 1,1,-1
 165 536 l 1,2,-1
 165 193 l 2,3,4
 165 129 165 129 191.5 96 c 128,-1,5
 218 63 218 63 283 63 c 0,6,7
 366 63 366 63 398 115 c 128,-1,8
 430 167 430 167 430 260 c 2,9,-1
 430 536 l 1,10,-1
 520 536 l 1,11,-1
 520 0 l 1,12,-1
 448 0 l 1,13,-1
 435 72 l 1,14,-1
 430 72 l 1,15,16
 402 27 402 27 359.5 8.5 c 128,-1,17
 317 -10 317 -10 261 -10 c 0,18,19
 204 -10 204 -10 165 7 c 1,20,-1
 165 -240 l 1,21,-1
 75 -240 l 1,0,-1
EndSplineSet
EndChar

StartChar: nu
Encoding: 957 957 393
Width: 600
GlyphClass: 2
Flags: W
AnchorPoint: "Anchor-3" 308 536 basechar 0
AnchorPoint: "Anchor-0" 312 0 basechar 0
LayerCount: 2
Fore
SplineSet
242 0 m 1,0,-1
 65 536 l 1,1,-1
 156 536 l 1,2,-1
 244 248 l 2,3,4
 252 224 252 224 262.5 190.5 c 128,-1,5
 273 157 273 157 283 125.5 c 128,-1,6
 293 94 293 94 298 74 c 1,7,-1
 302 74 l 1,8,9
 358 136 358 136 389.5 206 c 128,-1,10
 421 276 421 276 434 357.5 c 128,-1,11
 447 439 447 439 447 536 c 1,12,-1
 534 536 l 1,13,14
 534 431 534 431 516.5 340.5 c 128,-1,15
 499 250 499 250 456.5 166.5 c 128,-1,16
 414 83 414 83 337 0 c 1,17,-1
 242 0 l 1,0,-1
EndSplineSet
EndChar

StartChar: xi
Encoding: 958 958 394
Width: 600
GlyphClass: 2
Flags: W
AnchorPoint: "Anchor-3" 339 760 basechar 0
AnchorPoint: "Anchor-0" 337 -195 basechar 0
LayerCount: 2
Fore
SplineSet
374 -195 m 1,0,1
 397 -164 397 -164 415 -126.5 c 128,-1,2
 433 -89 433 -89 433 -63 c 0,3,4
 433 -32 433 -32 402.5 -20 c 128,-1,5
 372 -8 372 -8 311 5 c 0,6,7
 286 10 286 10 252.5 20.5 c 128,-1,8
 219 31 219 31 187 51.5 c 128,-1,9
 155 72 155 72 134.5 108 c 128,-1,10
 114 144 114 144 114 201 c 0,11,12
 114 280 114 280 155 328 c 128,-1,13
 196 376 196 376 254 395 c 1,14,-1
 254 401 l 1,15,16
 204 415 204 415 176 447.5 c 128,-1,17
 148 480 148 480 148 536 c 0,18,19
 148 584 148 584 167 614 c 128,-1,20
 186 644 186 644 218 663 c 128,-1,21
 250 682 250 682 288 693 c 1,22,23
 274 692 274 692 243 689.5 c 128,-1,24
 212 687 212 687 175 687 c 2,25,-1
 145 687 l 1,26,-1
 145 760 l 1,27,-1
 491 760 l 1,28,-1
 491 692 l 1,29,-1
 465 692 l 2,30,31
 408 692 408 692 354.5 675 c 128,-1,32
 301 658 301 658 267 624 c 128,-1,33
 233 590 233 590 233 537 c 0,34,35
 233 488 233 488 270.5 460.5 c 128,-1,36
 308 433 308 433 396 433 c 2,37,-1
 479 433 l 1,38,-1
 479 366 l 1,39,-1
 393 366 l 2,40,41
 302 366 302 366 254 322 c 128,-1,42
 206 278 206 278 206 207 c 0,43,44
 206 160 206 160 227 135 c 128,-1,45
 248 110 248 110 287 97.5 c 128,-1,46
 326 85 326 85 380 73 c 0,47,48
 456 56 456 56 486.5 29.5 c 128,-1,49
 517 3 517 3 517 -42 c 0,50,51
 517 -84 517 -84 498 -124 c 128,-1,52
 479 -164 479 -164 457 -195 c 1,53,-1
 374 -195 l 1,0,1
EndSplineSet
EndChar

StartChar: pi
Encoding: 960 960 396
Width: 600
GlyphClass: 2
Flags: W
AnchorPoint: "Anchor-3" 301 536 basechar 0
AnchorPoint: "Anchor-0" 301 0 basechar 0
LayerCount: 2
Fore
SplineSet
481 -10 m 0,0,1
 370 -10 370 -10 370 118 c 2,2,-1
 370 463 l 1,3,-1
 233 463 l 1,4,-1
 233 0 l 1,5,-1
 146 0 l 1,6,-1
 146 463 l 1,7,-1
 37 463 l 1,8,-1
 37 501 l 1,9,-1
 109 536 l 1,10,-1
 562 536 l 1,11,-1
 562 463 l 1,12,-1
 457 463 l 1,13,-1
 457 124 l 2,14,15
 457 89 457 89 470 75.5 c 128,-1,16
 483 62 483 62 503 62 c 0,17,18
 516 62 516 62 528 65 c 128,-1,19
 540 68 540 68 547 72 c 1,20,-1
 547 3 l 1,21,22
 539 -2 539 -2 521.5 -6 c 128,-1,23
 504 -10 504 -10 481 -10 c 0,0,1
EndSplineSet
EndChar

StartChar: rho
Encoding: 961 961 397
Width: 600
GlyphClass: 2
Flags: W
AnchorPoint: "Anchor-3" 316 536 basechar 0
AnchorPoint: "Anchor-0" 300 -240 basechar 0
LayerCount: 2
Fore
SplineSet
80 -240 m 1,0,-1
 80 275 l 2,1,2
 80 412 80 412 144 479 c 128,-1,3
 208 546 208 546 316 546 c 0,4,5
 383 546 383 546 434.5 514 c 128,-1,6
 486 482 486 482 515.5 420 c 128,-1,7
 545 358 545 358 545 268 c 0,8,9
 545 132 545 132 482 61 c 128,-1,10
 419 -10 419 -10 311 -10 c 0,11,12
 271 -10 271 -10 234 1.5 c 128,-1,13
 197 13 197 13 169 35 c 1,14,-1
 164 35 l 1,15,16
 166 18 166 18 167.5 -17.5 c 128,-1,17
 169 -53 169 -53 169 -98 c 2,18,-1
 169 -240 l 1,19,-1
 80 -240 l 1,0,-1
310 63 m 0,20,21
 387 63 387 63 421 115 c 128,-1,22
 455 167 455 167 455 268 c 0,23,24
 455 371 455 371 421.5 421.5 c 128,-1,25
 388 472 388 472 312 472 c 0,26,27
 169 472 169 472 169 274 c 2,28,-1
 169 112 l 1,29,30
 197 87 197 87 233.5 75 c 128,-1,31
 270 63 270 63 310 63 c 0,20,21
EndSplineSet
EndChar

StartChar: sigma1
Encoding: 962 962 398
Width: 600
GlyphClass: 2
Flags: W
AnchorPoint: "Anchor-3" 359 536 basechar 0
AnchorPoint: "Anchor-0" 347 -199 basechar 0
LayerCount: 2
Fore
SplineSet
364 -195 m 1,0,1
 387 -164 387 -164 405.5 -126 c 128,-1,2
 424 -88 424 -88 424 -60 c 0,3,4
 424 -41 424 -41 413 -30.5 c 128,-1,5
 402 -20 402 -20 375.5 -12 c 128,-1,6
 349 -4 349 -4 302 6 c 0,7,8
 240 20 240 20 191 45 c 128,-1,9
 142 70 142 70 113.5 119.5 c 128,-1,10
 85 169 85 169 85 257 c 0,11,12
 85 354 85 354 120 418 c 128,-1,13
 155 482 155 482 217 514 c 128,-1,14
 279 546 279 546 359 546 c 0,15,16
 403 546 403 546 441.5 537.5 c 128,-1,17
 480 529 480 529 508 517 c 1,18,-1
 480 444 l 1,19,20
 454 454 454 454 423 461.5 c 128,-1,21
 392 469 392 469 355 469 c 0,22,23
 260 469 260 469 218 412.5 c 128,-1,24
 176 356 176 356 176 250 c 0,25,26
 176 205 176 205 185.5 177 c 128,-1,27
 195 149 195 149 217 131 c 128,-1,28
 239 113 239 113 276 100.5 c 128,-1,29
 313 88 313 88 369 74 c 0,30,31
 406 65 406 65 437.5 53 c 128,-1,32
 469 41 469 41 488 19 c 128,-1,33
 507 -3 507 -3 507 -43 c 0,34,35
 507 -84 507 -84 488 -124.5 c 128,-1,36
 469 -165 469 -165 447 -195 c 1,37,-1
 364 -195 l 1,0,1
EndSplineSet
EndChar

StartChar: sigma
Encoding: 963 963 399
Width: 600
GlyphClass: 2
Flags: W
AnchorPoint: "Anchor-3" 300 536 basechar 0
AnchorPoint: "Anchor-0" 300 0 basechar 0
LayerCount: 2
Fore
SplineSet
301 -10 m 0,0,1
 190 -10 190 -10 122.5 58 c 128,-1,2
 55 126 55 126 55 256 c 0,3,4
 55 356 55 356 90.5 418 c 128,-1,5
 126 480 126 480 190.5 508 c 128,-1,6
 255 536 255 536 343 536 c 2,7,-1
 590 536 l 1,8,-1
 590 463 l 1,9,-1
 460 463 l 1,10,11
 499 426 499 426 523 372 c 128,-1,12
 547 318 547 318 547 246 c 256,13,14
 547 174 547 174 519.5 116 c 128,-1,15
 492 58 492 58 437 24 c 128,-1,16
 382 -10 382 -10 301 -10 c 0,0,1
303 63 m 0,17,18
 384 63 384 63 420.5 114 c 128,-1,19
 457 165 457 165 457 244 c 0,20,21
 457 308 457 308 435.5 364 c 128,-1,22
 414 420 414 420 374 463 c 1,23,-1
 343 463 l 2,24,25
 244 463 244 463 195 416 c 128,-1,26
 146 369 146 369 146 256 c 0,27,28
 146 171 146 171 183 117 c 128,-1,29
 220 63 220 63 303 63 c 0,17,18
EndSplineSet
EndChar

StartChar: tau
Encoding: 964 964 400
Width: 600
GlyphClass: 2
Flags: W
AnchorPoint: "Anchor-3" 303 536 basechar 0
AnchorPoint: "Anchor-0" 347 0 basechar 0
LayerCount: 2
Fore
SplineSet
395 -11 m 0,0,1
 349 -11 349 -11 310 2.5 c 128,-1,2
 271 16 271 16 247 52 c 128,-1,3
 223 88 223 88 223 155 c 2,4,-1
 223 462 l 1,5,-1
 79 462 l 1,6,-1
 79 501 l 1,7,-1
 152 536 l 1,8,-1
 521 536 l 1,9,-1
 521 462 l 1,10,-1
 312 462 l 1,11,-1
 312 164 l 2,12,13
 312 106 312 106 338.5 83 c 128,-1,14
 365 60 365 60 408 60 c 0,15,16
 430 60 430 60 453.5 63 c 128,-1,17
 477 66 477 66 493 71 c 1,18,-1
 493 5 l 1,19,20
 479 -1 479 -1 451.5 -6 c 128,-1,21
 424 -11 424 -11 395 -11 c 0,0,1
EndSplineSet
EndChar

StartChar: upsilon
Encoding: 965 965 401
Width: 600
GlyphClass: 2
Flags: W
AnchorPoint: "Anchor-3" 300 536 basechar 0
AnchorPoint: "Anchor-0" 313 0 basechar 0
LayerCount: 2
Fore
SplineSet
308 -10 m 0,0,1
 219 -10 219 -10 169.5 23.5 c 128,-1,2
 120 57 120 57 100 114.5 c 128,-1,3
 80 172 80 172 80 243 c 2,4,-1
 80 536 l 1,5,-1
 168 536 l 1,6,-1
 168 246 l 2,7,8
 168 160 168 160 203 111 c 128,-1,9
 238 62 238 62 315 62 c 0,10,11
 389 62 389 62 425 119 c 128,-1,12
 461 176 461 176 461 296 c 0,13,14
 461 366 461 366 453 421 c 128,-1,15
 445 476 445 476 430 536 c 1,16,-1
 518 536 l 1,17,18
 534 477 534 477 542 421.5 c 128,-1,19
 550 366 550 366 550 292 c 0,20,21
 550 137 550 137 488.5 63.5 c 128,-1,22
 427 -10 427 -10 308 -10 c 0,0,1
EndSplineSet
EndChar

StartChar: phi
Encoding: 966 966 402
Width: 600
GlyphClass: 2
Flags: W
AnchorPoint: "Anchor-3" 296 536 basechar 0
AnchorPoint: "Anchor-0" 296 -240 basechar 0
LayerCount: 2
Fore
SplineSet
254 -240 m 1,0,-1
 254 -8 l 1,1,2
 159 0 159 0 107 70.5 c 128,-1,3
 55 141 55 141 55 266 c 0,4,5
 55 348 55 348 78.5 415.5 c 128,-1,6
 102 483 102 483 150 542 c 1,7,-1
 216 501 l 1,8,9
 172 446 172 446 157.5 392 c 128,-1,10
 143 338 143 338 143 279 c 0,11,12
 143 178 143 178 169 127.5 c 128,-1,13
 195 77 195 77 254 66 c 1,14,-1
 254 368 l 2,15,16
 254 455 254 455 284 501 c 128,-1,17
 314 547 314 547 379 547 c 0,18,19
 439 547 439 547 475.5 511 c 128,-1,20
 512 475 512 475 528.5 416.5 c 128,-1,21
 545 358 545 358 545 289 c 0,22,23
 545 206 545 206 522.5 142 c 128,-1,24
 500 78 500 78 455 38.5 c 128,-1,25
 410 -1 410 -1 341 -8 c 1,26,-1
 341 -240 l 1,27,-1
 254 -240 l 1,0,-1
340 66 m 1,28,29
 392 74 392 74 424 131 c 128,-1,30
 456 188 456 188 456 292 c 0,31,32
 456 372 456 372 437 422.5 c 128,-1,33
 418 473 418 473 386 473 c 0,34,35
 357 473 357 473 348.5 444.5 c 128,-1,36
 340 416 340 416 340 363 c 2,37,-1
 340 66 l 1,28,29
EndSplineSet
EndChar

StartChar: chi
Encoding: 967 967 403
Width: 600
GlyphClass: 2
Flags: W
AnchorPoint: "Anchor-4" 580 536 basechar 0
AnchorPoint: "Anchor-3" 294 536 basechar 0
AnchorPoint: "Anchor-0" 294 -243 basechar 0
LayerCount: 2
Fore
SplineSet
494 -243 m 0,0,1
 451 -243 451 -243 423.5 -229.5 c 128,-1,2
 396 -216 396 -216 379.5 -195 c 128,-1,3
 363 -174 363 -174 354.5 -150 c 128,-1,4
 346 -126 346 -126 340 -106 c 2,5,-1
 289 82 l 1,6,-1
 139 -240 l 1,7,-1
 45 -240 l 1,8,-1
 249 170 l 1,9,-1
 191 383 l 2,10,11
 180 424 180 424 161.5 446 c 128,-1,12
 143 468 143 468 115 468 c 0,13,14
 108 468 108 468 99.5 466.5 c 128,-1,15
 91 465 91 465 84 462 c 1,16,-1
 84 531 l 1,17,18
 94 534 94 534 110 536.5 c 128,-1,19
 126 539 126 539 143 539 c 0,20,21
 196 539 196 539 223 508.5 c 128,-1,22
 250 478 250 478 266 417 c 2,23,-1
 310 245 l 1,24,-1
 440 536 l 1,25,-1
 534 536 l 1,26,-1
 347 160 l 1,27,-1
 417 -79 l 2,28,29
 430 -126 430 -126 451 -148.5 c 128,-1,30
 472 -171 472 -171 511 -171 c 0,31,32
 522 -171 522 -171 533.5 -169.5 c 128,-1,33
 545 -168 545 -168 554 -167 c 1,34,-1
 554 -235 l 1,35,36
 543 -238 543 -238 528 -240.5 c 128,-1,37
 513 -243 513 -243 494 -243 c 0,0,1
EndSplineSet
EndChar

StartChar: psi
Encoding: 968 968 404
Width: 600
GlyphClass: 2
Flags: W
AnchorPoint: "Anchor-3" 310 760 basechar 0
AnchorPoint: "Anchor-0" 310 -240 basechar 0
LayerCount: 2
Fore
SplineSet
269 -240 m 1,0,-1
 269 -9 l 1,1,2
 181 -7 181 -7 130.5 58 c 128,-1,3
 80 123 80 123 80 251 c 2,4,-1
 80 537 l 1,5,-1
 163 537 l 1,6,-1
 163 255 l 2,7,8
 163 164 163 164 188.5 117 c 128,-1,9
 214 70 214 70 269 65 c 1,10,-1
 269 760 l 1,11,-1
 348 760 l 1,12,-1
 348 65 l 1,13,14
 408 70 408 70 434.5 124 c 128,-1,15
 461 178 461 178 461 288 c 0,16,17
 461 410 461 410 430 537 c 1,18,-1
 512 537 l 1,19,20
 529 467 529 467 537 406.5 c 128,-1,21
 545 346 545 346 545 290 c 0,22,23
 545 141 545 141 493.5 68.5 c 128,-1,24
 442 -4 442 -4 348 -9 c 1,25,-1
 348 -240 l 1,26,-1
 269 -240 l 1,0,-1
EndSplineSet
EndChar

StartChar: omega
Encoding: 969 969 405
Width: 600
GlyphClass: 2
Flags: W
AnchorPoint: "Anchor-3" 300 536 basechar 0
AnchorPoint: "Anchor-0" 300 0 basechar 0
LayerCount: 2
Fore
SplineSet
197 -10 m 0,0,1
 130 -10 130 -10 92.5 60 c 128,-1,2
 55 130 55 130 55 263 c 0,3,4
 55 333 55 333 66 399.5 c 128,-1,5
 77 466 77 466 101 537 c 1,6,-1
 186 537 l 1,7,8
 158 464 158 464 149 398 c 128,-1,9
 140 332 140 332 140 266 c 0,10,11
 140 161 140 161 157 114.5 c 128,-1,12
 174 68 174 68 206 68 c 0,13,14
 235 68 235 68 248 103.5 c 128,-1,15
 261 139 261 139 261 215 c 2,16,-1
 261 348 l 1,17,-1
 339 348 l 1,18,-1
 339 215 l 2,19,20
 339 140 339 140 351.5 104 c 128,-1,21
 364 68 364 68 393 68 c 0,22,23
 461 68 461 68 461 262 c 0,24,25
 461 331 461 331 450.5 401.5 c 128,-1,26
 440 472 440 472 415 537 c 1,27,-1
 499 537 l 1,28,29
 545 400 545 400 545 264 c 0,30,31
 545 130 545 130 506 60 c 128,-1,32
 467 -10 467 -10 401 -10 c 0,33,34
 363 -10 363 -10 337.5 14 c 128,-1,35
 312 38 312 38 301 81 c 1,36,-1
 299 81 l 1,37,38
 288 38 288 38 263 14 c 128,-1,39
 238 -10 238 -10 197 -10 c 0,0,1
EndSplineSet
EndChar

StartChar: afii10051
Encoding: 1026 1026 412
Width: 600
GlyphClass: 2
Flags: W
AnchorPoint: "Anchor-3" 195 714 basechar 0
AnchorPoint: "Anchor-0" 300 0 basechar 0
LayerCount: 2
Fore
SplineSet
364 -10 m 0,0,1
 325 -10 325 -10 300 1 c 1,2,-1
 300 78 l 1,3,4
 324 68 324 68 353 68 c 0,5,6
 389 68 389 68 413.5 89 c 128,-1,7
 438 110 438 110 438 170 c 2,8,-1
 438 256 l 2,9,10
 438 310 438 310 411.5 336 c 128,-1,11
 385 362 385 362 323 362 c 2,12,-1
 210 362 l 1,13,-1
 210 0 l 1,14,-1
 123 0 l 1,15,-1
 123 637 l 1,16,-1
 0 637 l 1,17,-1
 0 714 l 1,18,-1
 404 714 l 1,19,-1
 404 637 l 1,20,-1
 210 637 l 1,21,-1
 210 439 l 1,22,-1
 330 439 l 2,23,24
 425 439 425 439 475 394.5 c 128,-1,25
 525 350 525 350 525 266 c 2,26,-1
 525 164 l 2,27,28
 525 80 525 80 481.5 35 c 128,-1,29
 438 -10 438 -10 364 -10 c 0,0,1
EndSplineSet
EndChar

StartChar: afii10053
Encoding: 1028 1028 414
Width: 600
GlyphClass: 2
Flags: W
AnchorPoint: "Anchor-3" 394 714 basechar 0
AnchorPoint: "Anchor-0" 388 0 basechar 0
LayerCount: 2
Fore
SplineSet
382 -10 m 0,0,1
 270 -10 270 -10 195 35.5 c 128,-1,2
 120 81 120 81 82.5 162.5 c 128,-1,3
 45 244 45 244 45 352 c 0,4,5
 45 462 45 462 83.5 546 c 128,-1,6
 122 630 122 630 198.5 677.5 c 128,-1,7
 275 725 275 725 388 725 c 0,8,9
 440 725 440 725 482.5 714 c 128,-1,10
 525 703 525 703 561 683 c 1,11,-1
 528 609 l 1,12,13
 497 626 497 626 462.5 636.5 c 128,-1,14
 428 647 428 647 385 647 c 0,15,16
 310 647 310 647 258 616.5 c 128,-1,17
 206 586 206 586 176 532 c 128,-1,18
 146 478 146 478 138 410 c 1,19,-1
 469 410 l 1,20,-1
 469 333 l 1,21,-1
 137 333 l 1,22,23
 140 255 140 255 168 195.5 c 128,-1,24
 196 136 196 136 251.5 102 c 128,-1,25
 307 68 307 68 391 68 c 0,26,27
 434 68 434 68 469.5 76.5 c 128,-1,28
 505 85 505 85 537 98 c 1,29,-1
 537 20 l 1,30,31
 471 -10 471 -10 382 -10 c 0,0,1
EndSplineSet
EndChar

StartChar: afii10058
Encoding: 1033 1033 419
Width: 600
GlyphClass: 2
Flags: W
AnchorPoint: "Anchor-3" 261 714 basechar 0
AnchorPoint: "Anchor-0" 300 0 basechar 0
LayerCount: 2
Fore
SplineSet
59 -10 m 0,0,1
 43 -10 43 -10 31.5 -7.5 c 128,-1,2
 20 -5 20 -5 10 -1 c 1,3,-1
 10 71 l 1,4,5
 16 68 16 68 23 66 c 128,-1,6
 30 64 30 64 41 64 c 0,7,8
 66 64 66 64 82.5 93 c 128,-1,9
 99 122 99 122 107 189 c 0,10,11
 117 268 117 268 125.5 395 c 128,-1,12
 134 522 134 522 142 714 c 1,13,-1
 380 714 l 1,14,-1
 380 414 l 1,15,-1
 402 414 l 2,16,17
 506 414 506 414 548 359 c 128,-1,18
 590 304 590 304 590 211 c 0,19,20
 590 113 590 113 546.5 56.5 c 128,-1,21
 503 0 503 0 409 0 c 2,22,-1
 298 0 l 1,23,-1
 298 635 l 1,24,-1
 214 635 l 1,25,26
 209 498 209 498 201 375 c 128,-1,27
 193 252 193 252 180 160 c 0,28,29
 169 80 169 80 141 35 c 128,-1,30
 113 -10 113 -10 59 -10 c 0,0,1
380 75 m 1,31,-1
 410 75 l 2,32,33
 462 75 462 75 484.5 109 c 128,-1,34
 507 143 507 143 507 210 c 0,35,36
 507 278 507 278 483.5 308 c 128,-1,37
 460 338 460 338 403 338 c 2,38,-1
 380 338 l 1,39,-1
 380 75 l 1,31,-1
EndSplineSet
EndChar

StartChar: afii10059
Encoding: 1034 1034 420
Width: 600
GlyphClass: 2
Flags: W
AnchorPoint: "Anchor-3" 207 714 basechar 0
AnchorPoint: "Anchor-0" 300 0 basechar 0
LayerCount: 2
Fore
SplineSet
50 0 m 1,0,-1
 50 714 l 1,1,-1
 137 714 l 1,2,-1
 137 415 l 1,3,-1
 275 415 l 1,4,-1
 275 714 l 1,5,-1
 362 714 l 1,6,-1
 362 414 l 1,7,-1
 395 414 l 2,8,9
 499 414 499 414 544.5 359 c 128,-1,10
 590 304 590 304 590 210 c 0,11,12
 590 113 590 113 543 56.5 c 128,-1,13
 496 0 496 0 402 0 c 2,14,-1
 275 0 l 1,15,-1
 275 338 l 1,16,-1
 137 338 l 1,17,-1
 137 0 l 1,18,-1
 50 0 l 1,0,-1
362 75 m 1,19,-1
 397 75 l 2,20,21
 501 75 501 75 501 210 c 0,22,23
 501 278 501 278 474 308 c 128,-1,24
 447 338 447 338 390 338 c 2,25,-1
 362 338 l 1,26,-1
 362 75 l 1,19,-1
EndSplineSet
EndChar

StartChar: afii10060
Encoding: 1035 1035 421
Width: 600
GlyphClass: 2
Flags: W
AnchorPoint: "Anchor-3" 217 714 basechar 0
AnchorPoint: "Anchor-0" 326 0 basechar 0
LayerCount: 2
Fore
SplineSet
122 0 m 1,0,-1
 122 636 l 1,1,-1
 0 636 l 1,2,-1
 0 714 l 1,3,-1
 418 714 l 1,4,-1
 418 636 l 1,5,-1
 210 636 l 1,6,-1
 210 439 l 1,7,-1
 332 439 l 2,8,9
 426 439 426 439 475.5 394 c 128,-1,10
 525 349 525 349 525 261 c 2,11,-1
 525 0 l 1,12,-1
 438 0 l 1,13,-1
 438 256 l 2,14,15
 438 310 438 310 412 335.5 c 128,-1,16
 386 361 386 361 325 361 c 2,17,-1
 210 361 l 1,18,-1
 210 0 l 1,19,-1
 122 0 l 1,0,-1
EndSplineSet
EndChar

StartChar: afii10145
Encoding: 1039 1039 424
Width: 600
GlyphClass: 2
Flags: W
AnchorPoint: "Anchor-3" 300 714 basechar 0
AnchorPoint: "Anchor-0" 300 -191 basechar 0
LayerCount: 2
Fore
SplineSet
257 -191 m 1,0,-1
 257 0 l 1,1,-1
 70 0 l 1,2,-1
 70 714 l 1,3,-1
 157 714 l 1,4,-1
 157 77 l 1,5,-1
 444 77 l 1,6,-1
 444 714 l 1,7,-1
 530 714 l 1,8,-1
 530 0 l 1,9,-1
 344 0 l 1,10,-1
 344 -191 l 1,11,-1
 257 -191 l 1,0,-1
EndSplineSet
EndChar

StartChar: afii10018
Encoding: 1041 1041 426
Width: 600
GlyphClass: 2
Flags: W
AnchorPoint: "Anchor-3" 300 714 basechar 0
AnchorPoint: "Anchor-0" 300 0 basechar 0
LayerCount: 2
Fore
SplineSet
95 0 m 1,0,-1
 95 714 l 1,1,-1
 505 714 l 1,2,-1
 505 637 l 1,3,-1
 182 637 l 1,4,-1
 182 414 l 1,5,-1
 306 414 l 2,6,7
 394 414 394 414 446.5 389.5 c 128,-1,8
 499 365 499 365 522 319.5 c 128,-1,9
 545 274 545 274 545 210 c 0,10,11
 545 111 545 111 488.5 55.5 c 128,-1,12
 432 0 432 0 314 0 c 2,13,-1
 95 0 l 1,0,-1
182 76 m 1,14,-1
 309 76 l 2,15,16
 386 76 386 76 421 109.5 c 128,-1,17
 456 143 456 143 456 210 c 0,18,19
 456 278 456 278 420 308 c 128,-1,20
 384 338 384 338 301 338 c 2,21,-1
 182 338 l 1,22,-1
 182 76 l 1,14,-1
EndSplineSet
EndChar

StartChar: afii10021
Encoding: 1044 1044 429
Width: 600
GlyphClass: 2
Flags: W
AnchorPoint: "Anchor-3" 360 714 basechar 0
AnchorPoint: "Anchor-0" 300 -191 basechar 0
LayerCount: 2
Fore
SplineSet
20 -191 m 1,0,-1
 20 78 l 1,1,-1
 69 78 l 1,2,3
 133 220 133 220 173 384 c 128,-1,4
 213 548 213 548 218 714 c 1,5,-1
 492 714 l 1,6,-1
 492 78 l 1,7,-1
 570 78 l 1,8,-1
 570 -191 l 1,9,-1
 487 -191 l 1,10,-1
 487 0 l 1,11,-1
 103 0 l 1,12,-1
 103 -191 l 1,13,-1
 20 -191 l 1,0,-1
161 78 m 1,14,-1
 406 78 l 1,15,-1
 406 636 l 1,16,-1
 297 636 l 1,17,18
 292 546 292 546 273 447 c 128,-1,19
 254 348 254 348 225 252.5 c 128,-1,20
 196 157 196 157 161 78 c 1,14,-1
EndSplineSet
EndChar

StartChar: afii10024
Encoding: 1046 1046 431
Width: 600
GlyphClass: 2
Flags: W
AnchorPoint: "Anchor-3" 300 714 basechar 0
AnchorPoint: "Anchor-0" 300 0 basechar 0
LayerCount: 2
Fore
SplineSet
10 0 m 1,0,-1
 176 368 l 1,1,-1
 16 714 l 1,2,-1
 106 714 l 1,3,-1
 260 368 l 1,4,-1
 260 714 l 1,5,-1
 342 714 l 1,6,-1
 342 368 l 1,7,-1
 493 714 l 1,8,-1
 583 714 l 1,9,-1
 425 368 l 1,10,-1
 590 0 l 1,11,-1
 497 0 l 1,12,-1
 342 362 l 1,13,-1
 342 0 l 1,14,-1
 260 0 l 1,15,-1
 260 362 l 1,16,-1
 102 0 l 1,17,-1
 10 0 l 1,0,-1
EndSplineSet
EndChar

StartChar: afii10025
Encoding: 1047 1047 432
Width: 600
GlyphClass: 2
Flags: W
AnchorPoint: "Anchor-3" 300 714 basechar 0
AnchorPoint: "Anchor-0" 300 0 basechar 0
LayerCount: 2
Fore
SplineSet
265 -10 m 0,0,1
 198 -10 198 -10 150 0 c 128,-1,2
 102 10 102 10 64 27 c 1,3,-1
 64 110 l 1,4,5
 100 91 100 91 150.5 78 c 128,-1,6
 201 65 201 65 260 65 c 0,7,8
 354 65 354 65 398 99 c 128,-1,9
 442 133 442 133 442 200 c 0,10,11
 442 269 442 269 391 301 c 128,-1,12
 340 333 340 333 238 333 c 2,13,-1
 141 333 l 1,14,-1
 141 408 l 1,15,-1
 236 408 l 2,16,17
 335 408 335 408 381 440.5 c 128,-1,18
 427 473 427 473 427 537 c 0,19,20
 427 592 427 592 391 620.5 c 128,-1,21
 355 649 355 649 287 649 c 0,22,23
 220 649 220 649 181 629.5 c 128,-1,24
 142 610 142 610 112 591 c 1,25,-1
 70 654 l 1,26,27
 108 680 108 680 161 702 c 128,-1,28
 214 724 214 724 294 724 c 0,29,30
 405 724 405 724 460.5 674.5 c 128,-1,31
 516 625 516 625 516 547 c 0,32,33
 516 402 516 402 355 375 c 1,34,-1
 355 371 l 1,35,36
 446 361 446 361 489 316.5 c 128,-1,37
 532 272 532 272 532 199 c 0,38,39
 532 104 532 104 466.5 47 c 128,-1,40
 401 -10 401 -10 265 -10 c 0,0,1
EndSplineSet
EndChar

StartChar: afii10026
Encoding: 1048 1048 433
Width: 600
GlyphClass: 2
Flags: W
AnchorPoint: "Anchor-3" 300 714 basechar 0
AnchorPoint: "Anchor-0" 280 0 basechar 0
LayerCount: 2
Fore
SplineSet
70 0 m 1,0,-1
 70 714 l 1,1,-1
 153 714 l 1,2,-1
 153 305 l 2,3,4
 153 266 153 266 151 218 c 128,-1,5
 149 170 149 170 147 132 c 1,6,-1
 151 132 l 1,7,-1
 428 714 l 1,8,-1
 530 714 l 1,9,-1
 530 0 l 1,10,-1
 447 0 l 1,11,-1
 447 413 l 2,12,13
 447 456 447 456 449.5 506 c 128,-1,14
 452 556 452 556 454 587 c 1,15,-1
 450 587 l 1,16,-1
 171 0 l 1,17,-1
 70 0 l 1,0,-1
EndSplineSet
EndChar

StartChar: afii10028
Encoding: 1050 1050 435
Width: 600
GlyphClass: 2
Flags: W
AnchorPoint: "Anchor-3" 300 714 basechar 0
AnchorPoint: "Anchor-0" 303 0 basechar 0
LayerCount: 2
Fore
SplineSet
70 0 m 1,0,-1
 70 714 l 1,1,-1
 157 714 l 1,2,-1
 157 370 l 1,3,-1
 441 714 l 1,4,-1
 538 714 l 1,5,-1
 253 369 l 1,6,-1
 550 0 l 1,7,-1
 449 0 l 1,8,-1
 157 365 l 1,9,-1
 157 0 l 1,10,-1
 70 0 l 1,0,-1
EndSplineSet
EndChar

StartChar: afii10029
Encoding: 1051 1051 436
Width: 600
GlyphClass: 2
Flags: W
AnchorPoint: "Anchor-3" 380 714 basechar 0
AnchorPoint: "Anchor-0" 300 0 basechar 0
LayerCount: 2
Fore
SplineSet
66 -10 m 0,0,1
 32 -10 32 -10 9 2 c 1,2,-1
 9 76 l 1,3,4
 29 66 29 66 54 66 c 0,5,6
 92 66 92 66 108 108 c 128,-1,7
 124 150 124 150 134 220 c 0,8,9
 140 262 140 262 150 339 c 128,-1,10
 160 416 160 416 171.5 513 c 128,-1,11
 183 610 183 610 194 714 c 1,12,-1
 530 714 l 1,13,-1
 530 0 l 1,14,-1
 443 0 l 1,15,-1
 443 635 l 1,16,-1
 268 635 l 1,17,18
 262 579 262 579 255.5 517 c 128,-1,19
 249 455 249 455 242 394.5 c 128,-1,20
 235 334 235 334 227.5 281 c 128,-1,21
 220 228 220 228 214 191 c 0,22,23
 197 90 197 90 166.5 40 c 128,-1,24
 136 -10 136 -10 66 -10 c 0,0,1
EndSplineSet
EndChar

StartChar: afii10033
Encoding: 1055 1055 440
Width: 600
GlyphClass: 2
Flags: W
AnchorPoint: "Anchor-3" 300 714 basechar 0
AnchorPoint: "Anchor-0" 300 0 basechar 0
LayerCount: 2
Fore
SplineSet
70 0 m 1,0,-1
 70 714 l 1,1,-1
 530 714 l 1,2,-1
 530 0 l 1,3,-1
 444 0 l 1,4,-1
 444 637 l 1,5,-1
 157 637 l 1,6,-1
 157 0 l 1,7,-1
 70 0 l 1,0,-1
EndSplineSet
EndChar

StartChar: afii10037
Encoding: 1059 1059 444
Width: 600
GlyphClass: 2
Flags: W
AnchorPoint: "Anchor-3" 300 714 basechar 0
AnchorPoint: "Anchor-0" 200 0 basechar 0
LayerCount: 2
Fore
SplineSet
154 -10 m 0,0,1
 132 -10 132 -10 112 -6.5 c 128,-1,2
 92 -3 92 -3 76 3 c 1,3,-1
 76 86 l 1,4,5
 110 70 110 70 147 70 c 0,6,7
 190 70 190 70 215 96 c 128,-1,8
 240 122 240 122 266 195 c 1,9,-1
 35 714 l 1,10,-1
 129 714 l 1,11,-1
 285 354 l 2,12,13
 298 324 298 324 311 280 c 1,14,-1
 315 280 l 1,15,16
 319 298 319 298 325 316 c 128,-1,17
 331 334 331 334 337 350 c 2,18,-1
 473 714 l 1,19,-1
 565 714 l 1,20,-1
 369 203 l 2,21,22
 340 128 340 128 312 81 c 128,-1,23
 284 34 284 34 246.5 12 c 128,-1,24
 209 -10 209 -10 154 -10 c 0,0,1
EndSplineSet
EndChar

StartChar: afii10038
Encoding: 1060 1060 445
Width: 600
GlyphClass: 2
Flags: W
AnchorPoint: "Anchor-3" 300 714 basechar 0
AnchorPoint: "Anchor-0" 300 0 basechar 0
LayerCount: 2
Fore
SplineSet
258 -10 m 1,0,-1
 258 100 l 1,1,2
 177 101 177 101 128 139 c 128,-1,3
 79 177 79 177 57 238.5 c 128,-1,4
 35 300 35 300 35 372 c 256,5,6
 35 444 35 444 58 504 c 128,-1,7
 81 564 81 564 130.5 600 c 128,-1,8
 180 636 180 636 258 636 c 1,9,-1
 258 724 l 1,10,-1
 344 724 l 1,11,-1
 344 636 l 1,12,13
 424 635 424 635 472.5 600 c 128,-1,14
 521 565 521 565 543 505.5 c 128,-1,15
 565 446 565 446 565 372 c 0,16,17
 565 300 565 300 543 238.5 c 128,-1,18
 521 177 521 177 472.5 139.5 c 128,-1,19
 424 102 424 102 344 100 c 1,20,-1
 344 -10 l 1,21,-1
 258 -10 l 1,0,-1
258 174 m 1,22,-1
 258 562 l 1,23,24
 185 560 185 560 154 510 c 128,-1,25
 123 460 123 460 123 372 c 0,26,27
 123 278 123 278 156 227 c 128,-1,28
 189 176 189 176 258 174 c 1,22,-1
344 174 m 1,29,30
 413 176 413 176 445 228 c 128,-1,31
 477 280 477 280 477 372 c 0,32,33
 477 462 477 462 446.5 511 c 128,-1,34
 416 560 416 560 344 562 c 1,35,-1
 344 174 l 1,29,30
EndSplineSet
EndChar

StartChar: afii10040
Encoding: 1062 1062 447
Width: 600
GlyphClass: 2
Flags: W
AnchorPoint: "Anchor-3" 300 714 basechar 0
AnchorPoint: "Anchor-0" 300 -196 basechar 0
LayerCount: 2
Fore
SplineSet
70 0 m 1,0,-1
 70 714 l 1,1,-1
 157 714 l 1,2,-1
 157 77 l 1,3,-1
 444 77 l 1,4,-1
 444 714 l 1,5,-1
 530 714 l 1,6,-1
 530 78 l 1,7,-1
 600 78 l 1,8,-1
 600 -191 l 1,9,-1
 516 -191 l 1,10,-1
 516 0 l 1,11,-1
 70 0 l 1,0,-1
EndSplineSet
EndChar

StartChar: afii10041
Encoding: 1063 1063 448
Width: 600
GlyphClass: 2
Flags: W
AnchorPoint: "Anchor-3" 300 714 basechar 0
AnchorPoint: "Anchor-0" 300 0 basechar 0
LayerCount: 2
Fore
SplineSet
443 0 m 1,0,-1
 443 293 l 1,1,2
 395 272 395 272 348.5 260 c 128,-1,3
 302 248 302 248 255 248 c 0,4,5
 164 248 164 248 117 295 c 128,-1,6
 70 342 70 342 70 430 c 2,7,-1
 70 714 l 1,8,-1
 157 714 l 1,9,-1
 157 444 l 2,10,11
 157 382 157 382 184.5 354 c 128,-1,12
 212 326 212 326 276 326 c 0,13,14
 352 326 352 326 443 365 c 1,15,-1
 443 714 l 1,16,-1
 530 714 l 1,17,-1
 530 0 l 1,18,-1
 443 0 l 1,0,-1
EndSplineSet
EndChar

StartChar: afii10042
Encoding: 1064 1064 449
Width: 600
GlyphClass: 2
Flags: W
AnchorPoint: "Anchor-3" 300 714 basechar 0
AnchorPoint: "Anchor-0" 300 0 basechar 0
LayerCount: 2
Fore
SplineSet
50 0 m 1,0,-1
 50 714 l 1,1,-1
 133 714 l 1,2,-1
 133 78 l 1,3,-1
 258 78 l 1,4,-1
 258 714 l 1,5,-1
 341 714 l 1,6,-1
 341 78 l 1,7,-1
 467 78 l 1,8,-1
 467 714 l 1,9,-1
 550 714 l 1,10,-1
 550 0 l 1,11,-1
 50 0 l 1,0,-1
EndSplineSet
EndChar

StartChar: afii10043
Encoding: 1065 1065 450
Width: 600
GlyphClass: 2
Flags: W
AnchorPoint: "Anchor-3" 300 714 basechar 0
AnchorPoint: "Anchor-0" 300 -191 basechar 0
LayerCount: 2
Fore
SplineSet
50 0 m 1,0,-1
 50 714 l 1,1,-1
 133 714 l 1,2,-1
 133 78 l 1,3,-1
 258 78 l 1,4,-1
 258 714 l 1,5,-1
 341 714 l 1,6,-1
 341 78 l 1,7,-1
 467 78 l 1,8,-1
 467 714 l 1,9,-1
 550 714 l 1,10,-1
 550 78 l 1,11,-1
 600 78 l 1,12,-1
 600 -191 l 1,13,-1
 516 -191 l 1,14,-1
 516 0 l 1,15,-1
 50 0 l 1,0,-1
EndSplineSet
EndChar

StartChar: afii10044
Encoding: 1066 1066 451
Width: 600
GlyphClass: 2
Flags: W
AnchorPoint: "Anchor-3" 300 714 basechar 0
AnchorPoint: "Anchor-0" 300 0 basechar 0
LayerCount: 2
Fore
SplineSet
115 0 m 1,0,-1
 115 636 l 1,1,-1
 0 636 l 1,2,-1
 0 714 l 1,3,-1
 202 714 l 1,4,-1
 202 414 l 1,5,-1
 327 414 l 2,6,7
 453 414 453 414 509 359 c 128,-1,8
 565 304 565 304 565 210 c 0,9,10
 565 113 565 113 506.5 56.5 c 128,-1,11
 448 0 448 0 334 0 c 2,12,-1
 115 0 l 1,0,-1
202 76 m 1,13,-1
 329 76 l 2,14,15
 476 76 476 76 476 210 c 0,16,17
 476 278 476 278 437.5 308 c 128,-1,18
 399 338 399 338 322 338 c 2,19,-1
 202 338 l 1,20,-1
 202 76 l 1,13,-1
EndSplineSet
EndChar

StartChar: afii10045
Encoding: 1067 1067 452
Width: 600
GlyphClass: 2
Flags: W
AnchorPoint: "Anchor-3" 300 714 basechar 0
AnchorPoint: "Anchor-0" 300 0 basechar 0
LayerCount: 2
Fore
SplineSet
50 0 m 1,0,-1
 50 714 l 1,1,-1
 137 714 l 1,2,-1
 137 414 l 1,3,-1
 200 414 l 2,4,5
 304 414 304 414 349.5 359 c 128,-1,6
 395 304 395 304 395 210 c 0,7,8
 395 113 395 113 348 56.5 c 128,-1,9
 301 0 301 0 207 0 c 2,10,-1
 50 0 l 1,0,-1
463 0 m 1,11,-1
 463 714 l 1,12,-1
 550 714 l 1,13,-1
 550 0 l 1,14,-1
 463 0 l 1,11,-1
137 75 m 1,15,-1
 202 75 l 2,16,17
 306 75 306 75 306 210 c 0,18,19
 306 278 306 278 279 308 c 128,-1,20
 252 338 252 338 195 338 c 2,21,-1
 137 338 l 1,22,-1
 137 75 l 1,15,-1
EndSplineSet
EndChar

StartChar: afii10046
Encoding: 1068 1068 453
Width: 600
GlyphClass: 2
Flags: W
AnchorPoint: "Anchor-3" 300 714 basechar 0
AnchorPoint: "Anchor-0" 300 0 basechar 0
LayerCount: 2
Fore
SplineSet
95 0 m 1,0,-1
 95 714 l 1,1,-1
 182 714 l 1,2,-1
 182 414 l 1,3,-1
 307 414 l 2,4,5
 433 414 433 414 489 359 c 128,-1,6
 545 304 545 304 545 210 c 0,7,8
 545 113 545 113 486.5 56.5 c 128,-1,9
 428 0 428 0 314 0 c 2,10,-1
 95 0 l 1,0,-1
182 76 m 1,11,-1
 309 76 l 2,12,13
 456 76 456 76 456 210 c 0,14,15
 456 278 456 278 417.5 308 c 128,-1,16
 379 338 379 338 302 338 c 2,17,-1
 182 338 l 1,18,-1
 182 76 l 1,11,-1
EndSplineSet
EndChar

StartChar: afii10048
Encoding: 1070 1070 455
Width: 600
GlyphClass: 2
Flags: W
AnchorPoint: "Anchor-3" 300 714 basechar 0
AnchorPoint: "Anchor-0" 300 0 basechar 0
LayerCount: 2
Fore
SplineSet
63 0 m 1,0,-1
 63 714 l 1,1,-1
 150 714 l 1,2,-1
 150 412 l 1,3,-1
 231 412 l 1,4,5
 233 507 233 507 249 577.5 c 128,-1,6
 265 648 265 648 299.5 686.5 c 128,-1,7
 334 725 334 725 393 725 c 0,8,9
 455 725 455 725 490.5 681.5 c 128,-1,10
 526 638 526 638 540.5 557.5 c 128,-1,11
 555 477 555 477 555 365 c 0,12,13
 555 256 555 256 541.5 171 c 128,-1,14
 528 86 528 86 493 38 c 128,-1,15
 458 -10 458 -10 392 -10 c 0,16,17
 331 -10 331 -10 296.5 33.5 c 128,-1,18
 262 77 262 77 247 154.5 c 128,-1,19
 232 232 232 232 230 334 c 1,20,-1
 150 334 l 1,21,-1
 150 0 l 1,22,-1
 63 0 l 1,0,-1
393 68 m 0,23,24
 436 68 436 68 451 143.5 c 128,-1,25
 466 219 466 219 466 360 c 0,26,27
 466 500 466 500 451 573.5 c 128,-1,28
 436 647 436 647 394 647 c 0,29,30
 351 647 351 647 334.5 572.5 c 128,-1,31
 318 498 318 498 318 358 c 0,32,33
 318 217 318 217 334.5 142.5 c 128,-1,34
 351 68 351 68 393 68 c 0,23,24
EndSplineSet
EndChar

StartChar: afii10066
Encoding: 1073 1073 458
Width: 600
GlyphClass: 2
Flags: W
AnchorPoint: "Anchor-3" 300 765 basechar 0
AnchorPoint: "Anchor-0" 300 0 basechar 0
LayerCount: 2
Fore
SplineSet
304 -10 m 0,0,1
 186 -10 186 -10 120.5 74 c 128,-1,2
 55 158 55 158 55 343 c 0,3,4
 55 494 55 494 106.5 586.5 c 128,-1,5
 158 679 158 679 282 718 c 0,6,7
 304 725 304 725 341.5 734.5 c 128,-1,8
 379 744 379 744 421.5 752 c 128,-1,9
 464 760 464 760 502 765 c 1,10,-1
 514 690 l 1,11,12
 481 686 481 686 441.5 679.5 c 128,-1,13
 402 673 402 673 366 665.5 c 128,-1,14
 330 658 330 658 305 650 c 0,15,16
 223 625 223 625 186 569.5 c 128,-1,17
 149 514 149 514 143 415 c 1,18,-1
 149 415 l 1,19,20
 173 448 173 448 221 473.5 c 128,-1,21
 269 499 269 499 336 499 c 0,22,23
 437 499 437 499 491 433.5 c 128,-1,24
 545 368 545 368 545 254 c 0,25,26
 545 126 545 126 480 58 c 128,-1,27
 415 -10 415 -10 304 -10 c 0,0,1
309 62 m 0,28,29
 378 62 378 62 417.5 106 c 128,-1,30
 457 150 457 150 457 248 c 0,31,32
 457 334 457 334 423.5 381 c 128,-1,33
 390 428 390 428 320 428 c 0,34,35
 275 428 275 428 237.5 411 c 128,-1,36
 200 394 200 394 175 370 c 128,-1,37
 150 346 150 346 141 326 c 1,38,39
 142 246 142 246 157.5 187 c 128,-1,40
 173 128 173 128 209.5 95 c 128,-1,41
 246 62 246 62 309 62 c 0,28,29
EndSplineSet
Substitution2: "'locl' Localized Forms in Cyrillic lookup 19 subtable" afii10066.loclSRB
Substitution2: "'aalt' Access All Alternates lookup 0 subtable" afii10066.loclSRB
EndChar

StartChar: afii10067
Encoding: 1074 1074 459
Width: 600
GlyphClass: 2
Flags: W
AnchorPoint: "Anchor-3" 300 536 basechar 0
AnchorPoint: "Anchor-0" 300 0 basechar 0
LayerCount: 2
Fore
SplineSet
130 0 m 1,0,-1
 130 537 l 1,1,-1
 340 537 l 2,2,3
 421 537 421 537 470 505.5 c 128,-1,4
 519 474 519 474 519 403 c 0,5,6
 519 354 519 354 494.5 325 c 128,-1,7
 470 296 470 296 426 286 c 1,8,-1
 426 282 l 1,9,10
 472 274 472 274 503 243.5 c 128,-1,11
 534 213 534 213 534 158 c 0,12,13
 534 86 534 86 488 43 c 128,-1,14
 442 0 442 0 344 0 c 2,15,-1
 130 0 l 1,0,-1
215 315 m 1,16,-1
 331 315 l 2,17,18
 433 315 433 315 433 394 c 0,19,20
 433 431 433 431 409.5 449.5 c 128,-1,21
 386 468 386 468 335 468 c 2,22,-1
 215 468 l 1,23,-1
 215 315 l 1,16,-1
215 68 m 1,24,-1
 337 68 l 2,25,26
 392 68 392 68 420 90 c 128,-1,27
 448 112 448 112 448 161 c 0,28,29
 448 207 448 207 419.5 227 c 128,-1,30
 391 247 391 247 337 247 c 2,31,-1
 215 247 l 1,32,-1
 215 68 l 1,24,-1
EndSplineSet
EndChar

StartChar: afii10068
Encoding: 1075 1075 460
Width: 600
GlyphClass: 2
Flags: W
AnchorPoint: "Anchor-3" 331 536 basechar 0
AnchorPoint: "Anchor-0" 300 0 basechar 0
LayerCount: 2
Fore
SplineSet
187 0 m 1,0,-1
 187 537 l 1,1,-1
 503 537 l 1,2,-1
 503 464 l 1,3,-1
 272 464 l 1,4,-1
 272 0 l 1,5,-1
 187 0 l 1,0,-1
EndSplineSet
EndChar

StartChar: afii10069
Encoding: 1076 1076 461
Width: 600
GlyphClass: 2
Flags: W
AnchorPoint: "Anchor-3" 340 536 basechar 0
AnchorPoint: "Anchor-0" 300 -187 basechar 0
LayerCount: 2
Fore
SplineSet
59 -187 m 1,0,-1
 59 73 l 1,1,-1
 102 73 l 1,2,3
 158 169 158 169 185 291.5 c 128,-1,4
 212 414 212 414 214 537 c 1,5,-1
 472 537 l 1,6,-1
 472 73 l 1,7,-1
 540 73 l 1,8,-1
 540 -187 l 1,9,-1
 458 -187 l 1,10,-1
 458 0 l 1,11,-1
 141 0 l 1,12,-1
 141 -187 l 1,13,-1
 59 -187 l 1,0,-1
189 73 m 1,14,-1
 390 73 l 1,15,-1
 390 467 l 1,16,-1
 288 467 l 1,17,18
 284 402 284 402 272.5 332 c 128,-1,19
 261 262 261 262 240 195 c 128,-1,20
 219 128 219 128 189 73 c 1,14,-1
EndSplineSet
EndChar

